<?xml version="1.0" encoding="UTF-8"?>
<svg id="Layer_2" data-name="Layer 2" xmlns="http://www.w3.org/2000/svg" viewBox="0 0 12 12">
  <g id="Layer_1-2" data-name="Layer 1">
    <g opacity=".8">
      <polygon points="5.35 6 7.54 8.19 6.95 8.78 4.18 6 6.95 3.22 7.54 3.81 5.35 6" fill="#939598"/>
      <g>
        <path d="M6,0C2.7,0,0,2.69,0,6s2.7,6,6,6,6-2.69,6-6S9.31,0,6,0ZM6,11.59C2.92,11.59.42,9.08.42,6S2.92.41,6,.41s5.59,2.51,5.59,5.59-2.51,5.59-5.59,5.59Z" fill="#939598"/>
        <path d="M6,.41C2.92.41.42,2.92.42,6s2.5,5.59,5.58,5.59,5.59-2.51,5.59-5.59S9.08.41,6,.41ZM7.54,8.19l-.59.59-2.77-2.78,2.77-2.78.59.59-2.19,2.19,2.19,2.19Z" fill="#fff"/>
      </g>
    </g>
  </g>
</svg>