<?xml version="1.0" encoding="UTF-8"?>
<svg id="Layer_2" data-name="Layer 2" xmlns="http://www.w3.org/2000/svg" viewBox="0 0 12 12">
  <g id="Layer_1-2" data-name="Layer 1">
    <g opacity=".8">
      <polygon points="7.82 6 5.05 8.78 4.46 8.19 6.65 6 4.46 3.81 5.05 3.22 7.82 6" fill="#939598"/>
      <g>
        <path d="M6,0C2.69,0,0,2.69,0,6s2.69,6,6,6,6-2.69,6-6S9.31,0,6,0ZM6,11.59C2.92,11.59.41,9.08.41,6S2.92.41,6,.41s5.58,2.51,5.58,5.59-2.5,5.59-5.58,5.59Z" fill="#939598"/>
        <path d="M6,.41C2.92.41.41,2.92.41,6s2.51,5.59,5.59,5.59,5.58-2.51,5.58-5.59S9.08.41,6,.41ZM5.05,8.78l-.59-.59,2.19-2.19-2.19-2.19.59-.59,2.77,2.78-2.77,2.78Z" fill="#fff"/>
      </g>
    </g>
  </g>
</svg>