<svg width="21" height="37" viewBox="0 0 21 37" fill="none" xmlns="http://www.w3.org/2000/svg">
<g clip-path="url(#clip0_97_1470)">
<path d="M18.6882 3.02771C18.7336 2.86581 18.626 2.82041 18.5166 2.76007C18.3618 2.67464 18.2064 2.58503 18.0685 2.4751C17.88 2.32575 17.6664 2.21761 17.4523 2.13636C17.2446 2.0575 17.0782 1.94997 16.9775 1.76357C16.8943 1.60944 16.7314 1.64528 16.6284 1.55448C16.4899 1.60466 16.4055 1.52879 16.3322 1.42304C16.2635 1.32447 16.1757 1.29161 16.0639 1.34777C15.9924 1.38361 15.9435 1.3394 15.9342 1.27847C15.9226 1.19961 15.9068 1.09566 15.844 1.0855C15.6659 1.05742 15.5472 0.90986 15.3872 0.87043C15.3023 0.849521 15.2249 0.848326 15.1533 0.783805C15.0777 0.715101 14.9753 0.675672 14.9066 0.601592C14.8158 0.504212 14.7152 0.496446 14.6005 0.514966C14.5214 0.391897 14.4021 0.421171 14.2846 0.415794C14.1542 0.410417 13.9925 0.405041 13.9215 0.289141C13.8627 0.194151 13.8132 0.195346 13.726 0.179813C13.6142 0.160098 13.481 0.171449 13.3937 0.0758623C13.3239 -0.000607468 13.2546 -0.0119584 13.158 0.00895125C13.0562 0.0310558 13.019 0.102746 12.9695 0.179813C12.8729 0.33096 12.76 0.471354 12.6629 0.621904C12.5698 0.765882 12.3731 0.853703 12.4226 1.07714C12.4295 1.1082 12.4132 1.12852 12.376 1.1333C12.1974 1.15659 12.1008 1.29579 11.9914 1.41707C11.8814 1.53894 11.726 1.64409 11.6743 1.78807C11.6009 1.99119 11.3955 1.93324 11.2978 2.06169C11.1994 2.19073 11.1098 2.34606 10.9789 2.42551C10.8462 2.50617 10.6676 2.50318 10.5309 2.60295C10.4122 2.68957 10.2836 2.76067 10.166 2.85147C10.0747 2.92197 9.97634 2.97036 9.93037 3.08507C9.73777 3.0994 9.59229 3.25653 9.39097 3.2613C9.24666 3.26429 9.09886 3.30073 8.96037 3.34733C8.54259 3.48773 8.12538 3.62991 7.71574 3.79241C7.5371 3.8635 7.3637 3.94953 7.17401 3.97701C7.03494 3.99673 6.94009 4.10785 6.81208 4.13533C6.68406 4.16281 6.5514 4.16819 6.42106 4.18551C6.39254 4.1891 6.36229 4.19925 6.33785 4.21419C6.16328 4.32292 5.99803 4.45674 5.76935 4.37788C5.73793 4.36713 5.68789 4.40656 5.64948 4.42747C5.37018 4.581 5.06121 4.63358 4.7563 4.62462C4.51191 4.61745 4.29196 4.63358 4.08132 4.76322C4.0051 4.80982 3.92014 4.81579 3.82704 4.78413C3.62106 4.71363 3.43253 4.75067 3.276 4.91138C3.25447 4.89226 3.23236 4.87434 3.21083 4.85462C3.06362 4.7208 2.9839 4.72976 2.91349 4.89346C2.8844 4.96037 2.88731 5.04699 2.80701 5.07985C2.77442 5.09299 2.73136 5.14258 2.70169 5.07507C2.69005 5.04819 2.6947 5.00816 2.67667 4.99083C2.59695 4.91436 2.33336 4.83312 2.2292 4.85223C2.21291 4.85522 2.18614 4.90421 2.19254 4.91974C2.23735 5.03026 2.29088 5.1372 2.33743 5.24773C2.35721 5.29552 2.33569 5.34092 2.29088 5.35586C2.24724 5.3702 2.20302 5.34929 2.19662 5.29612C2.18265 5.17783 2.11981 5.10315 2.01332 5.06551C1.98714 5.05595 1.95397 5.044 1.9307 5.05177C1.86902 5.07328 1.91499 5.12406 1.90975 5.1617C1.90044 5.22861 1.86902 5.2758 1.7957 5.25967C1.69795 5.23757 1.58273 5.23458 1.57575 5.08642C1.57401 5.04699 1.54782 5.03684 1.51116 5.0458C1.41224 5.07089 1.31623 5.08045 1.27027 5.2077C1.20859 5.37916 1.19695 5.37498 1.06486 5.35407C0.99271 5.34272 0.921139 5.32838 0.848986 5.32121C0.813491 5.31762 0.792543 5.34391 0.795453 5.37856C0.80069 5.45204 0.838512 5.54345 0.809418 5.59542C0.710499 5.77286 0.766941 5.9479 0.784979 6.12414C0.794289 6.20957 0.840257 6.29679 0.74192 6.35952C0.752976 6.46228 0.69246 6.55548 0.721554 6.6648C0.766941 6.83746 0.790798 7.01609 0.825129 7.19173C0.850731 7.32376 0.880989 7.45519 0.904264 7.58782C0.917065 7.6625 0.787306 7.71148 0.840839 7.7784C0.966525 7.93731 0.939759 8.11653 0.936267 8.29457C0.934522 8.38418 0.98049 8.42958 1.05555 8.46065C1.21208 8.52517 1.37733 8.47977 1.53618 8.50665C1.55771 8.51023 1.57459 8.53951 1.59379 8.55624C1.5711 8.57476 1.55015 8.60104 1.52455 8.6106C1.4844 8.62494 1.44017 8.63211 1.3977 8.6345C1.28074 8.64107 1.16262 8.64107 1.04566 8.64824C1.00202 8.65063 0.949069 8.66317 0.949651 8.71873C0.949651 8.75816 0.969434 8.80416 0.994455 8.83463C1.0317 8.87944 1.08174 8.91349 1.12654 8.95173C1.22255 9.03477 1.22953 9.06583 1.1696 9.17636C1.15564 9.20205 1.13236 9.22296 1.11316 9.24626C1.06719 9.30062 1.0637 9.36873 1.1213 9.39919C1.29412 9.4912 1.3913 9.63697 1.41108 9.82695C1.42912 9.99841 1.54433 10.1782 1.39188 10.3455C1.37733 10.3616 1.37268 10.4076 1.38431 10.4244C1.51407 10.6143 1.45356 10.8724 1.60077 11.0546C1.68805 11.1628 1.56179 11.2452 1.57284 11.3402C1.59379 11.5182 1.65256 11.6921 1.61707 11.8767C1.6095 11.9167 1.62288 11.9681 1.64209 12.0063C1.71075 12.1396 1.78174 12.2722 1.86087 12.3988C1.89811 12.4586 1.96503 12.446 2.01973 12.4192C2.07559 12.3917 2.12097 12.3504 2.04824 12.2925C1.96561 12.2262 1.97958 12.1306 1.9755 12.044C1.97376 12.0045 2.11574 12.0159 2.21465 12.0744C2.26528 12.1043 2.3095 12.1461 2.35489 12.1838C2.42413 12.2411 2.41366 12.2955 2.32172 12.3516C2.29728 12.3666 2.26819 12.3743 2.24142 12.3857C2.27459 12.409 2.30717 12.4341 2.3415 12.4544C2.35256 12.461 2.37176 12.4604 2.38515 12.4562C2.55447 12.4066 2.72554 12.3935 2.90302 12.3869C3.077 12.3803 3.24516 12.3397 3.40518 12.4448C3.42322 12.4568 3.46337 12.4425 3.48897 12.4305C3.56985 12.3929 3.642 12.3528 3.72754 12.4347C3.78456 12.489 3.86603 12.4669 3.93992 12.4544C4.03943 12.4371 4.14591 12.3941 4.23843 12.415C4.36761 12.4442 4.45838 12.3899 4.56894 12.3546C4.65564 12.3277 4.7691 12.3755 4.86569 12.406C4.89304 12.415 4.91108 12.4789 4.91806 12.5207C4.92214 12.5434 4.8977 12.5733 4.88082 12.5966C4.85988 12.6259 4.83718 12.6181 4.80751 12.5924C4.75746 12.5482 4.75106 12.4436 4.6504 12.4681C4.57592 12.4861 4.5154 12.5279 4.46885 12.5894C4.45081 12.6127 4.42987 12.6414 4.4287 12.6683C4.42114 12.881 4.2617 13.0148 4.17326 13.1844C4.12438 13.2782 4.03826 13.372 4.05863 13.4712C4.0982 13.6624 3.96378 13.7759 3.90559 13.9205C3.85032 14.0585 3.76303 14.1827 3.6903 14.313C3.61116 14.4552 3.62804 14.623 3.57916 14.7754C3.55414 14.853 3.54308 14.9098 3.46162 14.9361C3.40052 14.9558 3.36096 15.0131 3.36852 15.0747C3.3819 15.1882 3.33186 15.2706 3.27658 15.3591C3.21316 15.4594 3.15613 15.5652 3.10958 15.6745C2.942 16.0706 2.81806 16.4846 2.63128 16.8735C2.4957 17.1555 2.48988 17.4924 2.30601 17.7595C2.14367 18.3067 2.06919 18.8814 1.8248 19.4036C1.89288 19.5733 1.69213 19.6808 1.72122 19.8266C1.75672 20.0028 1.62521 20.105 1.59088 20.2477C1.53502 20.4825 1.47451 20.7167 1.4041 20.9473C1.28539 21.3356 1.24001 21.7467 1.06195 22.1171C1.00609 22.6464 0.829784 23.1476 0.719227 23.6638C0.654056 23.9667 0.617398 24.2726 0.583067 24.5784C0.527789 24.8407 0.478329 25.1036 0.438179 25.3688C0.434106 25.3951 0.433524 25.422 0.426542 25.4471C0.30202 25.8653 0.236267 26.293 0.228121 26.7309C0.226957 26.7829 0.22172 26.8379 0.204846 26.8863C0.159459 27.0129 0.153059 27.1426 0.148404 27.2758C0.139676 27.5118 0.111163 27.7477 0.104763 27.9837C0.0902158 28.5089 0.00409778 29.0292 0.0192266 29.5561C0.0250454 29.7533 0.0378467 29.951 0.00467965 30.1482C-0.00579416 30.2109 0.00933469 30.2802 0.0209723 30.3447C0.0739232 30.6428 0.0518118 30.9475 0.111163 31.248C0.158878 31.4894 0.121055 31.7481 0.151895 31.9942C0.221139 32.545 0.246159 33.0994 0.322967 33.6503C0.415486 34.3098 0.576085 34.9461 0.816982 35.5608C0.917065 35.8165 1.01773 36.0835 1.2179 36.2771C1.31798 36.3739 1.375 36.4802 1.41574 36.6063C1.43959 36.6816 1.46694 36.7556 1.49313 36.8303C1.53444 36.9462 1.62172 36.9761 1.73402 36.9916C1.8248 37.0042 1.89753 36.8984 1.99005 36.9677C2.04998 37.0125 2.10643 36.9964 2.16054 36.9432C2.20011 36.9044 2.25422 36.9068 2.30543 36.9265C2.36536 36.9492 2.42588 36.991 2.48523 36.9898C2.8425 36.9845 3.20094 37.0275 3.55647 36.9623C3.80784 36.9163 4.06619 36.9761 4.31698 36.9122C4.34084 36.9062 4.3711 36.9086 4.39321 36.9187C4.51482 36.9725 4.58523 36.9068 4.64982 36.8136C4.6696 36.7849 4.70568 36.7485 4.73826 36.8022C4.78539 36.8793 4.83078 36.9181 4.92272 36.8554C5.02978 36.7825 5.14267 36.7288 5.2637 36.847C5.3149 36.8972 5.40277 36.8763 5.44583 36.8399C5.56744 36.7365 5.70593 36.7503 5.84267 36.7539C5.94624 36.7568 6.04865 36.7664 6.14583 36.7204C6.1982 36.6959 6.25347 36.7031 6.29188 36.7371C6.41756 36.8488 6.55489 36.8249 6.69338 36.7837C6.80335 36.7509 6.91158 36.6786 7.02039 36.6798C7.30493 36.6834 7.57318 36.5884 7.85131 36.5645C7.95722 36.5555 8.04741 36.5077 8.1504 36.4958C8.25339 36.4838 8.29296 36.4199 8.26212 36.3339C8.16146 36.0495 8.06486 35.7579 7.85073 35.5393C7.78032 35.467 7.74658 35.3971 7.73319 35.3033C7.72621 35.2513 7.71748 35.1958 7.69362 35.151C7.53943 34.8553 7.47309 34.5362 7.43818 34.2071C7.4312 34.1437 7.41956 34.0643 7.37941 34.0242C7.30551 33.9508 7.27409 33.8701 7.29911 33.7763C7.3253 33.6789 7.23336 33.6078 7.26478 33.5087C7.32297 33.3235 7.27176 33.1442 7.19204 32.9788C7.16411 32.9208 7.17284 32.8868 7.19379 32.8372C7.27933 32.6323 7.26827 32.3975 7.16237 32.1746C7.13269 32.1113 7.11116 32.0318 7.14666 31.9852C7.26943 31.8227 7.27002 31.6788 7.13095 31.5288C7.11407 31.5109 7.13444 31.4547 7.14026 31.4171C7.14666 31.3789 7.16644 31.34 7.16237 31.3036C7.13502 31.0533 7.15655 30.8107 7.2514 30.5753C7.2706 30.5275 7.26769 30.4714 7.28107 30.4206C7.29969 30.3495 7.28398 30.2922 7.22987 30.2438C7.13269 30.1565 7.15306 30.0633 7.21125 29.9612C7.25605 29.8823 7.27234 29.7832 7.32588 29.7133C7.40792 29.6063 7.26594 29.5197 7.32064 29.4181C7.36486 29.3363 7.27642 29.3088 7.23918 29.2622C7.18623 29.1947 7.15364 29.1075 7.21474 29.0465C7.36894 28.8906 7.37243 28.6582 7.50277 28.4921C7.52779 28.4605 7.52372 28.424 7.5051 28.3834C7.47309 28.3123 7.44982 28.237 7.4248 28.1624C7.40618 28.105 7.42305 28.05 7.47484 28.0291C7.62671 27.9676 7.65988 27.8344 7.62031 27.7071C7.59703 27.6313 7.59761 27.5643 7.60983 27.4998L7.55339 27.4574C7.56154 27.3403 7.58889 27.225 7.58889 27.1079C7.5883 26.9299 7.61507 26.7518 7.62962 26.5732C7.76636 26.4191 7.6558 26.2184 7.72272 26.0499C7.73901 26.0093 7.73785 25.9615 7.74832 25.9173C7.78265 25.7703 7.8164 25.6227 7.85422 25.477C7.89146 25.3306 7.93569 25.186 7.97234 25.0396C8.01249 24.8795 8.0829 24.7164 8.07417 24.5581C8.06428 24.3861 8.19113 24.2935 8.22197 24.1471C8.26794 23.9308 8.27143 23.6925 8.43087 23.5091C8.46345 23.4714 8.45589 23.3932 8.45821 23.3334C8.46287 23.2151 8.44308 23.0986 8.54666 22.9995C8.63161 22.9176 8.50709 22.7545 8.63976 22.6757C8.69911 22.4265 8.86436 22.224 8.93186 21.9785C9.01158 21.6875 9.11632 21.4002 9.15996 21.1038C9.20593 20.7926 9.37875 20.5226 9.39853 20.2071C9.40551 20.0984 9.48057 20.0303 9.54342 19.946C9.6243 19.8385 9.70518 19.6975 9.69296 19.5511C9.68249 19.4287 9.70867 19.3468 9.80468 19.2817C9.89894 19.2172 9.94899 19.1294 9.91698 19.0111C9.88207 18.8844 9.93386 18.8103 10.0433 18.7608C10.1137 18.7285 10.0915 18.6682 10.0822 18.6084C10.0758 18.5672 10.0758 18.5092 10.0985 18.4818C10.155 18.4137 10.191 18.3551 10.2009 18.2547C10.2097 18.1639 10.3086 18.0827 10.365 17.9961C10.3889 17.9596 10.4238 17.919 10.4238 17.8802C10.4244 17.6514 10.5844 17.4978 10.6705 17.3096C10.7118 17.2182 10.8212 17.1549 10.7753 17.0294C10.9126 16.9315 10.8398 16.7594 10.9085 16.628C10.9853 16.4804 11.054 16.334 11.168 16.2122C11.1837 16.1954 11.189 16.1578 11.1843 16.1327C11.1663 16.0449 11.2082 15.9935 11.271 15.9439C11.3135 15.9099 11.3659 15.8752 11.3467 15.7976C11.3193 15.6876 11.3589 15.5926 11.4153 15.4983C11.4584 15.426 11.4799 15.3405 11.5137 15.2623C11.5416 15.1978 11.4915 15.1816 11.4549 15.1739C11.4165 15.1655 11.3583 15.1643 11.3356 15.187C11.2966 15.227 11.2658 15.2862 11.253 15.3423C11.2262 15.4618 11.1296 15.4558 11.0482 15.4785C11.022 15.4863 10.9795 15.4983 10.9679 15.4851C10.834 15.3423 10.6356 15.3752 10.4814 15.2898C10.4145 15.2527 10.3807 15.1858 10.4069 15.1022C10.4157 15.0741 10.4354 15.0502 10.4477 15.0227C10.4575 15 10.4738 14.957 10.4704 14.9552C10.4325 14.9349 10.393 14.9128 10.3516 14.9068C10.2818 14.8967 10.258 14.9594 10.2196 15.0042C10.1369 15.1004 10.0782 15.1069 9.9519 15.0436C9.91175 15.0233 9.88556 14.9904 9.8972 14.9355C9.92629 14.8017 9.97634 14.7473 10.1014 14.7395C10.1881 14.7342 10.276 14.7634 10.3604 14.7115C10.4052 14.6834 10.4325 14.5878 10.3883 14.5591C10.3272 14.5197 10.2585 14.4934 10.1951 14.4575C10.1567 14.436 10.155 14.4062 10.1893 14.3996C10.3354 14.3715 10.3284 14.2831 10.297 14.1642C10.2795 14.0991 10.3546 14.0465 10.4087 14.0794C10.4977 14.1331 10.5768 14.1869 10.6926 14.157C10.7613 14.1397 10.7945 14.1995 10.7712 14.27C10.7543 14.3201 10.7502 14.3942 10.663 14.3422C10.5984 14.3034 10.5466 14.3506 10.5169 14.396C10.5024 14.4181 10.5268 14.4785 10.5477 14.5119C10.5786 14.5609 10.6176 14.6069 10.6618 14.6433C10.6868 14.6649 10.7962 14.5728 10.8218 14.5059C10.8486 14.4354 10.866 14.362 10.8899 14.2903C10.9143 14.2174 10.9766 14.2192 11.0342 14.2252C11.0761 14.2293 11.1174 14.2467 11.1587 14.2586C11.1843 14.3219 11.2105 14.3853 11.2344 14.4492C11.2588 14.5149 11.2303 14.5496 11.1494 14.543C11.0935 14.5382 11.0412 14.5149 10.9836 14.5466C10.9364 14.5723 10.9056 14.6571 10.9452 14.6899C11.0418 14.7706 11.1389 14.8512 11.2425 14.9223C11.2815 14.9492 11.3309 14.914 11.3443 14.8722C11.3566 14.8351 11.3496 14.7879 11.3414 14.7479C11.3228 14.6565 11.3542 14.6141 11.445 14.6021C11.4782 14.5979 11.5084 14.5699 11.5393 14.5484C11.612 14.623 11.7115 14.6619 11.7871 14.7234C11.8715 14.7915 11.9047 14.9253 11.9658 15.0269C11.9885 15.0645 12.028 15.0908 12.0583 15.1243C12.1206 15.193 12.1537 15.2736 12.1613 15.3686C12.1747 15.5347 12.223 15.6864 12.3027 15.8358C12.3719 15.9654 12.4266 16.116 12.44 16.2618C12.4516 16.386 12.4924 16.4876 12.5296 16.6005C12.5721 16.7283 12.6041 16.8616 12.6699 16.9787C12.7589 17.1376 12.8171 17.3078 12.8729 17.4799C12.8956 17.551 12.916 17.6263 12.9544 17.6884C13.1476 17.9985 13.2069 18.3605 13.3216 18.6986C13.495 19.2106 13.6631 19.7244 13.8633 20.2268C13.9017 20.323 14.0966 20.476 14.163 20.4395C14.3433 20.3397 14.5371 20.4192 14.725 20.3678C14.9305 20.3117 15.1516 20.3314 15.3477 20.2071C15.4122 20.1659 15.5199 20.1976 15.6078 20.1946C15.7969 20.188 15.9837 20.1886 16.1687 20.1169C16.2804 20.0733 16.3962 19.9508 16.5359 20.059C16.7471 20.004 16.9583 19.9472 17.1707 19.8959C17.2801 19.869 17.354 19.8086 17.3947 19.6999C17.4354 19.5912 17.468 19.6635 17.5 19.7089C17.5088 19.7208 17.5152 19.7352 17.5245 19.7465C17.6199 19.8576 17.6792 19.86 17.7741 19.7537C17.8032 19.7208 17.8247 19.6802 17.8521 19.6449C17.9071 19.5737 17.9739 19.5645 18.0522 19.6175C18.1925 19.713 18.2186 19.722 18.3117 19.6157C18.438 19.4723 18.5823 19.3982 18.772 19.391C18.9483 19.3839 19.1182 19.3391 19.2759 19.2441C19.4505 19.1389 19.6239 19.0188 19.8502 19.0923C19.8956 19.1073 19.9596 19.0565 20.0161 19.041C20.0719 19.026 20.1319 18.9991 20.1848 19.0081C20.3722 19.041 20.5334 19.0123 20.6672 18.8611C20.694 18.8307 20.7475 18.8259 20.7876 18.8068C21.0192 18.698 21.0117 18.6986 20.996 18.4447C20.9901 18.3509 20.9669 18.2673 20.9378 18.1825C20.7399 17.6143 20.6451 17.0187 20.5043 16.4356C20.3914 15.9666 20.1691 15.5359 20.0917 15.0586C19.9457 14.7628 19.8566 14.445 19.7519 14.1331C19.6664 13.8792 19.6169 13.6074 19.4418 13.3912C19.415 13.3583 19.3975 13.3111 19.3911 13.2681C19.3521 12.9969 19.2771 12.7406 19.1316 12.507C19.1014 12.4586 19.0845 12.3959 19.0781 12.3379C19.0478 12.0822 18.9885 11.8379 18.8488 11.6186C18.8261 11.5834 18.8017 11.5302 18.8116 11.4955C18.8669 11.299 18.8104 11.1371 18.676 11.0009C18.6132 10.937 18.6597 10.9023 18.6882 10.8539C18.7022 10.83 18.708 10.796 18.7051 10.7679C18.683 10.5444 18.5748 10.3342 18.6167 10.1C18.6225 10.0671 18.5812 10.0193 18.5526 9.98706C18.5137 9.94225 18.4619 9.90939 18.4229 9.86518C18.3426 9.77497 18.3525 9.71224 18.459 9.60292C18.4991 9.56229 18.5526 9.53899 18.5503 9.46133C18.548 9.38784 18.5742 9.31317 18.5812 9.23849C18.6015 9.01804 18.534 8.91648 18.3234 8.84121C18.2821 8.82627 18.2402 8.81372 18.2 8.7964C18.1884 8.79102 18.1802 8.77429 18.1738 8.76115C18.1738 8.76115 18.1896 8.74263 18.1977 8.74203C18.2408 8.74203 18.2844 8.74383 18.3275 8.74681C18.5137 8.75996 18.5375 8.74801 18.5538 8.57117C18.5631 8.46782 18.6172 8.36566 18.573 8.25932C18.5451 8.193 18.5771 8.09324 18.4939 8.06277C18.4456 8.04484 18.3822 8.07472 18.3263 8.07352C18.2838 8.07292 18.2413 8.05858 18.2 8.04604C18.189 8.04245 18.1791 8.02334 18.1768 8.0096C18.175 8.00183 18.1872 7.9851 18.196 7.98212C18.2623 7.96061 18.3269 7.95404 18.3728 7.87637C18.4555 7.73598 18.5451 7.60514 18.573 7.43548C18.5945 7.30345 18.5806 7.19472 18.4747 7.11108C18.4194 7.06806 18.4019 7.03401 18.4566 6.97307C18.5695 6.84702 18.5794 6.70304 18.4985 6.55607C18.4677 6.50051 18.4473 6.45212 18.4793 6.38999C18.5654 6.22092 18.5672 6.05364 18.4706 5.88637C18.4473 5.84514 18.4584 5.80094 18.4927 5.76509C18.5468 5.70774 18.5678 5.64023 18.5608 5.55898C18.5561 5.50043 18.5474 5.43054 18.5718 5.38334C18.7499 5.0446 18.7959 4.66524 18.8971 4.30261C18.978 4.01346 19.024 3.71176 19.1811 3.44889C19.1927 3.42978 19.1857 3.38198 19.17 3.36585C19.138 3.33359 19.0967 3.33479 19.0542 3.36227C19.0292 3.379 18.9931 3.46443 18.9774 3.4011C18.9402 3.25234 18.8511 3.1693 18.7313 3.1006C18.7103 3.08865 18.6871 3.04623 18.6923 3.02652L18.6882 3.02771ZM2.38456 11.624C2.37816 11.6461 2.33801 11.6801 2.32754 11.6754C2.2775 11.6527 2.22862 11.6222 2.18672 11.5858C2.17334 11.5744 2.17334 11.5272 2.18556 11.5099C2.20942 11.4758 2.24608 11.4513 2.26004 11.4388C2.34616 11.4693 2.40144 11.5654 2.38456 11.6234V11.624ZM2.35547 11.2912C2.3159 11.2984 2.27459 11.3175 2.23735 11.3109C2.1681 11.2984 2.13086 11.2357 2.15065 11.1849C2.17392 11.1245 2.29961 11.0487 2.31241 11.0815C2.33801 11.1466 2.34209 11.2207 2.35489 11.2912H2.35547ZM2.78722 11.3193L2.59404 11.3408C2.59404 11.3283 2.59113 11.3145 2.59579 11.3038C2.60044 11.2912 2.61091 11.2745 2.62081 11.2727C2.66037 11.2661 2.70052 11.2655 2.73195 11.2631L2.78722 11.3199V11.3193ZM6.82139 29.8375C6.79462 29.8799 6.76378 29.92 6.73062 29.957C6.71607 29.9731 6.69163 29.9803 6.67126 29.9917C6.67766 29.9684 6.68116 29.9433 6.69163 29.9218C6.69803 29.908 6.70618 29.8973 6.7085 29.8955C6.74574 29.8357 6.75796 29.813 6.77309 29.7951C6.77949 29.7873 6.8051 29.7838 6.80626 29.7861C6.81441 29.8023 6.82779 29.8274 6.82139 29.8375ZM6.7888 29.1917C6.76902 29.2216 6.74225 29.2544 6.71141 29.267C6.65322 29.2909 6.5898 29.3016 6.5287 29.3172C6.50717 29.3225 6.48506 29.3273 6.46353 29.3321C6.4711 29.3076 6.47692 29.2819 6.48739 29.2586C6.49786 29.2353 6.51357 29.2138 6.5351 29.1774C6.56071 29.1266 6.61482 29.1015 6.68465 29.1039C6.73934 29.1057 6.80859 29.1618 6.78938 29.1911L6.7888 29.1917ZM6.62762 28.3523C6.60551 28.3792 6.55547 28.3673 6.54383 28.3338C6.53045 28.295 6.54441 28.2609 6.57584 28.243C6.59038 28.2346 6.61773 28.2508 6.63868 28.2556C6.66021 28.2914 6.6509 28.3237 6.62762 28.3523ZM6.48099 27.6187C6.44782 27.6982 6.37858 27.7179 6.30468 27.7268C6.29653 27.728 6.2814 27.7227 6.28024 27.7179C6.27733 27.7071 6.27733 27.6868 6.28373 27.6832C6.34483 27.645 6.40709 27.6085 6.46993 27.5727C6.47342 27.5709 6.48215 27.5787 6.48797 27.5823C6.48564 27.5942 6.48564 27.6074 6.48099 27.6187ZM6.83943 23.4828C6.80975 23.4613 6.77658 23.4171 6.77833 23.3848C6.78124 23.3316 6.83186 23.3406 6.89121 23.3543C6.90867 23.3663 6.94707 23.3854 6.97384 23.4147C6.98781 23.4302 6.86736 23.5043 6.83943 23.4834V23.4828ZM7.69072 23.4278L7.61391 23.4368C7.52197 23.435 7.4696 23.3932 7.45389 23.3077C7.45215 23.2964 7.45447 23.279 7.46204 23.2725C7.47193 23.2635 7.49346 23.2552 7.50102 23.2605C7.54874 23.2928 7.59587 23.3268 7.64009 23.3639C7.66046 23.3812 7.67442 23.4063 7.6913 23.4278H7.69072ZM7.64067 23.0012C7.58598 23.0228 7.65638 23.0538 7.60402 23.0257C7.55397 22.9989 7.50801 22.9624 7.45971 22.9313C7.3829 22.8824 7.26594 22.923 7.21532 22.8154C7.30667 22.7945 7.38523 22.8411 7.53535 22.8865C7.52372 22.8818 7.57958 22.8997 7.62962 22.929C7.643 22.9373 7.64591 22.9995 7.64067 23.0012ZM7.98922 22.3387C7.98166 22.3495 7.97293 22.365 7.96245 22.3668C7.9351 22.3728 7.90601 22.3728 7.86237 22.3763C7.83851 22.3584 7.79953 22.3381 7.77509 22.3059C7.76229 22.2891 7.77334 22.2503 7.78033 22.2234C7.78265 22.2138 7.80418 22.2055 7.81815 22.2037C7.87983 22.1941 7.9287 22.221 7.97525 22.2593C8.00377 22.2831 8.01133 22.307 7.98922 22.3381V22.3387ZM8.43668 21.1702C8.44076 21.1749 8.43785 21.1952 8.43319 21.1976C8.42097 21.2042 8.40352 21.2102 8.3913 21.2066C8.3238 21.1839 8.25514 21.1618 8.19113 21.1307C8.17717 21.1236 8.17891 21.0811 8.17367 21.0549C8.19462 21.0405 8.21906 21.0106 8.23652 21.0142C8.32555 21.0333 8.37908 21.1056 8.43668 21.1702ZM8.82421 20.8517C8.82421 20.9097 8.82305 20.9712 8.76836 21.0053C8.7509 21.016 8.71831 21.0053 8.69446 20.9981C8.6834 20.9951 8.677 20.9766 8.6642 20.9581C8.69853 20.9157 8.73286 20.8703 8.7701 20.8278C8.77825 20.8183 8.79803 20.8111 8.80909 20.8147C8.81723 20.8177 8.8248 20.8386 8.8248 20.8511L8.82421 20.8517ZM4.18082 16.9273C4.13776 16.9434 4.09296 16.9345 4.07085 16.8938C4.02895 16.8168 4.0307 16.7074 4.06503 16.6011C4.09005 16.5641 4.12031 16.536 4.1686 16.5527C4.2425 16.5784 4.29662 16.6351 4.2908 16.711C4.2844 16.7923 4.28091 16.8908 4.18082 16.9273ZM8.46985 20.2579C8.40934 20.2017 8.39886 20.1253 8.44949 20.0661C8.46345 20.05 8.50069 20.0554 8.53909 20.0494C8.54782 20.087 8.56935 20.1277 8.56295 20.1635C8.55597 20.2029 8.52397 20.2376 8.50069 20.2728C8.50069 20.2728 8.478 20.2663 8.46985 20.2585V20.2579ZM9.11981 20.3571C9.12272 20.3696 9.11981 20.3941 9.11225 20.3971C9.04766 20.424 8.9819 20.4479 8.91557 20.47C8.91033 20.4718 8.89404 20.4533 8.89113 20.4425C8.88822 20.4305 8.8952 20.4162 8.89811 20.4013C8.94932 20.3379 9.02787 20.3499 9.09595 20.332C9.10177 20.3302 9.11806 20.3469 9.12039 20.3571H9.11981ZM7.96944 19.0828C7.95954 19.0881 7.95023 19.0983 7.94034 19.0983C7.87284 19.0983 7.80302 19.1007 7.77276 19.0194C7.76869 19.0081 7.77392 18.9896 7.78091 18.9788C7.78789 18.9681 7.80302 18.9621 7.8164 18.9525C7.85946 18.9836 7.90426 19.0141 7.94732 19.0469C7.9578 19.0547 7.96187 19.0702 7.96944 19.0828ZM4.69869 14.8447C4.70568 14.8064 4.73768 14.7491 4.76619 14.7437C4.93494 14.7126 5.08215 14.8023 5.10485 14.9773C5.10717 14.9946 5.07342 15.0347 5.05713 15.0347C4.98731 15.0329 4.91748 15.0203 4.86569 15.0137C4.80751 14.9922 4.75805 14.9869 4.7307 14.9588C4.70626 14.9337 4.69229 14.8805 4.69928 14.8447H4.69869ZM8.61474 18.9155C8.61008 18.928 8.59961 18.9394 8.5903 18.9501C8.56528 18.9794 8.54259 18.9794 8.52164 18.9507C8.47567 18.9155 8.46287 18.8354 8.50069 18.8092C8.54724 18.7769 8.60601 18.7375 8.65314 18.7775C8.71948 18.8342 8.6322 18.8695 8.61474 18.9155ZM7.74658 17.8539C7.79254 17.8109 7.84375 17.7852 7.90601 17.7989C7.96362 17.8115 8.02006 17.8288 8.0765 17.8437C8.13236 17.8622 8.1888 17.8796 8.24408 17.8999C8.29471 17.919 8.35522 18.0289 8.32671 18.0433C8.2918 18.0606 8.24699 18.0773 8.2115 18.0695C8.08232 18.0409 7.95431 18.005 7.82746 17.9662C7.73377 17.9375 7.70526 17.8921 7.74658 17.8533V17.8539ZM9.58997 18.8492C9.57426 18.8671 9.54924 18.8952 9.53411 18.891C9.37875 18.851 9.21291 18.9394 9.01507 18.8175C9.02205 18.8223 8.9307 18.8336 8.9691 18.7434C9.00052 18.6706 8.9435 18.5582 9.0622 18.523C9.10526 18.5104 9.14308 18.5045 9.18265 18.5325C9.31241 18.6257 9.44333 18.7166 9.57251 18.8098C9.5824 18.8169 9.59346 18.8438 9.58939 18.848L9.58997 18.8492ZM9.37176 18.1986C9.39387 18.2595 9.37933 18.3246 9.31416 18.3414C9.23968 18.3611 9.15589 18.4292 9.08373 18.3223C9.06104 18.2882 9.01333 18.2745 8.96561 18.2948C8.90335 18.3217 8.85447 18.3037 8.8248 18.2404C8.80036 18.1866 8.77534 18.1329 8.75497 18.0773C8.72995 18.0104 8.77126 17.873 8.81083 17.8832C8.87542 17.8999 8.88706 17.9578 8.89986 18.0158C8.91208 18.0701 8.93303 18.1221 8.94816 18.1675C8.99761 18.1687 9.02671 18.1777 9.05057 18.1693C9.11806 18.1454 9.18091 18.1006 9.24957 18.0905C9.31125 18.0815 9.3514 18.1424 9.37234 18.1986H9.37176ZM8.52687 17.3682C8.50127 17.3986 8.48033 17.4488 8.44949 17.4566C8.38141 17.4733 8.30809 17.4715 8.23652 17.4715C8.21092 17.4715 8.16553 17.4596 8.1632 17.4464C8.13469 17.3007 7.95896 17.2827 7.92289 17.1465C7.91939 17.1322 7.91881 17.1173 7.91648 17.1023C7.94034 17.0934 7.96536 17.0748 7.98864 17.0772C8.09163 17.088 8.19288 17.1125 8.2435 17.2194C8.29121 17.3216 8.37966 17.3072 8.46403 17.3174C8.48673 17.3204 8.50593 17.3503 8.52687 17.3682ZM9.94666 18.1287C9.93851 18.1496 9.86752 18.152 9.82563 18.1508C9.70052 18.1472 9.60393 18.0833 9.50269 17.9465C9.62139 17.9686 9.75813 17.9112 9.85298 18.0349C9.88091 18.0719 9.98041 18.0421 9.94666 18.1287ZM9.48581 17.5462C9.52072 17.6764 9.53062 17.8073 9.4893 17.9381C9.30834 17.9519 9.22978 17.7661 9.08315 17.7129C9.07326 17.7093 9.06802 17.6908 9.06046 17.6794C9.07442 17.6758 9.08897 17.6699 9.10293 17.6687C9.11748 17.6675 9.13203 17.6699 9.14658 17.6729C9.27052 17.7009 9.38107 17.7051 9.42821 17.5468C9.44101 17.5044 9.47534 17.5056 9.48581 17.5456V17.5462ZM4.18257 10.0127C4.21981 9.99243 4.24483 9.99781 4.24134 10.0372C4.22795 10.1908 4.37226 10.2601 4.41125 10.3837C4.42288 10.4208 4.41648 10.4686 4.40543 10.5074C4.40135 10.5211 4.35888 10.5229 4.33386 10.5301C4.32047 10.5247 4.29778 10.5217 4.29545 10.5134C4.25123 10.3539 4.19421 10.2069 4.01731 10.1537C3.99229 10.146 3.99462 10.1077 4.02721 10.0886C4.07608 10.0587 4.13136 10.0402 4.18199 10.0127H4.18257ZM7.3154 12.9407C7.32413 12.9503 7.3282 12.9807 7.3253 12.9819C7.3026 12.9927 7.27816 12.9992 7.24325 13.0106C7.21823 12.9825 7.18855 12.9526 7.16295 12.9192C7.1548 12.909 7.15131 12.8798 7.15597 12.8774C7.17692 12.8654 7.2095 12.8451 7.22347 12.8535C7.25896 12.875 7.28747 12.909 7.31599 12.9407H7.3154ZM1.76661 8.52875C1.78581 8.46483 1.8312 8.49291 1.86611 8.49351C2.02322 8.49649 2.18032 8.50366 2.32347 8.50844L2.39911 8.57535C2.38573 8.58133 2.37293 8.59268 2.35954 8.59328C2.20302 8.60104 2.04591 8.60761 1.8888 8.61359C1.8213 8.61598 1.75613 8.564 1.76661 8.52875ZM6.09113 12.3976C6.09753 12.3887 6.10219 12.3749 6.11033 12.3714C6.18947 12.3391 6.26977 12.311 6.34832 12.2776C6.39487 12.2578 6.42687 12.2728 6.45539 12.3092C6.49321 12.3576 6.51299 12.4138 6.48157 12.4699C6.45248 12.5219 6.40011 12.5673 6.34192 12.5482C6.26337 12.5219 6.19121 12.4735 6.11731 12.4329C6.10568 12.4263 6.09986 12.4102 6.09113 12.3988V12.3976ZM7.90136 13.6719C7.86237 13.7305 7.80942 13.7203 7.7553 13.7042C7.70468 13.6946 7.68606 13.6612 7.69421 13.6134C7.70352 13.5578 7.76287 13.5298 7.82455 13.5477C7.88623 13.5656 7.92754 13.6325 7.90136 13.6719ZM8.71308 14.6708C8.72413 14.6475 8.75672 14.6344 8.78174 14.6194C8.79396 14.6123 8.80967 14.6075 8.82305 14.6087C8.88066 14.6129 8.93826 14.62 8.99354 14.626C9.05057 14.6511 9.10468 14.6732 9.15647 14.6983C9.16752 14.7037 9.18207 14.7216 9.18033 14.7312C9.17625 14.7586 9.17276 14.7963 9.15472 14.8094C9.011 14.9128 8.88299 14.8943 8.72588 14.7485C8.71017 14.7342 8.70318 14.6905 8.71249 14.6714L8.71308 14.6708ZM3.2568 10.5851C3.39645 10.5887 3.44009 10.4441 3.54658 10.4035C3.55647 10.3999 3.57392 10.3981 3.57974 10.4035C3.58847 10.4124 3.59778 10.4309 3.59429 10.4417C3.58614 10.4686 3.57218 10.4937 3.55996 10.5194C3.48839 10.6711 3.43893 10.6926 3.29928 10.6287C3.28357 10.6215 3.27309 10.6018 3.2568 10.5845V10.5851ZM5.9573 12.5034C6.01432 12.5297 6.05156 12.6444 6.01607 12.6754C5.98639 12.7017 5.94391 12.7286 5.90726 12.7286C5.8642 12.7286 5.83045 12.5978 5.85256 12.5464C5.87816 12.5022 5.91831 12.4855 5.9573 12.5028V12.5034ZM4.25647 11.6539C4.22155 11.5744 4.20701 11.4836 4.1913 11.3964C4.1849 11.3635 4.12613 11.3157 4.20235 11.2918C4.25763 11.2745 4.342 11.2321 4.36528 11.2542C4.43801 11.3229 4.54159 11.3647 4.57825 11.4716C4.59105 11.5093 4.58465 11.5386 4.54682 11.5398C4.42114 11.5433 4.40659 11.615 4.43569 11.7178C4.445 11.7512 4.42929 11.7656 4.36295 11.7578C4.33677 11.7333 4.278 11.7022 4.25647 11.6539ZM1.88066 10.2631C1.86611 10.2314 1.87542 10.2075 1.90917 10.1926C1.97434 10.1639 2.03893 10.1334 2.10584 10.1089C2.18963 10.0785 2.28099 10.1042 2.28448 10.1573C2.28855 10.2218 2.2583 10.2708 2.20127 10.2959C2.1361 10.3246 2.06977 10.3497 2.00169 10.3706C1.96445 10.382 1.88589 10.3079 1.88066 10.2625V10.2631ZM2.73427 11.1478C2.72089 11.1496 2.70401 11.1443 2.6918 11.1365C2.65921 11.1162 2.65746 11.0941 2.67667 11.0696C2.72205 11.0116 2.76395 10.9501 2.81108 10.8933C2.85123 10.845 2.93793 10.833 2.96935 10.8659C2.97924 10.8766 2.9967 10.8915 2.99495 10.8999C2.98797 10.9292 2.97401 10.9561 2.96179 10.9859C2.99379 11.0779 2.9583 11.1186 2.86403 11.1222C2.82097 11.1239 2.77791 11.1407 2.73485 11.1472L2.73427 11.1478ZM3.66586 11.6114C3.6164 11.6258 3.62397 11.5732 3.63037 11.6365C3.64608 11.6521 3.66237 11.6706 3.68157 11.6861C3.71474 11.7136 3.75431 11.7345 3.77991 11.768C3.79038 11.7817 3.77409 11.8205 3.7642 11.8456C3.76012 11.8564 3.73918 11.8707 3.72987 11.8683C3.62455 11.8426 3.56112 11.759 3.49712 11.6795C3.48431 11.664 3.4913 11.6174 3.50526 11.5965C3.55356 11.5224 3.60825 11.4531 3.66179 11.3826C3.6903 11.345 3.71997 11.351 3.71823 11.397C3.71532 11.4693 3.81889 11.5672 3.66644 11.6108L3.66586 11.6114ZM5.575 13.0441C5.55057 12.9867 5.58431 12.9664 5.6844 12.9765C5.74084 12.9819 5.84441 13.0004 5.84616 12.9933C5.86769 12.9019 5.8834 12.8379 6.00618 12.8804C6.08182 12.9066 6.17201 12.8869 6.26453 12.8881C6.27966 12.9264 6.31399 12.9688 6.30817 13.0046C6.29479 13.0823 6.18656 13.1737 6.12546 13.1689C6.05389 13.1641 5.97999 13.1576 5.91191 13.1367C5.84209 13.1151 5.77284 13.0811 5.70244 13.1098C5.62795 13.1396 5.59828 13.0996 5.575 13.0441ZM5.3149 13.513C5.34982 13.4216 5.39171 13.3894 5.47492 13.4055C5.50343 13.4109 5.53195 13.4168 5.56046 13.4222C5.58781 13.4324 5.61574 13.4419 5.64308 13.4515C5.78448 13.5017 5.78041 13.513 5.74491 13.7102C5.73386 13.7729 5.7484 13.8279 5.66694 13.8171C5.58082 13.8058 5.49296 13.7914 5.41091 13.7639C5.31141 13.7305 5.26079 13.6552 5.3149 13.513ZM9.32405 16.9159C9.32172 16.8735 9.32405 16.8209 9.37584 16.8078C9.41831 16.797 9.45963 16.815 9.47883 16.8598C9.50036 16.9106 9.51723 16.9631 9.53644 17.0151C9.512 17.0211 9.48756 17.0288 9.46312 17.03C9.36245 17.036 9.3287 17.0079 9.32405 16.9159ZM9.6371 17.1274C9.57251 17.1226 9.54225 17.0838 9.54633 17.0181C9.58473 17.0085 9.62313 16.9936 9.66154 16.9954C9.69878 16.9966 9.73602 17.0175 9.7721 17.0336C9.77733 17.036 9.77792 17.0593 9.77501 17.0713C9.75348 17.1507 9.69063 17.1316 9.6371 17.128V17.1274ZM10.1602 17.3144C10.1556 17.3449 10.1003 17.367 10.0782 17.3843C10.0334 17.3963 10.0147 17.3795 10.0194 17.3395C10.0229 17.3102 10.0322 17.2804 10.0467 17.2553C10.0584 17.235 10.0822 17.2218 10.1009 17.2057C10.123 17.2421 10.166 17.2821 10.1608 17.3144H10.1602ZM8.50476 15.8555C8.47218 15.8603 8.40584 15.8244 8.40177 15.7994C8.3849 15.699 8.33486 15.5986 8.375 15.4935C8.38548 15.4821 8.39363 15.469 8.40526 15.4612C8.41341 15.4558 8.43377 15.454 8.43494 15.4564C8.45647 15.5108 8.47101 15.5693 8.49778 15.6207C8.542 15.7068 8.59205 15.7306 8.67409 15.6835C8.73984 15.6458 8.79512 15.61 8.87484 15.6297C8.99471 15.6596 9.08082 15.7366 9.15763 15.8274C9.20651 15.8854 9.1652 16.0216 9.0913 16.058C8.92663 16.1393 8.81432 16.1124 8.68456 15.938C8.63336 15.8693 8.58797 15.8436 8.50593 15.8555H8.50476ZM9.88498 16.9464C9.75697 16.861 9.75348 16.6799 9.60801 16.6226C9.60568 16.622 9.60626 16.5987 9.61092 16.5951C9.62255 16.5873 9.64001 16.579 9.65165 16.5826C9.77384 16.619 9.91291 16.6095 10.0014 16.7337C10.0555 16.8096 10.148 16.7994 10.2248 16.8263C10.1433 17.036 10.0497 17.0551 9.88556 16.9458L9.88498 16.9464ZM10.8201 16.2958C10.8154 16.3251 10.8125 16.355 10.8043 16.3836C10.7892 16.4398 10.7112 16.4786 10.6664 16.4511C10.642 16.4362 10.6187 16.4165 10.6001 16.395C10.4488 16.2175 10.2777 16.3323 10.1131 16.3591C10.1171 16.3848 10.1154 16.4129 10.1259 16.435C10.1532 16.493 10.2033 16.5342 10.2649 16.5246C10.3999 16.5031 10.5268 16.5246 10.6525 16.5712C10.7142 16.5945 10.7275 16.7116 10.6827 16.7642C10.624 16.8323 10.5192 16.8048 10.4669 16.8986C10.4116 16.9984 10.3487 16.9243 10.2964 16.8729C10.2766 16.8538 10.2539 16.8383 10.2324 16.8209C10.2143 16.7134 10.1102 16.6692 10.0607 16.5826C10.0142 16.5019 9.98972 16.4254 9.9775 16.334C9.9711 16.2862 9.90302 16.2038 9.87625 16.2086C9.6854 16.2456 9.65514 16.1082 9.61441 15.978C9.60975 15.9636 9.60393 15.9499 9.59928 15.9356C9.576 15.8621 9.60626 15.8185 9.679 15.8286C9.73602 15.8364 9.79246 15.8543 9.84949 15.8645C9.86229 15.8669 9.88847 15.8561 9.88905 15.8501C9.8908 15.8232 9.88789 15.7946 9.88207 15.7683C9.87916 15.7545 9.86811 15.742 9.85821 15.7306C9.79712 15.6584 9.62488 15.6673 9.67143 15.5251C9.70576 15.4194 9.84425 15.4349 9.93851 15.4033C10.0002 15.3824 10.0857 15.4439 10.0811 15.5102C10.0753 15.598 10.0572 15.6858 10.0438 15.7731C10.0345 15.8328 10.0264 15.8937 10.0654 15.9463C10.091 15.9804 10.1224 16.021 10.1637 15.9696C10.2167 15.9039 10.276 15.8657 10.3441 15.9362C10.4232 16.0186 10.5111 16.0347 10.6211 16.0365C10.7933 16.0395 10.8468 16.1226 10.8206 16.2946L10.8201 16.2958ZM10.5966 15.5419C10.7136 15.5867 10.7543 15.7641 10.9149 15.739L10.9312 15.8519C10.9021 15.8896 10.9044 15.9541 10.8393 15.9051C10.7584 15.8436 10.6705 15.7928 10.5902 15.7312C10.5256 15.6817 10.4587 15.6852 10.3854 15.6966C10.3266 15.7056 10.2667 15.6996 10.2731 15.6118C10.2783 15.5383 10.34 15.5048 10.3901 15.5012C10.4581 15.4965 10.5314 15.5174 10.5972 15.5425L10.5966 15.5419ZM9.82621 14.7025C9.77675 14.825 9.72904 14.9552 9.58764 15.003C9.57426 15.0072 9.55971 15.0078 9.54574 15.0102C9.52596 14.9893 9.4992 14.9713 9.48872 14.9462C9.46079 14.8799 9.51141 14.8387 9.54225 14.7891C9.56611 14.7509 9.57135 14.6893 9.52247 14.6786C9.39562 14.6523 9.33103 14.5448 9.24142 14.4719C9.19953 14.4378 9.21873 14.3865 9.24608 14.3518C9.28273 14.3058 9.33103 14.2598 9.39387 14.3022C9.52596 14.3912 9.65746 14.4826 9.78257 14.5818C9.81166 14.6045 9.83843 14.672 9.82621 14.7019V14.7025ZM6.442 11.7614C6.41349 11.7602 6.38498 11.7512 6.35647 11.7453C6.3425 11.7405 6.32621 11.7393 6.31574 11.7309C6.29421 11.713 6.27559 11.6915 6.2558 11.6712C6.28315 11.6652 6.31224 11.6497 6.33727 11.6556C6.37858 11.6652 6.41873 11.6861 6.45713 11.7058C6.48215 11.7184 6.50368 11.7369 6.52696 11.753C6.49903 11.756 6.47052 11.7626 6.44259 11.7614H6.442ZM6.07833 11.3187C6.08764 11.3265 6.08706 11.3462 6.09055 11.3599C6.07658 11.3629 6.06087 11.3719 6.04865 11.3683C5.98057 11.3492 5.91191 11.3307 5.84732 11.3032C5.83045 11.296 5.82696 11.256 5.81707 11.2315C5.83569 11.2136 5.85431 11.1801 5.87234 11.1807C5.96661 11.1819 6.0149 11.2637 6.07775 11.3187H6.07833ZM9.67841 13.8153C9.66503 13.8201 9.6499 13.8315 9.63768 13.8291C9.56786 13.8165 9.49803 13.8016 9.42879 13.7843C9.41773 13.7813 9.40377 13.7514 9.40377 13.7514C9.41773 13.7359 9.43693 13.7114 9.45206 13.7132C9.49454 13.7173 9.53585 13.7335 9.5888 13.7472C9.60393 13.755 9.63012 13.7657 9.65339 13.7813C9.66445 13.7884 9.67027 13.8034 9.67841 13.8153ZM7.80418 12.2053C7.80767 12.2184 7.80476 12.2357 7.79953 12.2489C7.75123 12.363 7.60576 12.4018 7.51382 12.323C7.49579 12.3074 7.49346 12.2722 7.48357 12.2459C7.49113 12.1754 7.55805 12.1103 7.62787 12.1055C7.69246 12.1013 7.79022 12.1551 7.80418 12.2053ZM3.27891 4.92452C3.34408 4.94244 3.40925 4.95857 3.47384 4.97889C3.50759 4.98964 3.55821 4.9992 3.5425 5.04759C3.53843 5.05954 3.46278 5.05536 3.42322 5.0458C3.35746 5.02907 3.29113 5.00697 3.27891 4.92452ZM9.43984 12.1485C9.45846 12.1157 9.5056 12.1001 9.53294 12.0816C9.6051 12.0954 9.65397 12.1748 9.63943 12.2477C9.62954 12.2973 9.59404 12.3194 9.54574 12.3044C9.47243 12.2817 9.41133 12.1975 9.43984 12.1485ZM8.18997 12.4036C8.1824 12.3761 8.16727 12.3481 8.16902 12.3206C8.17077 12.2925 8.18066 12.2537 8.20102 12.2393C8.29354 12.1718 8.38955 12.1079 8.48847 12.0505C8.50651 12.0398 8.54375 12.0631 8.57284 12.0709L8.63801 12.1228C8.61125 12.1312 8.58332 12.1366 8.5583 12.1491C8.53619 12.1599 8.50767 12.1748 8.50069 12.1945C8.49196 12.2202 8.5036 12.2782 8.5036 12.2782C8.38839 12.2919 8.27259 12.3027 8.19055 12.4036H8.18997ZM10.2137 13.7807C10.2091 13.7872 10.1881 13.7819 10.1724 13.7825C10.091 13.7269 10.1026 13.6301 10.0799 13.5483C10.0799 13.5483 10.1276 13.519 10.1451 13.5256C10.2097 13.5513 10.2539 13.7227 10.2137 13.7807ZM11.5567 14.4605C11.5515 14.4862 11.5451 14.5113 11.5387 14.537C11.5142 14.5316 11.4886 14.528 11.4665 14.5167C11.4217 14.4934 11.4043 14.4528 11.4316 14.4074C11.4438 14.3876 11.4747 14.3703 11.4974 14.3697C11.5544 14.3691 11.566 14.4098 11.5561 14.4599L11.5567 14.4605ZM11.3339 14.1553C11.3373 14.1666 11.271 14.2048 11.2338 14.2246C11.2134 14.2353 11.189 14.2395 11.1657 14.2443C11.193 14.1678 11.1965 14.0991 11.1157 14.0423C11.0901 14.0244 11.0784 13.985 11.0627 13.9521C11.1267 13.9677 11.1954 13.9748 11.2483 14.0083C11.2914 14.0358 11.317 14.1015 11.3339 14.1553ZM11.0039 13.3589C10.9876 13.4616 11.0068 13.556 11.0354 13.651C11.0901 13.657 11.1482 13.6773 11.1965 13.663C11.2681 13.6415 11.3304 13.6176 11.399 13.6672C11.4851 13.7287 11.5509 13.8022 11.5724 13.9109C11.58 13.9497 11.566 13.973 11.527 13.9647C11.4008 13.9384 11.2757 13.9019 11.1482 13.8828C11.1209 13.8786 11.0871 13.9151 11.0557 13.939C10.9609 13.9276 10.8922 13.9945 10.8113 14.0238C10.7182 14.0579 10.6699 14.031 10.6065 13.9235C10.5768 13.8733 10.5431 13.8255 10.5093 13.7777C10.4907 13.7508 10.5047 13.7442 10.539 13.7227C10.5832 13.6952 10.6996 13.4999 10.6909 13.4748C10.6525 13.3601 10.6938 13.3051 10.8067 13.2932C10.8352 13.2902 10.862 13.2729 10.8905 13.2669C10.9556 13.2526 11.0144 13.2914 11.0034 13.3589H11.0039ZM11.3391 13.0799C11.3845 13.1558 11.4258 13.2269 11.4473 13.3117C11.4502 13.3236 11.4502 13.3416 11.4438 13.3499C11.4351 13.3601 11.4107 13.3714 11.406 13.3673C11.2821 13.2537 11.118 13.2358 10.9743 13.1695C10.919 13.1444 10.8748 12.9485 10.9167 12.8905C10.9487 12.8457 10.9975 12.8075 11.0627 12.8224C11.0918 12.9724 11.2675 12.9598 11.3391 13.0799ZM11.2547 12.6026C11.2384 12.6384 11.246 12.685 11.2413 12.7268C11.228 12.8397 11.2268 12.8409 11.0656 12.8164C11.0569 12.6294 11.0365 12.6067 10.8817 12.5924C10.8177 12.5864 10.759 12.5978 10.7473 12.6701C10.7328 12.7579 10.7374 12.8493 10.7246 12.9377C10.7188 12.9777 10.699 13.0411 10.6728 13.0488C10.553 13.0853 10.5169 13.1486 10.5338 13.28C10.5425 13.3457 10.3866 13.4037 10.3196 13.3667C10.269 13.3386 10.2283 13.2908 10.1777 13.2621C10.063 13.1958 9.96121 13.2741 9.96528 13.421C9.96993 13.5937 9.95306 13.6074 9.76686 13.6343C9.70285 13.6439 9.68947 13.611 9.70111 13.568C9.72845 13.467 9.70867 13.3983 9.61441 13.3434C9.55215 13.3069 9.49803 13.2514 9.45206 13.194C9.42355 13.1588 9.43519 13.0996 9.47476 13.0763C9.52305 13.0476 9.58066 13.0285 9.63652 13.0214C9.70227 13.013 9.75057 12.9873 9.76279 12.921C9.77035 12.8798 9.75813 12.8344 9.75464 12.7907C9.72729 12.7979 9.69936 12.8027 9.67259 12.8117C9.64525 12.8212 9.61906 12.835 9.59171 12.8463C9.55505 12.8618 9.53236 12.8499 9.52596 12.8111C9.51607 12.7519 9.50618 12.6928 9.49803 12.6336C9.49803 12.6336 9.52131 12.6223 9.53236 12.6247C9.61906 12.639 9.71158 12.6414 9.7913 12.6748C9.9164 12.7274 10.0229 12.6659 10.1352 12.6414C10.1823 12.6312 10.2213 12.5834 10.2638 12.553C10.2766 12.6109 10.2923 12.6683 10.3004 12.7262C10.3086 12.783 10.3092 12.8415 10.3132 12.8989C10.4762 12.9132 10.4843 12.9126 10.4843 12.7997C10.4843 12.7095 10.4587 12.6247 10.5815 12.5906C10.6874 12.5613 10.596 12.4669 10.6211 12.403C10.6536 12.3218 10.674 12.3152 10.7607 12.3361C10.9254 12.3755 11.0429 12.541 11.2344 12.5135C11.2856 12.5058 11.2774 12.5584 11.2565 12.6038L11.2547 12.6026ZM10.9923 11.4083C10.9655 11.4704 10.9457 11.5242 10.997 11.5672C11.1494 11.6963 11.0057 11.7644 10.9504 11.8516C11.0121 11.9078 11.0755 11.9615 11.1325 12.0225C11.1465 12.0374 11.1401 12.0768 11.136 12.1043C11.1343 12.1157 11.1081 12.1348 11.1058 12.133C11.0167 12.0643 10.9463 12.1294 10.8643 12.1557C10.7834 12.1814 10.6926 12.1718 10.6065 12.1808C10.5198 12.1903 10.4186 12.2381 10.3499 12.2077C10.2428 12.1605 10.1928 12.035 10.1404 11.9257C10.0962 11.8343 10.1457 11.7727 10.2673 11.7704C10.2958 11.7704 10.3249 11.7769 10.354 11.7769C10.3947 11.7769 10.4098 11.7566 10.3965 11.7214C10.3592 11.6222 10.3615 11.5457 10.4919 11.5368C10.5047 11.5362 10.5274 11.5194 10.5268 11.5153C10.521 11.4932 10.514 11.4591 10.4989 11.4537C10.4168 11.4227 10.3307 11.4006 10.2487 11.3695C10.23 11.3623 10.2073 11.3253 10.2114 11.308C10.2172 11.2823 10.2411 11.253 10.2644 11.2404C10.4215 11.158 10.5844 11.1174 10.7607 11.1795C10.8003 11.1932 10.8486 11.1783 10.8916 11.1849C11.0051 11.2028 11.0476 11.2835 10.9929 11.4089L10.9923 11.4083ZM17.7497 12.0553C17.7572 12.1085 17.7956 12.1736 17.7415 12.2118C17.7159 12.2298 17.6589 12.2101 17.6199 12.1957C17.5989 12.188 17.5867 12.1563 17.5704 12.136C17.5815 12.0661 17.6391 12.0476 17.6897 12.0207C17.7188 12.0051 17.7444 12.0171 17.7497 12.0553ZM17.9649 11.4955C18.0144 11.6335 17.9463 11.814 18.0755 11.9149C18.1878 12.0022 18.328 12.0511 18.4561 12.1175C18.4793 12.1294 18.5038 12.139 18.5241 12.1545C18.53 12.1587 18.5253 12.182 18.5206 12.1945C18.516 12.2077 18.5073 12.2286 18.4985 12.2292C18.3199 12.2441 18.1494 12.2083 17.9981 12.1127C17.9574 12.087 17.9428 12.0111 17.9265 11.955C17.8759 11.7853 17.8352 11.6126 17.7817 11.4448C17.7421 11.3193 17.7159 11.3038 17.5524 11.3187C17.4552 11.3277 17.3796 11.3121 17.3249 11.2267C17.2847 11.164 17.2423 11.103 17.2085 11.0367C17.1992 11.0188 17.2108 10.9686 17.226 10.9614C17.2795 10.937 17.2137 10.9137 17.2644 10.9453C17.3016 10.9686 17.333 11.0015 17.3668 11.0302C17.5216 11.0433 17.5879 11.2177 17.7438 11.241C17.8742 11.2608 17.9231 11.3773 17.9655 11.4949L17.9649 11.4955ZM18.0482 10.4542C18.0592 10.4907 18.0418 10.5098 18.0068 10.5229C17.9283 10.5516 17.8311 10.4889 17.7642 10.5827C17.7281 10.6335 17.6676 10.6598 17.6205 10.5994C17.6094 10.5851 17.6647 10.5271 17.6606 10.4925C17.6542 10.4351 17.6251 10.3802 17.6042 10.3246C17.5891 10.2846 17.6007 10.2565 17.6391 10.2637C17.7095 10.2762 17.7776 10.2989 17.8468 10.3174L17.8451 10.3234C17.9009 10.3413 17.9591 10.3539 18.0115 10.3796C18.0307 10.3891 18.0394 10.4274 18.0476 10.4548L18.0482 10.4542ZM16.9321 8.47379C17.0409 8.50247 17.1515 8.52756 17.258 8.564C17.2952 8.57655 17.326 8.61837 17.3511 8.65302C17.3662 8.67333 17.365 8.70679 17.3679 8.73486C17.3679 8.73486 17.3412 8.74502 17.3266 8.74442C17.1387 8.73905 16.9984 8.66138 16.9315 8.47379H16.9321ZM18.0999 9.76422C18.0988 9.80186 18.0214 9.84427 17.9713 9.87116C17.8474 9.93866 17.7514 9.91955 17.66 9.81918C17.617 9.77199 17.6065 9.71583 17.6205 9.6537C17.6292 9.59515 17.6996 9.54855 17.7328 9.58499C17.7991 9.65728 17.8794 9.677 17.9679 9.68357C18.0272 9.68775 18.1023 9.70806 18.1005 9.76362L18.0999 9.76422ZM17.77 9.36873C17.7671 9.38665 17.7275 9.3986 17.7089 9.41114C17.6432 9.3986 17.5797 9.37829 17.5605 9.31795C17.5309 9.22415 17.4925 9.15306 17.3866 9.1435C17.3761 9.1423 17.3674 9.12199 17.358 9.11004C17.3773 9.09869 17.4023 9.07241 17.4145 9.07778C17.5186 9.12259 17.5006 8.90513 17.6112 8.9816C17.7438 9.0742 17.7962 9.20683 17.7706 9.36873H17.77ZM18.0767 9.20025C18.0848 9.24207 18.0819 9.28867 18.0726 9.33049C18.0691 9.34722 18.0365 9.35738 18.0179 9.36992C17.9615 9.34184 17.9405 9.23251 17.9795 9.17576C17.9865 9.1656 18.0068 9.15366 18.0144 9.15724C18.0377 9.1674 18.0726 9.18233 18.0761 9.20025H18.0767ZM16.8442 8.17986C16.8024 8.23423 16.8483 8.25753 16.8803 8.27963C16.9513 8.32922 16.9478 8.39075 16.9228 8.45886C16.8367 8.36865 16.7488 8.28023 16.6662 8.18703C16.6528 8.17209 16.658 8.13087 16.6674 8.10698C16.6848 8.06277 16.7232 8.04245 16.7692 8.05859C16.8245 8.0777 16.9315 8.06814 16.8442 8.18046V8.17986ZM17.3324 7.89131C17.333 7.90385 17.3266 7.91879 17.3191 7.92954C17.2649 8.00661 17.1992 7.97076 17.1358 7.94746C17.1241 7.94328 17.1142 7.92895 17.1078 7.917C17.1055 7.91282 17.1148 7.89549 17.1212 7.8937C17.1852 7.87697 17.2504 7.86263 17.3138 7.8477C17.322 7.86502 17.3319 7.87757 17.3324 7.89071V7.89131ZM18.0179 8.17628C17.8713 8.22885 17.7869 8.18464 17.7851 8.05022C17.7846 8.00482 17.8364 7.96658 17.8718 7.99108C17.9289 8.03051 17.9836 8.07412 18.0371 8.11892C18.0697 8.14641 18.0592 8.16194 18.0185 8.17628H18.0179ZM17.7526 7.61231C17.7398 7.61888 17.727 7.63203 17.7142 7.63143C17.6734 7.62904 17.6327 7.62187 17.592 7.61709L17.5955 7.60036C17.5402 7.58543 17.4843 7.57408 17.4308 7.55436C17.411 7.54719 17.3976 7.52091 17.3813 7.50358C17.3953 7.5 17.4098 7.49163 17.4226 7.49343C17.5204 7.50956 17.6181 7.52509 17.7147 7.54779C17.7316 7.55197 17.7403 7.58961 17.7531 7.61172L17.7526 7.61231ZM17.7851 7.10749C17.7834 7.12422 17.7415 7.15349 17.727 7.14872C17.6304 7.11705 17.5524 7.05731 17.5221 6.95336C17.5181 6.93902 17.553 6.91214 17.5699 6.89123C17.6723 6.90138 17.7956 7.02087 17.7857 7.10749H17.7851Z" fill="#FF6200"/>
<path d="M10.7985 15.003C10.777 15.0818 10.8218 15.1804 10.8992 15.2103C10.9196 15.2181 10.9574 15.2055 10.9731 15.1888C11.001 15.1595 11.0301 15.1165 10.9906 15.0771C10.951 15.0376 10.9044 15.0042 10.8567 14.9749C10.8463 14.9683 10.8183 14.9922 10.7985 15.0024V15.003Z" fill="#FF6200"/>
<path d="M11.7069 14.8363C11.7138 14.8256 11.6911 14.7939 11.6818 14.7706C11.6021 14.7503 11.5532 14.8047 11.5032 14.8519C11.4991 14.856 11.5177 14.9026 11.5335 14.9092C11.6114 14.9415 11.6661 14.8979 11.7069 14.8357V14.8363Z" fill="#FF6200"/>
<path d="M9.84366 13.0034C9.87974 13.0709 9.92745 13.093 9.98331 13.0918C10.0182 13.0906 10.0741 13.0948 10.0485 13.0291C10.0339 12.9915 9.99844 12.9269 9.98447 12.9305C9.93443 12.9425 9.88963 12.9777 9.84308 13.004L9.84366 13.0034Z" fill="#FF6200"/>
<path d="M10.3127 12.903C10.3127 12.9017 10.3127 12.8996 10.3127 12.8983C10.3114 12.8983 10.31 12.8983 10.3086 12.8983C10.31 12.9003 10.3114 12.9017 10.3127 12.9037V12.903Z" fill="#FF6200"/>
<path d="M10.2149 13.0082C10.2271 13.0727 10.3133 13.1056 10.3877 13.093C10.425 13.0865 10.4302 13.0697 10.4046 13.0345C10.3732 12.9909 10.3429 12.9467 10.3121 12.9031C10.2423 12.9019 10.2033 12.9461 10.2149 13.0088V13.0082Z" fill="#FF6200"/>
<path d="M10.9382 11.8456C10.9411 11.8492 10.944 11.8534 10.9469 11.857C10.9481 11.8552 10.9492 11.8534 10.9504 11.8516C10.9475 11.8486 10.944 11.8456 10.9405 11.8427C10.9393 11.8438 10.9388 11.8444 10.9382 11.8456Z" fill="#FF6200"/>
<path d="M10.7165 11.6562C10.692 11.6664 10.6519 11.701 10.6554 11.7088C10.6914 11.7942 10.7333 11.8773 10.7787 11.9579C10.7816 11.9627 10.8323 11.9478 10.8532 11.9316C10.8846 11.9077 10.9102 11.8749 10.9387 11.8456C10.8899 11.7823 10.8427 11.7172 10.7898 11.6574C10.7781 11.6443 10.7386 11.6473 10.717 11.6562H10.7165Z" fill="#FF6200"/>
<path d="M11.0255 13.6612C11.0295 13.6618 11.0342 13.6624 11.0383 13.6636C11.0371 13.6594 11.0365 13.6558 11.0353 13.6516C11.0336 13.6516 11.0324 13.651 11.0307 13.651C11.0289 13.6552 11.0272 13.6576 11.0255 13.6618V13.6612Z" fill="#FF6200"/>
<path d="M10.7822 13.6875C10.7776 13.7096 10.7875 13.746 10.8043 13.761C10.898 13.8434 10.9638 13.8111 11.026 13.6606C10.9614 13.6498 10.8974 13.6361 10.8323 13.6325C10.816 13.6313 10.7869 13.6654 10.7822 13.6875Z" fill="#FF6200"/>
</g>
<defs>
<clipPath id="clip0_97_1470">
<rect width="21" height="37" fill="white"/>
</clipPath>
</defs>
</svg>
