<svg width="21" height="37" viewBox="0 0 21 37" fill="none" xmlns="http://www.w3.org/2000/svg">
<g clip-path="url(#clip0_97_1484)">
<path d="M2.31178 33.9723C2.26639 34.1342 2.37404 34.1796 2.48343 34.2399C2.63821 34.3254 2.79357 34.415 2.93148 34.5249C3.12001 34.6743 3.33356 34.7824 3.54769 34.8636C3.75542 34.9425 3.92184 35.05 4.0225 35.2364C4.10571 35.3906 4.26864 35.3547 4.37163 35.4455C4.51012 35.3953 4.59449 35.4712 4.6678 35.577C4.73647 35.6755 4.82433 35.7084 4.93605 35.6522C5.00762 35.6164 5.0565 35.6606 5.06581 35.7215C5.07745 35.8004 5.09316 35.9043 5.156 35.9145C5.33406 35.9426 5.45276 36.0901 5.61277 36.1296C5.69773 36.1505 5.77512 36.1517 5.84669 36.2162C5.92233 36.2849 6.02475 36.3243 6.09341 36.3984C6.18418 36.4958 6.28485 36.5036 6.39948 36.485C6.47861 36.6081 6.5979 36.5788 6.71544 36.5842C6.84578 36.5896 7.00754 36.595 7.07853 36.7109C7.1373 36.8058 7.18676 36.8047 7.27404 36.8202C7.38576 36.8399 7.51901 36.8286 7.60629 36.9241C7.67612 37.0006 7.74536 37.012 7.84195 36.991C7.94378 36.9689 7.98102 36.8973 8.03048 36.8202C8.12707 36.669 8.23996 36.5286 8.33713 36.3781C8.43023 36.2341 8.62691 36.1463 8.57745 35.9229C8.57046 35.8918 8.58676 35.8715 8.624 35.8667C8.80263 35.8434 8.89923 35.7042 9.00862 35.5829C9.11859 35.4611 9.27396 35.3559 9.32574 35.2119C9.39906 35.0088 9.60446 35.0668 9.70222 34.9383C9.80056 34.8093 9.89017 34.6539 10.0211 34.5745C10.1538 34.4938 10.3324 34.4968 10.4691 34.3971C10.5878 34.3104 10.7164 34.2393 10.834 34.1485C10.9253 34.078 11.0237 34.0296 11.0696 33.9149C11.2622 33.9006 11.4077 33.7435 11.609 33.7387C11.7533 33.7357 11.9011 33.6993 12.0396 33.6527C12.4574 33.5123 12.8746 33.3701 13.2843 33.2076C13.4629 33.1365 13.6363 33.0505 13.826 33.023C13.9651 33.0033 14.0599 32.8922 14.1879 32.8647C14.3159 32.8372 14.4486 32.8318 14.5789 32.8145C14.6075 32.8109 14.6377 32.8007 14.6622 32.7858C14.8367 32.6771 15.002 32.5433 15.2306 32.6221C15.2621 32.6329 15.3121 32.5934 15.3505 32.5725C15.6298 32.419 15.9388 32.3664 16.2437 32.3754C16.4881 32.3826 16.708 32.3664 16.9187 32.2368C16.9949 32.1902 17.0799 32.1842 17.173 32.2159C17.3789 32.2864 17.5675 32.2493 17.724 32.0886C17.7455 32.1077 17.7676 32.1257 17.7892 32.1454C17.9364 32.2792 18.0161 32.2702 18.0865 32.1065C18.1156 32.0396 18.1127 31.953 18.193 31.9202C18.2256 31.907 18.2686 31.8574 18.2983 31.9249C18.31 31.9518 18.3053 31.9918 18.3233 32.0092C18.4031 32.0856 18.6666 32.1669 18.7708 32.1478C18.7871 32.1448 18.8139 32.0958 18.8075 32.0803C18.7627 31.9697 18.7091 31.8628 18.6626 31.7523C18.6428 31.7045 18.6643 31.6591 18.7091 31.6441C18.7528 31.6298 18.797 31.6507 18.8034 31.7039C18.8173 31.8222 18.8802 31.8969 18.9867 31.9345C19.0129 31.944 19.046 31.956 19.0693 31.9482C19.131 31.9267 19.085 31.8759 19.0903 31.8383C19.0996 31.7714 19.131 31.7242 19.2043 31.7403C19.3021 31.7624 19.4173 31.7654 19.4242 31.9136C19.426 31.953 19.4522 31.9632 19.4888 31.9542C19.5878 31.9291 19.6838 31.9196 19.7297 31.7923C19.7914 31.6208 19.8031 31.625 19.9351 31.6459C20.0073 31.6573 20.0789 31.6716 20.151 31.6788C20.1865 31.6824 20.2075 31.6561 20.2045 31.6214C20.1993 31.548 20.1615 31.4566 20.1906 31.4046C20.2895 31.2271 20.2331 31.0521 20.215 30.8759C20.2057 30.7904 20.1597 30.7032 20.2581 30.6405C20.247 30.5377 20.3075 30.4445 20.2784 30.3352C20.2331 30.1625 20.2092 29.9839 20.1749 29.8083C20.1493 29.6762 20.119 29.5448 20.0957 29.4122C20.0829 29.3375 20.2127 29.2885 20.1592 29.2216C20.0335 29.0627 20.0602 28.8835 20.0637 28.7054C20.0655 28.6158 20.0195 28.5704 19.9444 28.5394C19.7879 28.4748 19.6227 28.5202 19.4638 28.4934C19.4423 28.4898 19.4254 28.4605 19.4062 28.4438C19.4289 28.4252 19.4499 28.399 19.4755 28.3894C19.5156 28.3751 19.5598 28.3679 19.6023 28.3655C19.7193 28.3589 19.8374 28.3589 19.9543 28.3518C19.998 28.3494 20.0509 28.3368 20.0504 28.2813C20.0504 28.2418 20.0306 28.1958 20.0055 28.1654C19.9683 28.1206 19.9183 28.0865 19.8735 28.0483C19.7774 27.9652 19.7705 27.9342 19.8304 27.8236C19.8444 27.798 19.8676 27.777 19.8868 27.7537C19.9328 27.6994 19.9363 27.6313 19.8787 27.6008C19.7059 27.5088 19.6087 27.363 19.5889 27.1731C19.5709 27.0016 19.4557 26.8218 19.6081 26.6545C19.6227 26.6384 19.6273 26.5924 19.6157 26.5756C19.4859 26.3857 19.5464 26.1276 19.3992 25.9454C19.3119 25.8372 19.4382 25.7548 19.4272 25.6598C19.4062 25.4818 19.3474 25.3079 19.3829 25.1233C19.3905 25.0833 19.3771 25.0319 19.3579 24.9937C19.2893 24.8604 19.2183 24.7278 19.1391 24.6012C19.1019 24.5414 19.035 24.554 18.9803 24.5808C18.9244 24.6083 18.879 24.6496 18.9518 24.7075C19.0344 24.7738 19.0204 24.8694 19.0245 24.956C19.0262 24.9955 18.8843 24.9841 18.7853 24.9256C18.7347 24.8957 18.6905 24.8539 18.6451 24.8162C18.5759 24.7589 18.5863 24.7045 18.6783 24.6484C18.7027 24.6334 18.7318 24.6257 18.7586 24.6143C18.7254 24.591 18.6928 24.5659 18.6585 24.5456C18.6474 24.539 18.6282 24.5396 18.6149 24.5438C18.4455 24.5934 18.2745 24.6065 18.097 24.6131C17.923 24.6197 17.7548 24.6603 17.5948 24.5552C17.5768 24.5432 17.5366 24.5576 17.511 24.5695C17.4302 24.6071 17.358 24.6472 17.2725 24.5653C17.2154 24.511 17.134 24.5331 17.0601 24.5456C16.9606 24.5629 16.8541 24.6059 16.7616 24.585C16.6324 24.5558 16.5416 24.6101 16.4311 24.6454C16.3444 24.6723 16.2309 24.6245 16.1343 24.594C16.107 24.585 16.0889 24.5211 16.0819 24.4793C16.0779 24.4566 16.1023 24.4267 16.1192 24.4034C16.1401 24.3741 16.1628 24.3819 16.1925 24.4076C16.2425 24.4518 16.2489 24.5564 16.3496 24.5319C16.4241 24.5139 16.4846 24.4721 16.5311 24.4106C16.5492 24.3873 16.5701 24.3586 16.5713 24.3317C16.5789 24.119 16.7383 23.9852 16.8267 23.8156C16.8756 23.7218 16.9617 23.628 16.9414 23.5288C16.9018 23.3376 17.0362 23.2241 17.0944 23.0795C17.1497 22.9415 17.237 22.8173 17.3097 22.687C17.3888 22.5448 17.372 22.377 17.4208 22.2246C17.4459 22.147 17.4569 22.0902 17.5384 22.0639C17.5995 22.0442 17.639 21.9869 17.6315 21.9253C17.6181 21.8118 17.6681 21.7294 17.7234 21.6409C17.7868 21.5406 17.8439 21.4348 17.8904 21.3255C18.058 20.9294 18.1819 20.5154 18.3687 20.1265C18.5043 19.8445 18.5101 19.5076 18.694 19.2405C18.8563 18.6933 18.9308 18.1186 19.1752 17.5964C19.1071 17.4267 19.3079 17.3192 19.2788 17.1734C19.2433 16.9972 19.3748 16.895 19.4091 16.7523C19.465 16.5175 19.5255 16.2833 19.5959 16.0527C19.7146 15.6644 19.76 15.2533 19.938 14.8829C19.9939 14.3536 20.1702 13.8524 20.2808 13.3362C20.3459 13.0333 20.3826 12.7274 20.4169 12.4216C20.4722 12.1593 20.5217 11.8964 20.5618 11.6312C20.5659 11.6049 20.5665 11.578 20.5735 11.5529C20.698 11.1347 20.7637 10.707 20.7719 10.2691C20.773 10.2171 20.7783 10.1621 20.7952 10.1137C20.8405 9.98708 20.8469 9.85744 20.8516 9.72422C20.8603 9.48824 20.8888 9.25225 20.8952 9.01627C20.9098 8.49114 20.9959 7.97079 20.9808 7.44386C20.975 7.24672 20.9622 7.04897 20.9953 6.85182C21.0058 6.78909 20.9907 6.71979 20.979 6.65527C20.9261 6.35716 20.9482 6.05247 20.8888 5.75197C20.8411 5.51062 20.8789 5.25193 20.8481 5.0058C20.7789 4.45498 20.7538 3.90057 20.677 3.34975C20.5845 2.69019 20.4239 2.05395 20.183 1.4392C20.0829 1.1835 19.9823 0.916456 19.7821 0.722894C19.682 0.626112 19.625 0.519769 19.5843 0.393717C19.5604 0.318441 19.5331 0.24436 19.5069 0.169683C19.4656 0.0537813 19.3783 0.0239122 19.266 0.00837876C19.1752 -0.00416779 19.1025 0.101576 19.01 0.0322778C18.95 -0.0125296 18.8936 0.00359891 18.8395 0.0567682C18.7999 0.0956018 18.7458 0.0932138 18.6946 0.0734994C18.6346 0.0507981 18.5741 0.00897761 18.5148 0.0101716C18.1575 0.0155503 17.7991 -0.0274681 17.4435 0.0376526C17.1922 0.083654 16.9338 0.023912 16.683 0.0878349C16.6592 0.0938087 16.6289 0.0914207 16.6068 0.0812659C16.4852 0.0274978 16.4148 0.0932097 16.3502 0.186407C16.3304 0.215086 16.2943 0.251527 16.2617 0.197759C16.2146 0.120691 16.1692 0.081861 16.0773 0.14459C15.9702 0.217477 15.8573 0.271242 15.7363 0.152952C15.6851 0.102769 15.5972 0.123678 15.5542 0.160123C15.4326 0.263475 15.2941 0.249734 15.1573 0.246148C15.0538 0.243162 14.9513 0.233606 14.8542 0.279607C14.8018 0.304101 14.7465 0.296934 14.7081 0.26288C14.5824 0.151162 14.4451 0.175058 14.3066 0.216279C14.1967 0.249135 14.0884 0.321428 13.9796 0.320234C13.6951 0.316648 13.4268 0.411638 13.1487 0.435533C13.0428 0.444497 12.9526 0.492288 12.8496 0.504235C12.7466 0.516183 12.707 0.58011 12.7379 0.666139C12.8385 0.950509 12.9351 1.24205 13.1493 1.46071C13.2197 1.53299 13.2534 1.60289 13.2668 1.69669C13.2738 1.74866 13.2825 1.80422 13.3064 1.84903C13.4606 2.14475 13.5269 2.46377 13.5618 2.79295C13.5688 2.85628 13.5804 2.93573 13.6206 2.97576C13.6945 3.04925 13.7259 3.1299 13.7009 3.22369C13.6747 3.32107 13.7666 3.39216 13.7352 3.49133C13.677 3.67653 13.7282 3.85576 13.808 4.02125C13.8359 4.07919 13.8272 4.11325 13.8062 4.16284C13.7207 4.36775 13.7317 4.60254 13.8376 4.82537C13.8673 4.8887 13.8888 4.96816 13.8533 5.01475C13.7306 5.17725 13.73 5.32123 13.8691 5.47118C13.8859 5.48911 13.8656 5.54526 13.8597 5.5829C13.8533 5.62114 13.8336 5.65997 13.8376 5.69641C13.865 5.94673 13.8435 6.18928 13.7486 6.42467C13.7294 6.47246 13.7323 6.52862 13.7189 6.5794C13.7003 6.65049 13.716 6.70784 13.7701 6.75623C13.8673 6.84346 13.8469 6.93665 13.7888 7.03881C13.744 7.11767 13.7277 7.21685 13.6741 7.28674C13.5921 7.39368 13.7341 7.48031 13.6794 7.58187C13.6351 7.66371 13.7236 7.6912 13.7608 7.73779C13.8138 7.8053 13.8464 7.89253 13.7853 7.95346C13.6311 8.10939 13.6276 8.34178 13.4972 8.50787C13.4722 8.53953 13.4763 8.57597 13.4949 8.6166C13.5269 8.68769 13.5502 8.76297 13.5752 8.83765C13.5938 8.895 13.577 8.94996 13.5252 8.97087C13.3733 9.0324 13.3401 9.16563 13.3797 9.29288C13.403 9.36875 13.4024 9.43566 13.3902 9.50018L13.4466 9.5426C13.4385 9.65969 13.4111 9.775 13.4111 9.89209C13.4117 10.0701 13.3849 10.2482 13.3704 10.4268C13.2336 10.5809 13.3442 10.7816 13.2773 10.9501C13.261 10.9907 13.2622 11.0385 13.2517 11.0827C13.2173 11.2297 13.1836 11.3773 13.1458 11.523C13.1085 11.6694 13.0643 11.814 13.0277 11.9604C12.9875 12.1205 12.9171 12.2836 12.9258 12.4419C12.9357 12.6139 12.8089 12.7065 12.778 12.8529C12.7321 13.0692 12.7286 13.3075 12.5691 13.4909C12.5366 13.5286 12.5441 13.6068 12.5418 13.6666C12.5371 13.7849 12.5569 13.9014 12.4533 14.0005C12.3684 14.0824 12.4929 14.2455 12.3602 14.3243C12.3009 14.5735 12.1356 14.776 12.0681 15.0215C11.9884 15.3125 11.8837 15.5998 11.84 15.8962C11.7941 16.2074 11.6213 16.4774 11.6015 16.7929C11.5945 16.9016 11.5194 16.9697 11.4566 17.054C11.3757 17.1615 11.2948 17.3025 11.307 17.4489C11.3175 17.5713 11.2913 17.6532 11.1953 17.7183C11.1011 17.7828 11.051 17.8706 11.083 17.9889C11.1179 18.1156 11.0661 18.1897 10.9568 18.2392C10.8863 18.2715 10.9085 18.3318 10.9178 18.3916C10.9242 18.4328 10.9242 18.4908 10.9015 18.5182C10.845 18.5863 10.809 18.6449 10.7991 18.7453C10.7903 18.8361 10.6914 18.9173 10.635 19.0039C10.6111 19.0404 10.5762 19.081 10.5762 19.1198C10.5756 19.3486 10.4156 19.5022 10.3295 19.6904C10.2882 19.7818 10.1788 19.8451 10.2247 19.9706C10.0874 20.0685 10.1602 20.2406 10.0915 20.372C10.0147 20.5196 9.94603 20.666 9.83198 20.7878C9.81627 20.8046 9.81103 20.8422 9.81569 20.8673C9.83372 20.9551 9.79183 21.0065 9.72899 21.0561C9.68651 21.0901 9.63414 21.1248 9.65334 21.2024C9.68069 21.3124 9.64112 21.4074 9.58468 21.5017C9.54162 21.574 9.52009 21.6595 9.48634 21.7377C9.45841 21.8022 9.50845 21.8184 9.54511 21.8261C9.58352 21.8345 9.6417 21.8357 9.6644 21.813C9.70338 21.773 9.73422 21.7138 9.74702 21.6577C9.77379 21.5382 9.87038 21.5442 9.95185 21.5215C9.97803 21.5137 10.0205 21.5017 10.0321 21.5149C10.166 21.6577 10.3644 21.6248 10.5186 21.7102C10.5855 21.7473 10.6193 21.8142 10.5931 21.8978C10.5843 21.9259 10.5646 21.9498 10.5523 21.9773C10.5425 22 10.5262 22.043 10.5297 22.0448C10.5675 22.0651 10.607 22.0872 10.6484 22.0932C10.7182 22.1033 10.742 22.0406 10.7804 21.9958C10.8631 21.8996 10.9218 21.8931 11.0481 21.9564C11.0883 21.9767 11.1144 22.0096 11.1028 22.0645C11.0737 22.1983 11.0237 22.2527 10.8986 22.2605C10.8119 22.2658 10.724 22.2366 10.6396 22.2885C10.5948 22.3166 10.5675 22.4122 10.6117 22.4409C10.6728 22.4803 10.7415 22.5066 10.8049 22.5425C10.8433 22.564 10.845 22.5938 10.8107 22.6004C10.6646 22.6285 10.6716 22.7169 10.7031 22.8358C10.7205 22.9009 10.6454 22.9535 10.5913 22.9206C10.5023 22.8669 10.4232 22.8131 10.3074 22.843C10.2387 22.8603 10.2055 22.8005 10.2288 22.73C10.2457 22.6799 10.2498 22.6058 10.337 22.6578C10.4016 22.6966 10.4534 22.6494 10.4831 22.604C10.4976 22.5819 10.4732 22.5215 10.4523 22.4881C10.4214 22.4391 10.3824 22.3931 10.3382 22.3567C10.3132 22.3351 10.2038 22.4272 10.1782 22.4941C10.1514 22.5646 10.134 22.638 10.1101 22.7097C10.0857 22.7826 10.0234 22.7808 9.96581 22.7748C9.92392 22.7707 9.8826 22.7533 9.84129 22.7414C9.81569 22.6781 9.7895 22.6147 9.76564 22.5508C9.74121 22.4851 9.76972 22.4505 9.8506 22.457C9.90646 22.4618 9.95883 22.4851 10.0164 22.4534C10.0636 22.4277 10.0944 22.3429 10.0548 22.3101C9.95825 22.2294 9.86107 22.1488 9.7575 22.0777C9.71851 22.0508 9.66905 22.086 9.65567 22.1278C9.64345 22.1649 9.65043 22.2121 9.65858 22.2521C9.6772 22.3435 9.64578 22.3859 9.555 22.3979C9.52184 22.4021 9.49158 22.4301 9.46074 22.4516C9.38801 22.377 9.2885 22.3381 9.21286 22.2766C9.12849 22.2085 9.09532 22.0747 9.03422 21.9731C9.01153 21.9355 8.97196 21.9092 8.9417 21.8757C8.87944 21.807 8.84628 21.7264 8.83871 21.6314C8.82533 21.4653 8.77703 21.3136 8.69732 21.1642C8.62807 21.0346 8.57338 20.884 8.55999 20.7382C8.54835 20.614 8.50762 20.5124 8.47038 20.3995C8.42791 20.2717 8.3959 20.1384 8.33015 20.0213C8.24112 19.8624 8.18294 19.6922 8.12707 19.5201C8.10438 19.449 8.08402 19.3737 8.04561 19.3116C7.85243 19.0015 7.79308 18.6395 7.67845 18.3014C7.50505 17.7894 7.33688 17.2756 7.13672 16.7732C7.09831 16.677 6.90338 16.524 6.83705 16.5605C6.65667 16.6603 6.4629 16.5808 6.27495 16.6322C6.06955 16.6883 5.84844 16.6686 5.65234 16.7929C5.58776 16.8341 5.48011 16.8024 5.39224 16.8054C5.20313 16.812 5.01635 16.8114 4.83131 16.8831C4.71959 16.9267 4.6038 17.0492 4.46415 16.941C4.25293 16.996 4.0417 17.0528 3.82932 17.1041C3.71992 17.131 3.64603 17.1914 3.60529 17.3001C3.56456 17.4088 3.53198 17.3365 3.49998 17.2911C3.49125 17.2792 3.48485 17.2648 3.47554 17.2535C3.38011 17.1424 3.32076 17.14 3.22591 17.2463C3.19682 17.2792 3.17529 17.3198 3.14794 17.3551C3.09286 17.4263 3.02613 17.4355 2.94777 17.3825C2.80754 17.287 2.78135 17.278 2.68825 17.3843C2.56199 17.5277 2.41768 17.6018 2.22799 17.609C2.05168 17.6161 1.88177 17.6609 1.72408 17.7559C1.54952 17.8611 1.37612 17.9812 1.14977 17.9077C1.10438 17.8927 1.04037 17.9435 0.983932 17.959C0.928072 17.974 0.868137 18.0009 0.815185 17.9919C0.627821 17.959 0.466642 17.9877 0.332809 18.1389C0.306043 18.1693 0.25251 18.1741 0.21236 18.1932C-0.0192263 18.302 -0.0116618 18.3014 0.00404901 18.5553C0.00986832 18.6491 0.0331437 18.7327 0.0622365 18.8175C0.260076 19.3857 0.354921 19.9813 0.495735 20.5644C0.608619 21.0334 0.830898 21.4641 0.908286 21.9414C1.05434 22.2372 1.14337 22.555 1.2481 22.8669C1.33364 23.1208 1.3831 23.3926 1.55825 23.6088C1.58501 23.6417 1.60247 23.6889 1.60887 23.7319C1.64785 24.0031 1.72292 24.2594 1.86839 24.493C1.89864 24.5414 1.91552 24.6041 1.92192 24.6621C1.95218 24.9178 2.01153 25.1621 2.15118 25.3814C2.17387 25.4166 2.19831 25.4698 2.18842 25.5045C2.13314 25.701 2.18958 25.8629 2.324 25.9991C2.38684 26.063 2.34029 26.0977 2.31178 26.1461C2.29781 26.17 2.292 26.204 2.2949 26.2321C2.31702 26.4556 2.42524 26.6658 2.38335 26.9C2.37753 26.9329 2.41884 26.9807 2.44736 27.0129C2.48634 27.0578 2.53813 27.0906 2.57711 27.1348C2.65741 27.225 2.64752 27.2878 2.54104 27.3971C2.50089 27.4377 2.44736 27.461 2.44968 27.5387C2.45201 27.6122 2.42583 27.6868 2.41885 27.7615C2.39848 27.982 2.46598 28.0835 2.67662 28.1588C2.71793 28.1737 2.75983 28.1863 2.79998 28.2036C2.81161 28.209 2.81976 28.2257 2.82616 28.2388C2.82616 28.2388 2.81045 28.2574 2.8023 28.258C2.75924 28.258 2.7156 28.2562 2.67254 28.2532C2.48634 28.24 2.46249 28.252 2.44619 28.4288C2.43688 28.5322 2.38277 28.6343 2.42699 28.7407C2.45492 28.807 2.42292 28.9068 2.50613 28.9372C2.55442 28.9552 2.61785 28.9253 2.67371 28.9265C2.71618 28.9271 2.75866 28.9414 2.79998 28.954C2.81103 28.9575 2.82092 28.9767 2.82325 28.9904C2.82499 28.9982 2.81278 29.0149 2.80405 29.0179C2.73771 29.0394 2.67313 29.046 2.62716 29.1236C2.54453 29.264 2.45492 29.3949 2.42699 29.5645C2.40546 29.6966 2.41942 29.8053 2.52533 29.8889C2.58061 29.9319 2.59806 29.966 2.54337 30.0269C2.43048 30.153 2.42059 30.297 2.50147 30.4439C2.53231 30.4995 2.55268 30.5479 2.52067 30.61C2.43456 30.7791 2.43281 30.9464 2.5294 31.1136C2.55268 31.1549 2.54162 31.1991 2.50729 31.2349C2.45318 31.2923 2.43223 31.3598 2.43921 31.441C2.44386 31.4996 2.45259 31.5695 2.42815 31.6167C2.2501 31.9554 2.20413 32.3348 2.10288 32.6974C2.022 32.9865 1.97603 33.2882 1.81893 33.5511C1.80729 33.5702 1.81427 33.618 1.82998 33.6341C1.86198 33.6664 1.9033 33.6652 1.94578 33.6377C1.9708 33.621 2.00687 33.5356 2.02258 33.5989C2.05982 33.7477 2.14885 33.8307 2.26872 33.8994C2.28967 33.9114 2.31294 33.9538 2.30771 33.9735L2.31178 33.9723ZM18.6154 25.376C18.6218 25.3539 18.662 25.3199 18.6725 25.3246C18.7225 25.3473 18.7714 25.3778 18.8133 25.4143C18.8267 25.4256 18.8267 25.4728 18.8144 25.4901C18.7906 25.5242 18.7539 25.5487 18.74 25.5612C18.6538 25.5307 18.5986 25.4346 18.6154 25.3766L18.6154 25.376ZM18.6445 25.7088C18.6841 25.7016 18.7254 25.6825 18.7627 25.6891C18.8319 25.7016 18.8691 25.7643 18.8494 25.8151C18.8261 25.8755 18.7004 25.9513 18.6876 25.9185C18.662 25.8534 18.6579 25.7793 18.6451 25.7088L18.6445 25.7088ZM18.2128 25.6807L18.406 25.6592C18.406 25.6717 18.4089 25.6855 18.4042 25.6962C18.3996 25.7088 18.3891 25.7255 18.3792 25.7273C18.3396 25.7339 18.2995 25.7345 18.2681 25.7369L18.2128 25.6801L18.2128 25.6807ZM14.1786 7.16248C14.2054 7.12006 14.2362 7.08004 14.2694 7.04299C14.2839 7.02686 14.3084 7.0197 14.3287 7.00835C14.3223 7.03165 14.3188 7.05674 14.3084 7.07824C14.302 7.09198 14.2938 7.10274 14.2915 7.10453C14.2543 7.16427 14.242 7.18697 14.2269 7.2049C14.2205 7.21266 14.1949 7.21625 14.1937 7.21386C14.1856 7.19773 14.1722 7.17264 14.1786 7.16248ZM14.2112 7.80829C14.231 7.77842 14.2577 7.74556 14.2886 7.73301C14.3468 7.70912 14.4102 7.69836 14.4713 7.68283C14.4928 7.67746 14.5149 7.67268 14.5365 7.6679C14.5289 7.69239 14.5231 7.71808 14.5126 7.74138C14.5021 7.76468 14.4864 7.78619 14.4649 7.82263C14.4393 7.87341 14.3852 7.8985 14.3154 7.89611C14.2607 7.89432 14.1914 7.83816 14.2106 7.80889L14.2112 7.80829ZM14.3724 8.64767C14.3945 8.62078 14.4445 8.63273 14.4562 8.66619C14.4696 8.70502 14.4556 8.73907 14.4242 8.75699C14.4096 8.76536 14.3823 8.74923 14.3613 8.74445C14.3398 8.7086 14.3491 8.67634 14.3724 8.64767ZM14.519 9.3813C14.5522 9.30184 14.6214 9.28212 14.6953 9.27316C14.7035 9.27197 14.7186 9.27735 14.7198 9.28212C14.7227 9.29288 14.7227 9.31319 14.7163 9.31678C14.6552 9.35501 14.5929 9.39145 14.5301 9.4273C14.5266 9.42909 14.5178 9.42132 14.512 9.41774C14.5144 9.40579 14.5144 9.39265 14.519 9.3813ZM14.1606 13.5172C14.1903 13.5387 14.2234 13.5829 14.2217 13.6152C14.2188 13.6684 14.1681 13.6594 14.1088 13.6457C14.0913 13.6337 14.0529 13.6146 14.0262 13.5853C14.0122 13.5698 14.1326 13.4957 14.1606 13.5166L14.1606 13.5172ZM13.3093 13.5722L13.3861 13.5632C13.478 13.565 13.5304 13.6068 13.5461 13.6923C13.5479 13.7036 13.5455 13.721 13.538 13.7275C13.5281 13.7365 13.5065 13.7448 13.499 13.7395C13.4513 13.7072 13.4041 13.6732 13.3599 13.6361C13.3395 13.6188 13.3256 13.5937 13.3087 13.5722L13.3093 13.5722ZM13.3593 13.9988C13.414 13.9772 13.3436 13.9462 13.396 13.9743C13.446 14.0011 13.492 14.0376 13.5403 14.0687C13.6171 14.1176 13.7341 14.077 13.7847 14.1846C13.6933 14.2055 13.6148 14.1589 13.4646 14.1135C13.4763 14.1182 13.4204 14.1003 13.3704 14.071C13.357 14.0627 13.3541 14.0005 13.3593 13.9988ZM13.0108 14.6613C13.0183 14.6505 13.0271 14.635 13.0375 14.6332C13.0649 14.6272 13.094 14.6272 13.1376 14.6237C13.1615 14.6416 13.2005 14.6619 13.2249 14.6942C13.2377 14.7109 13.2267 14.7497 13.2197 14.7766C13.2173 14.7862 13.1958 14.7945 13.1819 14.7963C13.1202 14.8059 13.0713 14.779 13.0247 14.7407C12.9962 14.7169 12.9887 14.693 13.0108 14.6619L13.0108 14.6613ZM12.5633 15.8298C12.5592 15.8251 12.5622 15.8048 12.5668 15.8024C12.579 15.7958 12.5965 15.7898 12.6087 15.7934C12.6762 15.8161 12.7449 15.8382 12.8089 15.8693C12.8228 15.8764 12.8211 15.9189 12.8263 15.9451C12.8054 15.9595 12.7809 15.9894 12.7635 15.9858C12.6745 15.9667 12.6209 15.8944 12.5633 15.8298ZM12.1758 16.1483C12.1758 16.0903 12.177 16.0288 12.2316 15.9947C12.2491 15.984 12.2817 15.9947 12.3055 16.0019C12.3166 16.0049 12.323 16.0234 12.3358 16.0419C12.3015 16.0843 12.2671 16.1298 12.2299 16.1722C12.2218 16.1817 12.202 16.1889 12.1909 16.1853C12.1828 16.1823 12.1752 16.1614 12.1752 16.1489L12.1758 16.1483ZM16.8192 20.0727C16.8622 20.0566 16.907 20.0656 16.9292 20.1062C16.971 20.1832 16.9693 20.2926 16.935 20.3989C16.91 20.436 16.8797 20.464 16.8314 20.4473C16.7575 20.4216 16.7034 20.3649 16.7092 20.289C16.7156 20.2077 16.7191 20.1092 16.8192 20.0727ZM12.5302 16.7421C12.5907 16.7983 12.6011 16.8747 12.5505 16.9339C12.5366 16.95 12.4993 16.9446 12.4609 16.9506C12.4522 16.913 12.4306 16.8723 12.437 16.8365C12.444 16.7971 12.476 16.7624 12.4993 16.7272C12.4993 16.7272 12.522 16.7337 12.5302 16.7415L12.5302 16.7421ZM11.8802 16.6429C11.8773 16.6304 11.8802 16.6059 11.8878 16.6029C11.9523 16.576 12.0181 16.5521 12.0844 16.53C12.0897 16.5282 12.106 16.5467 12.1089 16.5575C12.1118 16.5695 12.1048 16.5838 12.1019 16.5987C12.0507 16.6621 11.9721 16.6501 11.904 16.668C11.8982 16.6698 11.8819 16.6531 11.8796 16.6429L11.8802 16.6429ZM13.0306 17.9172C13.0405 17.9119 13.0498 17.9017 13.0597 17.9017C13.1272 17.9017 13.197 17.8993 13.2272 17.9806C13.2313 17.9919 13.2261 18.0104 13.2191 18.0212C13.2121 18.0319 13.197 18.0379 13.1836 18.0475C13.1405 18.0164 13.0957 17.9859 13.0527 17.9531C13.0422 17.9453 13.0381 17.9298 13.0306 17.9172ZM16.3013 22.1553C16.2943 22.1936 16.2623 22.2509 16.2338 22.2563C16.0651 22.2874 15.9178 22.1977 15.8952 22.0227C15.8928 22.0054 15.9266 21.9653 15.9429 21.9653C16.0127 21.9671 16.0825 21.9797 16.1343 21.9863C16.1925 22.0078 16.242 22.0131 16.2693 22.0412C16.2937 22.0663 16.3077 22.1195 16.3007 22.1553L16.3013 22.1553ZM12.3853 18.0845C12.3899 18.072 12.4004 18.0606 12.4097 18.0499C12.4347 18.0206 12.4574 18.0206 12.4784 18.0493C12.5243 18.0845 12.5371 18.1646 12.4993 18.1908C12.4528 18.2231 12.394 18.2625 12.3469 18.2225C12.2805 18.1658 12.3678 18.1305 12.3853 18.0845ZM13.2534 19.1461C13.2075 19.1891 13.1563 19.2148 13.094 19.2011C13.0364 19.1885 12.9799 19.1712 12.9235 19.1563C12.8676 19.1378 12.8112 19.1204 12.7559 19.1001C12.7053 19.081 12.6448 18.9711 12.6733 18.9567C12.7082 18.9394 12.753 18.9227 12.7885 18.9305C12.9177 18.9591 13.0457 18.995 13.1725 19.0338C13.2662 19.0625 13.2947 19.1079 13.2534 19.1467L13.2534 19.1461ZM11.41 18.1508C11.4257 18.1329 11.4508 18.1048 11.4659 18.109C11.6213 18.149 11.7871 18.0606 11.9849 18.1825C11.9779 18.1777 12.0693 18.1664 12.0309 18.2566C11.9995 18.3294 12.0565 18.4418 11.9378 18.477C11.8947 18.4896 11.8569 18.4955 11.8173 18.4675C11.6876 18.3743 11.5567 18.2834 11.4275 18.1902C11.4176 18.1831 11.4065 18.1562 11.4106 18.152L11.41 18.1508ZM11.6282 18.8014C11.6061 18.7405 11.6207 18.6754 11.6858 18.6586C11.7603 18.6389 11.8441 18.5708 11.9163 18.6777C11.939 18.7118 11.9867 18.7255 12.0344 18.7052C12.0967 18.6783 12.1455 18.6963 12.1752 18.7596C12.1996 18.8134 12.2247 18.8671 12.245 18.9227C12.2701 18.9896 12.2287 19.127 12.1892 19.1168C12.1246 19.1001 12.1129 19.0422 12.1001 18.9842C12.0879 18.9299 12.067 18.8779 12.0518 18.8325C12.0024 18.8313 11.9733 18.8223 11.9494 18.8307C11.8819 18.8546 11.8191 18.8994 11.7504 18.9095C11.6888 18.9185 11.6486 18.8576 11.6277 18.8014L11.6282 18.8014ZM12.4731 19.6318C12.4987 19.6014 12.5197 19.5512 12.5505 19.5434C12.6186 19.5267 12.6919 19.5285 12.7635 19.5285C12.7891 19.5285 12.8345 19.5404 12.8368 19.5536C12.8653 19.6993 13.041 19.7173 13.0771 19.8535C13.0806 19.8678 13.0812 19.8827 13.0835 19.8977C13.0597 19.9066 13.0346 19.9252 13.0114 19.9228C12.9084 19.912 12.8071 19.8875 12.7565 19.7806C12.7088 19.6784 12.6203 19.6928 12.536 19.6826C12.5133 19.6796 12.4941 19.6497 12.4731 19.6318ZM11.0533 18.8713C11.0615 18.8504 11.1325 18.848 11.1744 18.8492C11.2995 18.8528 11.3961 18.9167 11.4973 19.0535C11.3786 19.0314 11.2419 19.0888 11.147 18.9651C11.1191 18.9281 11.0196 18.9579 11.0533 18.8713ZM11.5142 19.4538C11.4793 19.3236 11.4694 19.1927 11.5107 19.0619C11.6917 19.0481 11.7702 19.2339 11.9168 19.2871C11.9267 19.2907 11.932 19.3092 11.9395 19.3206C11.9256 19.3242 11.911 19.3301 11.8971 19.3313C11.8825 19.3325 11.868 19.3301 11.8534 19.3271C11.7295 19.2991 11.6189 19.2949 11.5718 19.4532C11.559 19.4956 11.5247 19.4944 11.5142 19.4544L11.5142 19.4538ZM16.8174 26.9873C16.7802 27.0076 16.7552 27.0022 16.7587 26.9628C16.772 26.8092 16.6277 26.7399 16.5888 26.6163C16.5771 26.5792 16.5835 26.5314 16.5946 26.4926C16.5986 26.4789 16.6411 26.4771 16.6661 26.4699C16.6795 26.4753 16.7022 26.4783 16.7045 26.4866C16.7488 26.6461 16.8058 26.7931 16.9827 26.8463C17.0077 26.854 17.0054 26.8923 16.9728 26.9114C16.9239 26.9413 16.8686 26.9598 16.818 26.9873L16.8174 26.9873ZM13.6846 24.0593C13.6759 24.0497 13.6718 24.0193 13.6747 24.0181C13.6974 24.0073 13.7218 24.0008 13.7568 23.9894C13.7818 24.0175 13.8114 24.0474 13.8371 24.0808C13.8452 24.091 13.8487 24.1202 13.844 24.1226C13.8231 24.1346 13.7905 24.1549 13.7765 24.1465C13.741 24.125 13.7125 24.091 13.684 24.0593L13.6846 24.0593ZM19.2334 28.4712C19.2142 28.5352 19.1688 28.5071 19.1339 28.5065C18.9768 28.5035 18.8197 28.4963 18.6765 28.4916L18.6009 28.4246C18.6143 28.4187 18.6271 28.4073 18.6405 28.4067C18.797 28.399 18.9541 28.3924 19.1112 28.3864C19.1787 28.384 19.2439 28.436 19.2334 28.4712ZM14.9089 24.6024C14.9025 24.6113 14.8978 24.6251 14.8897 24.6286C14.8105 24.6609 14.7302 24.689 14.6517 24.7224C14.6051 24.7422 14.5731 24.7272 14.5446 24.6908C14.5068 24.6424 14.487 24.5862 14.5184 24.5301C14.5475 24.4781 14.5999 24.4327 14.6581 24.4518C14.7366 24.4781 14.8088 24.5265 14.8827 24.5671C14.8943 24.5737 14.9001 24.5898 14.9089 24.6012L14.9089 24.6024ZM13.0986 23.3281C13.1376 23.2695 13.1906 23.2797 13.2447 23.2958C13.2953 23.3054 13.3139 23.3388 13.3058 23.3866C13.2965 23.4422 13.2371 23.4702 13.1755 23.4523C13.1138 23.4344 13.0725 23.3675 13.0986 23.3281ZM12.2869 22.3292C12.2759 22.3525 12.2433 22.3656 12.2183 22.3806C12.206 22.3877 12.1903 22.3925 12.1769 22.3913C12.1193 22.3871 12.0617 22.38 12.0065 22.374C11.9494 22.3489 11.8953 22.3268 11.8435 22.3017C11.8325 22.2963 11.8179 22.2784 11.8197 22.2688C11.8237 22.2414 11.8272 22.2037 11.8453 22.1906C11.989 22.0872 12.117 22.1057 12.2741 22.2515C12.2898 22.2658 12.2968 22.3095 12.2875 22.3286L12.2869 22.3292ZM17.7432 26.4149C17.6036 26.4113 17.5599 26.5559 17.4534 26.5965C17.4435 26.6001 17.4261 26.6019 17.4203 26.5965C17.4115 26.5876 17.4022 26.5691 17.4057 26.5583C17.4139 26.5314 17.4278 26.5063 17.44 26.4806C17.5116 26.3289 17.5611 26.3074 17.7007 26.3713C17.7164 26.3785 17.7269 26.3982 17.7432 26.4155L17.7432 26.4149ZM15.0427 24.4966C14.9857 24.4703 14.9484 24.3556 14.9839 24.3246C15.0136 24.2983 15.0561 24.2714 15.0927 24.2714C15.1358 24.2714 15.1696 24.4022 15.1474 24.4536C15.1218 24.4978 15.0817 24.5145 15.0427 24.4972L15.0427 24.4966ZM16.7435 25.3461C16.7784 25.4256 16.793 25.5164 16.8087 25.6036C16.8151 25.6365 16.8739 25.6843 16.7976 25.7082C16.7424 25.7255 16.658 25.7679 16.6347 25.7458C16.562 25.6771 16.4584 25.6353 16.4218 25.5284C16.409 25.4907 16.4154 25.4614 16.4532 25.4603C16.5789 25.4567 16.5934 25.385 16.5643 25.2822C16.555 25.2488 16.5707 25.2344 16.637 25.2422C16.6632 25.2667 16.722 25.2978 16.7435 25.3461ZM19.1193 26.7369C19.1339 26.7686 19.1246 26.7925 19.0908 26.8074C19.0257 26.8361 18.9611 26.8666 18.8942 26.8911C18.8104 26.9215 18.719 26.8959 18.7155 26.8427C18.7114 26.7782 18.7417 26.7292 18.7987 26.7041C18.8639 26.6754 18.9302 26.6503 18.9983 26.6294C19.0356 26.6181 19.1141 26.6921 19.1193 26.7375L19.1193 26.7369ZM18.2657 25.8522C18.2791 25.8504 18.296 25.8557 18.3082 25.8635C18.3408 25.8838 18.3425 25.9059 18.3233 25.9304C18.2779 25.9884 18.2361 26.0499 18.1889 26.1067C18.1488 26.1551 18.0621 26.167 18.0306 26.1341C18.0208 26.1234 18.0033 26.1085 18.005 26.1001C18.012 26.0708 18.026 26.0439 18.0382 26.0141C18.0062 25.9221 18.0417 25.8814 18.136 25.8778C18.179 25.8761 18.2221 25.8593 18.2651 25.8528L18.2657 25.8522ZM17.3341 25.3886C17.3836 25.3742 17.376 25.4268 17.3696 25.3635C17.3539 25.3479 17.3376 25.3294 17.3184 25.3139C17.2853 25.2864 17.2457 25.2655 17.2201 25.232C17.2096 25.2183 17.2259 25.1795 17.2358 25.1544C17.2399 25.1436 17.2608 25.1293 17.2701 25.1317C17.3755 25.1574 17.4389 25.241 17.5029 25.3205C17.5157 25.336 17.5087 25.3826 17.4947 25.4035C17.4464 25.4776 17.3917 25.5469 17.3382 25.6174C17.3097 25.655 17.28 25.649 17.2818 25.603C17.2847 25.5307 17.1811 25.4328 17.3336 25.3892L17.3341 25.3886ZM15.425 23.9559C15.4494 24.0133 15.4157 24.0336 15.3156 24.0235C15.2592 24.0181 15.1556 23.9996 15.1538 24.0067C15.1323 24.0981 15.1166 24.1621 14.9938 24.1196C14.9182 24.0934 14.828 24.1131 14.7355 24.1119C14.7203 24.0736 14.686 24.0312 14.6918 23.9954C14.7052 23.9177 14.8134 23.8263 14.8745 23.8311C14.9461 23.8359 15.02 23.8424 15.0881 23.8633C15.1579 23.8849 15.2272 23.9189 15.2976 23.8902C15.372 23.8604 15.4017 23.9004 15.425 23.9559ZM15.6851 23.487C15.6502 23.5784 15.6083 23.6106 15.5251 23.5945C15.4966 23.5891 15.4681 23.5832 15.4395 23.5778C15.4122 23.5676 15.3843 23.5581 15.3569 23.5485C15.2155 23.4983 15.2196 23.487 15.2551 23.2898C15.2661 23.2271 15.2516 23.1721 15.3331 23.1829C15.4192 23.1942 15.507 23.2086 15.5891 23.2361C15.6886 23.2695 15.7392 23.3448 15.6851 23.487ZM11.676 20.0841C11.6783 20.1265 11.676 20.1791 11.6242 20.1922C11.5817 20.203 11.5404 20.185 11.5212 20.1402C11.4996 20.0894 11.4828 20.0369 11.4636 19.9849C11.488 19.9789 11.5124 19.9712 11.5369 19.97C11.6375 19.964 11.6713 19.9921 11.676 20.0841ZM11.3629 19.8726C11.4275 19.8774 11.4577 19.9162 11.4537 19.9819C11.4153 19.9915 11.3769 20.0064 11.3385 20.0046C11.3012 20.0034 11.264 19.9825 11.2279 19.9664C11.2227 19.964 11.2221 19.9407 11.225 19.9287C11.2465 19.8493 11.3094 19.8684 11.3629 19.872L11.3629 19.8726ZM10.8398 19.6856C10.8444 19.6551 10.8997 19.633 10.9218 19.6157C10.9666 19.6037 10.9853 19.6205 10.9806 19.6605C10.9771 19.6898 10.9678 19.7196 10.9533 19.7447C10.9416 19.765 10.9178 19.7782 10.8991 19.7943C10.877 19.7579 10.834 19.7179 10.8392 19.6856L10.8398 19.6856ZM12.4952 21.1445C12.5278 21.1397 12.5942 21.1756 12.5982 21.2006C12.6151 21.301 12.6651 21.4014 12.625 21.5065C12.6145 21.5179 12.6064 21.531 12.5947 21.5388C12.5866 21.5442 12.5662 21.546 12.5651 21.5436C12.5435 21.4892 12.529 21.4307 12.5022 21.3793C12.458 21.2932 12.408 21.2694 12.3259 21.3165C12.2602 21.3542 12.2049 21.39 12.1252 21.3703C12.0053 21.3404 11.9192 21.2634 11.8424 21.1726C11.7935 21.1146 11.8348 20.9784 11.9087 20.942C12.0734 20.8607 12.1857 20.8876 12.3154 21.062C12.3666 21.1308 12.412 21.1564 12.4941 21.1445L12.4952 21.1445ZM11.115 20.0536C11.243 20.139 11.2465 20.3201 11.392 20.3774C11.3943 20.378 11.3937 20.4013 11.3891 20.4049C11.3774 20.4127 11.36 20.421 11.3484 20.4174C11.2262 20.381 11.0871 20.3905 10.9986 20.2663C10.9445 20.1904 10.852 20.2006 10.7752 20.1737C10.8567 19.964 10.9503 19.9449 11.1144 20.0542L11.115 20.0536ZM10.1799 20.7042C10.1846 20.6749 10.1875 20.645 10.1957 20.6164C10.2108 20.5602 10.2888 20.5214 10.3336 20.5489C10.358 20.5638 10.3813 20.5835 10.3999 20.605C10.5512 20.7825 10.7223 20.6678 10.8869 20.6409C10.8829 20.6152 10.8846 20.5871 10.8741 20.565C10.8468 20.507 10.7967 20.4658 10.7351 20.4754C10.6001 20.4969 10.4732 20.4754 10.3475 20.4288C10.2858 20.4055 10.2725 20.2884 10.3173 20.2358C10.376 20.1677 10.4808 20.1952 10.5331 20.1014C10.5884 20.0016 10.6513 20.0757 10.7036 20.1271C10.7234 20.1462 10.7461 20.1617 10.7676 20.1791C10.7857 20.2866 10.8898 20.3308 10.9393 20.4174C10.9858 20.4981 11.0103 20.5746 11.0225 20.666C11.0289 20.7138 11.097 20.7962 11.1238 20.7914C11.3146 20.7544 11.3449 20.8918 11.3856 21.022C11.3903 21.0364 11.3961 21.0501 11.4007 21.0644C11.424 21.1379 11.3937 21.1815 11.321 21.1714C11.264 21.1636 11.2075 21.1457 11.1505 21.1355C11.1377 21.1331 11.1115 21.1439 11.1109 21.1499C11.1092 21.1768 11.1121 21.2054 11.1179 21.2317C11.1208 21.2455 11.1319 21.258 11.1418 21.2694C11.2029 21.3416 11.3751 21.3327 11.3286 21.4749C11.2942 21.5806 11.1558 21.5651 11.0615 21.5967C10.9998 21.6176 10.9143 21.5561 10.9189 21.4898C10.9247 21.402 10.9428 21.3142 10.9562 21.2269C10.9655 21.1672 10.9736 21.1063 10.9346 21.0537C10.909 21.0196 10.8776 20.979 10.8363 21.0304C10.7834 21.0961 10.724 21.1343 10.6559 21.0638C10.5768 20.9814 10.4889 20.9653 10.3789 20.9635C10.2067 20.9605 10.1532 20.8774 10.1794 20.7054L10.1799 20.7042ZM10.4034 21.4581C10.2864 21.4133 10.2457 21.2359 10.0851 21.261L10.0688 21.1481C10.0979 21.1104 10.0956 21.0459 10.1607 21.0949C10.2416 21.1564 10.3295 21.2072 10.4098 21.2688C10.4744 21.3183 10.5413 21.3148 10.6146 21.3034C10.6734 21.2944 10.7333 21.3004 10.7269 21.3882C10.7217 21.4617 10.66 21.4952 10.61 21.4988C10.5419 21.5035 10.4686 21.4826 10.4028 21.4575L10.4034 21.4581ZM11.1738 22.2975C11.2233 22.175 11.271 22.0448 11.4124 21.997C11.4257 21.9928 11.4403 21.9922 11.4543 21.9898C11.474 22.0107 11.5008 22.0287 11.5113 22.0538C11.5392 22.1201 11.4886 22.1613 11.4577 22.2109C11.4339 22.2491 11.4287 22.3107 11.4775 22.3214C11.6044 22.3477 11.669 22.4552 11.7586 22.5281C11.8005 22.5622 11.7813 22.6135 11.7539 22.6482C11.7173 22.6942 11.669 22.7402 11.6061 22.6978C11.474 22.6088 11.3425 22.5174 11.2174 22.4182C11.1883 22.3955 11.1616 22.328 11.1738 22.2981L11.1738 22.2975ZM14.558 25.2386C14.5865 25.2398 14.615 25.2488 14.6435 25.2547C14.6575 25.2595 14.6738 25.2607 14.6843 25.2691C14.7058 25.287 14.7244 25.3085 14.7442 25.3288C14.7169 25.3348 14.6878 25.3503 14.6627 25.3444C14.6214 25.3348 14.5813 25.3139 14.5429 25.2942C14.5178 25.2816 14.4963 25.2631 14.473 25.247C14.501 25.244 14.5295 25.2374 14.5574 25.2386L14.558 25.2386ZM14.9217 25.6813C14.9124 25.6735 14.9129 25.6538 14.9095 25.6401C14.9234 25.6371 14.9391 25.6281 14.9513 25.6317C15.0194 25.6508 15.0881 25.6693 15.1527 25.6968C15.1696 25.704 15.173 25.744 15.1829 25.7685C15.1643 25.7864 15.1457 25.8199 15.1277 25.8193C15.0334 25.8181 14.9851 25.7363 14.9223 25.6813L14.9217 25.6813ZM11.3216 23.1847C11.335 23.1799 11.3501 23.1685 11.3623 23.1709C11.4321 23.1835 11.502 23.1984 11.5712 23.2157C11.5823 23.2187 11.5962 23.2486 11.5962 23.2486C11.5823 23.2641 11.5631 23.2886 11.5479 23.2868C11.5055 23.2827 11.4641 23.2665 11.4112 23.2528C11.3961 23.245 11.3699 23.2343 11.3466 23.2187C11.3356 23.2116 11.3297 23.1966 11.3216 23.1847ZM13.1958 24.7947C13.1923 24.7816 13.1952 24.7643 13.2005 24.7511C13.2488 24.637 13.3942 24.5982 13.4862 24.677C13.5042 24.6926 13.5065 24.7278 13.5164 24.7541C13.5089 24.8246 13.442 24.8897 13.3721 24.8945C13.3075 24.8987 13.2098 24.8449 13.1958 24.7947ZM17.7211 32.0755C17.6559 32.0576 17.5907 32.0414 17.5262 32.0211C17.4924 32.0104 17.4418 32.0008 17.4575 31.9524C17.4616 31.9405 17.5372 31.9446 17.5768 31.9542C17.6425 31.9709 17.7089 31.993 17.7211 32.0755ZM11.5602 24.8515C11.5415 24.8843 11.4944 24.8999 11.4671 24.9184C11.3949 24.9047 11.346 24.8252 11.3606 24.7523C11.3705 24.7027 11.406 24.6806 11.4543 24.6956C11.5276 24.7183 11.5887 24.8025 11.5602 24.8515ZM12.81 24.5964C12.8176 24.6239 12.8327 24.6519 12.831 24.6794C12.8292 24.7075 12.8193 24.7463 12.799 24.7607C12.7065 24.8282 12.6104 24.8921 12.5115 24.9495C12.4935 24.9602 12.4563 24.9369 12.4272 24.9291L12.362 24.8772C12.3888 24.8688 12.4167 24.8634 12.4417 24.8509C12.4638 24.8401 12.4923 24.8252 12.4993 24.8055C12.508 24.7798 12.4964 24.7218 12.4964 24.7218C12.6116 24.7081 12.7274 24.6973 12.8095 24.5964L12.81 24.5964ZM10.7863 23.2193C10.7909 23.2128 10.8119 23.2181 10.8276 23.2175C10.909 23.2731 10.8974 23.3699 10.9201 23.4517C10.9201 23.4517 10.8724 23.481 10.8549 23.4744C10.7903 23.4487 10.7461 23.2773 10.7863 23.2193ZM9.44328 22.5395C9.44852 22.5138 9.45492 22.4887 9.46132 22.463C9.48576 22.4684 9.51136 22.472 9.53348 22.4833C9.57828 22.5066 9.59574 22.5472 9.56839 22.5926C9.55617 22.6124 9.52533 22.6297 9.50264 22.6303C9.44561 22.6309 9.43397 22.5902 9.44387 22.5401L9.44328 22.5395ZM9.66614 22.8447C9.66265 22.8334 9.72899 22.7952 9.76623 22.7754C9.78659 22.7647 9.81103 22.7605 9.83431 22.7557C9.80696 22.8322 9.80347 22.9009 9.88435 22.9577C9.90995 22.9756 9.92159 23.015 9.9373 23.0479C9.87329 23.0323 9.80463 23.0252 9.75168 22.9917C9.70862 22.9642 9.68302 22.8985 9.66614 22.8447ZM9.99607 23.6411C10.0124 23.5384 9.99316 23.444 9.96465 23.349C9.90995 23.343 9.85176 23.3227 9.80347 23.337C9.7319 23.3585 9.66964 23.3824 9.60097 23.3328C9.51485 23.2713 9.4491 23.1978 9.42757 23.0891C9.42001 23.0503 9.43397 23.027 9.47296 23.0353C9.59923 23.0616 9.72433 23.0981 9.85176 23.1172C9.87911 23.1214 9.91286 23.0849 9.94428 23.061C10.0391 23.0724 10.1078 23.0055 10.1887 22.9762C10.2818 22.9421 10.3301 22.969 10.3935 23.0765C10.4232 23.1267 10.4569 23.1745 10.4907 23.2223C10.5093 23.2492 10.4953 23.2558 10.461 23.2773C10.4168 23.3048 10.3004 23.5001 10.3091 23.5252C10.3475 23.6399 10.3062 23.6949 10.1933 23.7068C10.1648 23.7098 10.138 23.7271 10.1095 23.7331C10.0444 23.7474 9.98559 23.7086 9.99665 23.6411L9.99607 23.6411ZM9.66091 23.9201C9.61552 23.8442 9.57421 23.7731 9.55268 23.6883C9.54977 23.6764 9.54977 23.6584 9.55617 23.6501C9.5649 23.6399 9.58933 23.6286 9.59399 23.6327C9.71793 23.7463 9.88202 23.7642 10.0257 23.8305C10.081 23.8556 10.1252 24.0515 10.0834 24.1095C10.0513 24.1543 10.0025 24.1925 9.9373 24.1776C9.90821 24.0276 9.73248 24.0402 9.66091 23.9201ZM9.74528 24.3974C9.76157 24.3616 9.75401 24.315 9.75866 24.2732C9.77205 24.1603 9.77321 24.1591 9.93439 24.1836C9.94312 24.3706 9.96348 24.3933 10.1183 24.4076C10.1823 24.4136 10.241 24.4022 10.2527 24.3299C10.2672 24.2421 10.2626 24.1507 10.2754 24.0623C10.2812 24.0223 10.301 23.9589 10.3272 23.9512C10.447 23.9147 10.4831 23.8514 10.4662 23.72C10.4575 23.6543 10.6134 23.5963 10.6804 23.6333C10.731 23.6614 10.7717 23.7092 10.8223 23.7379C10.937 23.8042 11.0388 23.7259 11.0347 23.579C11.0301 23.4063 11.0469 23.3926 11.2331 23.3657C11.2971 23.3561 11.3105 23.389 11.2989 23.432C11.2715 23.533 11.2913 23.6017 11.3856 23.6566C11.4479 23.6931 11.502 23.7486 11.5479 23.806C11.5765 23.8412 11.5648 23.9004 11.5252 23.9237C11.4769 23.9524 11.4193 23.9715 11.3635 23.9787C11.2977 23.987 11.2494 24.0127 11.2372 24.079C11.2297 24.1202 11.2419 24.1656 11.2454 24.2093C11.2727 24.2021 11.3006 24.1973 11.3274 24.1883C11.3548 24.1788 11.3809 24.165 11.4083 24.1537C11.4449 24.1382 11.4676 24.1501 11.474 24.1889C11.4839 24.2481 11.4938 24.3072 11.502 24.3664C11.502 24.3664 11.4787 24.3777 11.4676 24.3753C11.3809 24.361 11.2884 24.3586 11.2087 24.3252C11.0836 24.2726 10.9771 24.3341 10.8648 24.3586C10.8177 24.3688 10.7787 24.4166 10.7362 24.447C10.7234 24.3891 10.7077 24.3317 10.6996 24.2738C10.6914 24.217 10.6908 24.1585 10.6868 24.1011C10.5238 24.0868 10.5157 24.0874 10.5157 24.2003C10.5157 24.2905 10.5413 24.3753 10.4185 24.4094C10.3126 24.4387 10.404 24.5331 10.3789 24.597C10.3464 24.6782 10.326 24.6848 10.2393 24.6639C10.0746 24.6245 9.95708 24.459 9.76564 24.4865C9.71444 24.4942 9.72259 24.4417 9.74353 24.3962L9.74528 24.3974ZM10.0077 25.5917C10.0345 25.5296 10.0543 25.4758 10.0031 25.4328C9.8506 25.3037 9.99432 25.2356 10.0496 25.1484C9.98792 25.0922 9.9245 25.0385 9.86747 24.9775C9.85351 24.9626 9.85991 24.9232 9.86398 24.8957C9.86573 24.8843 9.89191 24.8652 9.89424 24.867C9.98327 24.9357 10.0537 24.8706 10.1357 24.8443C10.2166 24.8186 10.3074 24.8282 10.3935 24.8192C10.4802 24.8097 10.5814 24.7619 10.6501 24.7923C10.7572 24.8395 10.8072 24.965 10.8596 25.0743C10.9038 25.1657 10.8543 25.2273 10.7327 25.2296C10.7042 25.2296 10.6751 25.2231 10.646 25.2231C10.6053 25.2231 10.5902 25.2434 10.6036 25.2786C10.6408 25.3778 10.6385 25.4543 10.5081 25.4632C10.4953 25.4638 10.4726 25.4806 10.4732 25.4847C10.479 25.5069 10.486 25.5409 10.5011 25.5463C10.5832 25.5773 10.6693 25.5995 10.7513 25.6305C10.77 25.6377 10.7927 25.6747 10.7886 25.692C10.7828 25.7177 10.7589 25.747 10.7356 25.7596C10.5785 25.842 10.4156 25.8826 10.2393 25.8205C10.1997 25.8068 10.1514 25.8217 10.1084 25.8151C9.9949 25.7972 9.95243 25.7165 10.0071 25.5911L10.0077 25.5917ZM3.25035 24.9447C3.24278 24.8915 3.20438 24.8264 3.25849 24.7882C3.2841 24.7702 3.34112 24.7899 3.38011 24.8043C3.40106 24.8121 3.41328 24.8437 3.42957 24.864C3.41851 24.9339 3.36091 24.9524 3.31028 24.9793C3.28119 24.9949 3.25559 24.9829 3.25035 24.9447ZM3.03505 25.5045C2.98559 25.3665 3.05367 25.186 2.92449 25.0851C2.81219 24.9978 2.67196 24.9489 2.54395 24.8825C2.52067 24.8706 2.49623 24.861 2.47587 24.8455C2.47005 24.8413 2.4747 24.818 2.47936 24.8055C2.48401 24.7923 2.49274 24.7714 2.50147 24.7708C2.68011 24.7559 2.8506 24.7917 3.00189 24.8873C3.04262 24.913 3.05717 24.9889 3.07346 25.045C3.12408 25.2147 3.16481 25.3874 3.21834 25.5552C3.25791 25.6807 3.2841 25.6962 3.44761 25.6813C3.54478 25.6723 3.62042 25.6879 3.67512 25.7733C3.71527 25.836 3.75775 25.897 3.7915 25.9633C3.80081 25.9812 3.78917 26.0314 3.77404 26.0386C3.72051 26.063 3.78626 26.0863 3.73563 26.0547C3.69839 26.0314 3.66697 25.9985 3.63323 25.9698C3.47845 25.9567 3.41211 25.7823 3.25617 25.759C3.12583 25.7392 3.07695 25.6227 3.03447 25.5051L3.03505 25.5045ZM2.95184 26.5458C2.94079 26.5093 2.95825 26.4902 2.99316 26.4771C3.07171 26.4484 3.16889 26.5111 3.2358 26.4173C3.27188 26.3665 3.33239 26.3402 3.37953 26.4006C3.39058 26.4149 3.3353 26.4729 3.33938 26.5075C3.34578 26.5649 3.37487 26.6198 3.39582 26.6754C3.41095 26.7154 3.39931 26.7435 3.36091 26.7363C3.2905 26.7238 3.22242 26.7011 3.15318 26.6826L3.15492 26.6766C3.09906 26.6587 3.04087 26.6461 2.9885 26.6204C2.9693 26.6109 2.96057 26.5726 2.95243 26.5452L2.95184 26.5458ZM4.06789 28.5262C3.95908 28.4975 3.84852 28.4724 3.74204 28.436C3.7048 28.4235 3.67396 28.3816 3.64894 28.347C3.63381 28.3267 3.63497 28.2932 3.63206 28.2651C3.63206 28.2651 3.65883 28.255 3.67337 28.2556C3.86132 28.261 4.00155 28.3386 4.06847 28.5262L4.06789 28.5262ZM2.90006 27.2358C2.90122 27.1981 2.97861 27.1557 3.02865 27.1288C3.15259 27.0613 3.2486 27.0805 3.33996 27.1808C3.38302 27.228 3.39349 27.2842 3.37953 27.3463C3.3708 27.4049 3.30039 27.4515 3.26722 27.415C3.20089 27.3427 3.12059 27.323 3.03214 27.3164C2.97279 27.3123 2.89773 27.2919 2.89948 27.2364L2.90006 27.2358ZM3.22998 27.6313C3.23289 27.6134 3.27246 27.6014 3.29108 27.5889C3.35683 27.6014 3.42026 27.6217 3.43946 27.6821C3.46913 27.7758 3.50754 27.8469 3.61344 27.8565C3.62392 27.8577 3.63264 27.878 3.64195 27.89C3.62275 27.9013 3.59773 27.9276 3.58551 27.9222C3.48135 27.8774 3.49939 28.0949 3.38883 28.0184C3.25617 27.9258 3.2038 27.7932 3.2294 27.6313L3.22998 27.6313ZM2.92333 27.7997C2.91519 27.7579 2.9181 27.7113 2.92741 27.6695C2.9309 27.6528 2.96348 27.6426 2.9821 27.6301C3.03854 27.6582 3.05949 27.7675 3.02051 27.8242C3.01352 27.8344 2.99316 27.8463 2.98559 27.8428C2.96232 27.8326 2.92741 27.8177 2.92391 27.7997L2.92333 27.7997ZM4.15575 28.8201C4.19765 28.7658 4.15168 28.7425 4.11968 28.7204C4.04869 28.6708 4.05218 28.6093 4.0772 28.5411C4.16332 28.6314 4.25118 28.7198 4.33381 28.813C4.34719 28.8279 4.34195 28.8691 4.33264 28.893C4.31519 28.9372 4.27678 28.9575 4.23081 28.9414C4.17554 28.9223 4.06847 28.9319 4.15575 28.8195L4.15575 28.8201ZM3.66756 29.1087C3.66697 29.0961 3.67337 29.0812 3.68094 29.0705C3.73505 28.9934 3.80081 29.0292 3.86423 29.0525C3.87587 29.0567 3.88576 29.0711 3.89216 29.083C3.89449 29.0872 3.88518 29.1045 3.87878 29.1063C3.81477 29.123 3.7496 29.1374 3.68618 29.1523C3.67803 29.135 3.66814 29.1224 3.66756 29.1093L3.66756 29.1087ZM2.9821 28.8237C3.12874 28.7712 3.21311 28.8154 3.21485 28.9498C3.21544 28.9952 3.16365 29.0334 3.12815 29.0089C3.07113 28.9695 3.01643 28.9259 2.9629 28.8811C2.93031 28.8536 2.94079 28.8381 2.98152 28.8237L2.9821 28.8237ZM3.24744 29.3877C3.26024 29.3811 3.27304 29.368 3.28584 29.3686C3.32657 29.371 3.36731 29.3781 3.40804 29.3829L3.40455 29.3996C3.45982 29.4146 3.51568 29.4259 3.56922 29.4456C3.589 29.4528 3.60239 29.4791 3.61868 29.4964C3.60471 29.5 3.59016 29.5084 3.57736 29.5066C3.47961 29.4904 3.38185 29.4749 3.28526 29.4522C3.26839 29.448 3.25966 29.4104 3.24686 29.3883L3.24744 29.3877ZM3.21485 29.8925C3.2166 29.8758 3.25849 29.8465 3.27304 29.8513C3.36963 29.8829 3.44761 29.9427 3.47786 30.0466C3.48194 30.061 3.44702 30.0879 3.43015 30.1088C3.32774 30.0986 3.20438 29.9791 3.21427 29.8925L3.21485 29.8925Z" fill="#FF6200"/>
<path d="M10.2015 21.997C10.223 21.9182 10.1782 21.8196 10.1008 21.7897C10.0804 21.7819 10.0426 21.7945 10.0269 21.8112C9.99896 21.8405 9.96987 21.8835 10.0094 21.9229C10.049 21.9624 10.0956 21.9958 10.1433 22.0251C10.1537 22.0317 10.1817 22.0078 10.2015 21.9976L10.2015 21.997Z" fill="#FF6200"/>
<path d="M9.29315 22.1637C9.28617 22.1744 9.30886 22.2061 9.31817 22.2294C9.39789 22.2497 9.44677 22.1953 9.49681 22.1481C9.50088 22.144 9.48226 22.0974 9.46655 22.0908C9.38858 22.0585 9.33388 22.1021 9.29315 22.1643L9.29315 22.1637Z" fill="#FF6200"/>
<path d="M11.1563 23.9966C11.1203 23.9291 11.0725 23.907 11.0167 23.9082C10.9818 23.9094 10.9259 23.9052 10.9515 23.9709C10.9661 24.0085 11.0016 24.0731 11.0155 24.0695C11.0656 24.0575 11.1104 24.0223 11.1569 23.996L11.1563 23.9966Z" fill="#FF6200"/>
<path d="M10.6873 24.097C10.6873 24.0983 10.6873 24.1004 10.6873 24.1017C10.6886 24.1017 10.69 24.1017 10.6914 24.1017C10.69 24.0997 10.6886 24.0983 10.6873 24.0963L10.6873 24.097Z" fill="#FF6200"/>
<path d="M10.7851 23.9918C10.7729 23.9273 10.6867 23.8944 10.6123 23.907C10.575 23.9135 10.5698 23.9303 10.5954 23.9655C10.6268 24.0091 10.6571 24.0533 10.6879 24.0969C10.7577 24.0981 10.7967 24.0539 10.7851 23.9912L10.7851 23.9918Z" fill="#FF6200"/>
<path d="M10.0618 25.1544C10.0589 25.1508 10.056 25.1466 10.0531 25.143C10.0519 25.1448 10.0508 25.1466 10.0496 25.1484C10.0525 25.1514 10.056 25.1544 10.0595 25.1574C10.0607 25.1562 10.0612 25.1556 10.0618 25.1544Z" fill="#FF6200"/>
<path d="M10.2835 25.3438C10.308 25.3336 10.3481 25.299 10.3446 25.2912C10.3086 25.2058 10.2667 25.1227 10.2213 25.0421C10.2184 25.0373 10.1677 25.0522 10.1468 25.0684C10.1154 25.0923 10.0898 25.1251 10.0613 25.1544C10.1101 25.2177 10.1573 25.2828 10.2102 25.3426C10.2219 25.3557 10.2614 25.3527 10.283 25.3438L10.2835 25.3438Z" fill="#FF6200"/>
<path d="M9.97455 23.3388C9.97048 23.3382 9.96582 23.3376 9.96175 23.3364C9.96291 23.3406 9.96349 23.3442 9.96466 23.3484C9.9664 23.3484 9.96757 23.349 9.96931 23.349C9.97106 23.3448 9.9728 23.3424 9.97455 23.3382L9.97455 23.3388Z" fill="#FF6200"/>
<path d="M10.2178 23.3125C10.2224 23.2904 10.2125 23.254 10.1957 23.239C10.102 23.1566 10.0362 23.1889 9.97398 23.3394C10.0386 23.3502 10.1026 23.3639 10.1677 23.3675C10.184 23.3687 10.2131 23.3346 10.2178 23.3125Z" fill="#FF6200"/>
</g>
<defs>
<clipPath id="clip0_97_1484">
<rect width="21" height="37" fill="white" transform="translate(21 37) rotate(-180)"/>
</clipPath>
</defs>
</svg>
