<svg width="28" height="51" viewBox="0 0 28 51" fill="none" xmlns="http://www.w3.org/2000/svg">
<g clip-path="url(#clip0_97_1312)">
<path d="M7.22839 37.6983C7.10658 37.6342 7.0773 37.5424 7.13959 37.4163C7.15679 37.3814 7.09775 37.3301 7.06288 37.3537C6.9527 37.429 6.87878 37.3748 6.80626 37.2962C6.73606 37.22 6.66539 37.1442 6.59519 37.0679C6.56033 37.0298 6.50779 36.9959 6.49571 36.9512C6.46595 36.8429 6.40877 36.7704 6.30417 36.7351C6.23164 36.7106 6.18794 36.6551 6.1461 36.5934C6.06567 36.4757 5.98804 36.3552 5.86158 36.2775C5.81881 36.2516 5.77976 36.2093 5.75559 36.1655C5.67888 36.0257 5.56265 35.9221 5.45247 35.8148C5.23583 35.6034 5.07823 35.345 4.88715 35.1133C4.80905 34.8742 4.5752 34.7278 4.51663 34.4769C4.41435 34.3719 4.36553 34.233 4.28929 34.1125C3.88343 33.4737 3.55475 32.7939 3.24001 32.1071C2.87274 31.3059 2.55196 30.4854 2.25907 29.6535C2.13773 29.4464 2.0945 29.2092 2.00989 28.9879C1.92853 28.7747 1.85368 28.559 1.77325 28.3453C1.72537 28.2192 1.67562 28.0939 1.6203 27.9711C1.53987 27.7927 1.44038 27.6284 1.41156 27.4231C1.38645 27.2419 1.29208 27.071 1.22978 26.8949C1.15726 26.6897 1.08055 26.4859 1.01732 26.2778C0.94201 26.0306 0.871811 25.7811 0.811374 25.5298C0.731876 25.1979 0.638431 24.8693 0.582178 24.5313C0.546381 24.3166 0.484549 24.1071 0.471067 23.8878C0.464093 23.7748 0.43248 23.6637 0.414349 23.5512C0.356236 23.1939 0.298124 22.8366 0.241406 22.4793C0.233038 22.428 0.228389 22.3762 0.226064 22.3244C0.217696 22.1479 0.227924 21.9699 0.165163 21.7995C0.158189 21.7807 0.160049 21.7585 0.158654 21.7378L0.074507 20.5878C0.0731123 20.5671 0.0772964 20.5454 0.0731123 20.5252C-0.0198677 20.093 0.0219733 19.6533 0.00663164 19.2174C-0.00871006 18.7904 0.0122104 18.3621 0.00477204 17.9341C-0.000341863 17.6423 0.0693931 17.3561 0.0573057 17.0647C0.122857 16.8524 0.097752 16.6316 0.114953 16.415C0.127971 16.2503 0.150286 16.0836 0.17911 15.9226C0.211188 15.7456 0.202819 15.571 0.219091 15.3963C0.24466 15.128 0.293475 14.862 0.313466 14.5937C0.3395 14.2514 0.435269 13.9205 0.458514 13.5783C0.467348 13.4446 0.493847 13.3109 0.522206 13.1791C0.59752 12.8251 0.64029 12.4635 0.747682 12.1166C0.75698 12.0869 0.756515 12.054 0.768603 12.0252C0.864372 11.7955 0.918765 11.5526 0.986176 11.3144C1.05405 11.0753 1.11588 10.8342 1.18608 10.5956C1.20933 10.516 1.25303 10.443 1.28092 10.3649C1.42923 9.94546 1.5752 9.52508 1.72258 9.1047C1.73606 9.06562 1.75373 9.02796 1.77 8.9903C1.95642 8.56239 2.14982 8.1373 2.32648 7.70562C2.40552 7.51308 2.49989 7.32949 2.59612 7.1473C2.71188 6.92793 2.85182 6.72127 2.9792 6.50802C3.0322 6.41952 3.06381 6.30842 3.13634 6.24252C3.28464 6.10694 3.3474 5.91675 3.472 5.76658C3.59659 5.61641 3.68817 5.43753 3.80905 5.28359C4.10287 4.90887 4.38041 4.52238 4.68539 4.1552C4.99129 3.78707 5.32416 3.44765 5.65377 3.10494C5.81091 2.94159 5.98804 2.79613 6.16284 2.65114C6.44085 2.42 6.72025 2.19027 7.0071 1.9709C7.18701 1.83344 7.3832 1.71764 7.56963 1.58865C7.90063 1.36033 8.24234 1.15038 8.59891 0.9649C8.7528 0.884872 8.90017 0.791663 9.05033 0.705045C9.58822 0.394818 10.1661 0.186274 10.7593 0.015391C10.8672 -0.0156788 10.9629 -0.0081467 11.0392 0.0850625C11.2024 0.285133 11.4376 0.416002 11.5654 0.649966C11.5752 0.667855 11.5905 0.685273 11.6073 0.69563C11.8495 0.842034 11.9987 1.08965 12.2121 1.26618C12.3581 1.3867 12.4413 1.55946 12.5803 1.68421C12.5984 1.70022 12.5966 1.74164 12.5998 1.77177C12.605 1.8212 12.6324 1.84427 12.6789 1.84615C12.7844 1.84992 12.8458 1.92524 12.8997 1.99962C13.1057 2.28442 13.3344 2.5471 13.5878 2.79095C13.8551 3.04845 14.1075 3.3229 14.3014 3.6449C14.3223 3.67973 14.3432 3.7174 14.3525 3.75647C14.3646 3.80872 14.3567 3.86757 14.3097 3.89722C14.1438 4.00314 13.9936 4.12883 13.8434 4.25594C13.79 4.30113 13.7175 4.32467 13.6519 4.35432C13.4362 4.45177 13.2191 4.54498 13.0043 4.64431C12.6752 4.79683 12.3851 5.0082 12.1001 5.23463C11.6389 5.60135 11.2093 6.00526 10.7561 6.38045C10.5097 6.58428 10.2526 6.77588 10.008 6.98254C9.84345 7.12188 9.68585 7.26876 9.53894 7.42976C9.13262 7.87509 8.77511 8.35526 8.44596 8.86132C8.23118 9.19179 8.03034 9.53026 7.82346 9.86543C7.76442 9.96147 7.73187 10.0735 7.68306 10.1766C7.53662 10.4864 7.40877 10.8032 7.29487 11.1271C7.07776 11.7433 6.85414 12.3567 6.67655 12.9861C6.51058 13.5745 6.37065 14.1691 6.27813 14.7749C6.23118 15.0818 6.17214 15.3869 6.12007 15.6934C6.11309 15.7343 6.11356 15.7767 6.11449 15.8181C6.11914 16.1208 6.02755 16.416 6.04708 16.7201C5.98106 16.954 5.99873 17.1946 5.99082 17.4337C5.98897 17.4855 5.99268 17.5406 5.97688 17.5891C5.92713 17.7421 5.94062 17.8988 5.93643 18.0547C5.93085 18.2519 5.93643 18.4468 5.90156 18.645C5.86763 18.8375 5.88297 19.0404 5.88529 19.2386C5.89134 19.7291 5.90528 20.2192 5.9104 20.7097C5.91179 20.8665 5.96665 21.0143 5.9634 21.1729C5.96014 21.3273 5.95921 21.486 6.02058 21.6352C6.03174 21.6625 6.02848 21.6969 6.02895 21.7284C6.03406 22.0829 6.10287 22.4294 6.15122 22.7787C6.17818 22.9736 6.19724 23.1694 6.22792 23.3643C6.34601 24.1133 6.51105 24.85 6.76349 25.5646C6.99129 26.2095 7.22281 26.8535 7.46223 27.4942C7.5422 27.7075 7.61193 27.9264 7.70538 28.1325C7.78627 28.311 7.8574 28.4936 7.93829 28.6716C8.16191 29.1626 8.37995 29.6564 8.61891 30.1394C8.83927 30.5847 9.06335 31.0291 9.34601 31.4396C9.43992 31.5761 9.5315 31.7145 9.62076 31.8543C9.78766 32.1161 9.98804 32.351 10.1819 32.592C10.4097 32.8749 10.7072 33.0919 10.9048 33.4007C10.9202 33.4248 10.9564 33.4337 10.9801 33.453C11.0206 33.4855 11.0703 33.5133 11.0959 33.5552C11.2065 33.7359 11.3762 33.855 11.5306 33.9882C11.6477 34.089 11.7305 34.2213 11.8523 34.3178C11.9653 34.4077 12.0675 34.5113 12.1754 34.6078C12.2819 34.7029 12.3892 34.7965 12.4971 34.8897C12.5282 34.9166 12.5673 34.9354 12.5947 34.966C12.7551 35.143 12.9587 35.2701 13.1242 35.441C13.1814 35.4998 13.2507 35.5474 13.3153 35.5987C13.4195 35.6815 13.5371 35.7484 13.5947 35.8811C13.6091 35.9146 13.651 35.9536 13.6845 35.9583C13.7988 35.9748 13.8732 36.0478 13.929 36.1339C13.9969 36.2384 14.1215 36.2898 14.1675 36.4136C14.18 36.4479 14.2228 36.4748 14.2572 36.4964C14.4762 36.6315 14.6686 36.7939 14.8397 36.9907C14.9736 37.1446 15.141 37.2703 15.3018 37.3979C15.3679 37.4502 15.4227 37.5057 15.4729 37.573C15.5585 37.6884 15.6417 37.8103 15.7993 37.8414C15.8783 37.8569 15.8895 37.952 15.9476 37.9929C15.9699 38.0085 16.0127 38.0217 16.0294 38.0104C16.0475 37.9981 16.0545 37.9553 16.0513 37.9275C16.0466 37.8875 16.0294 37.8484 16.0145 37.8098C16.0071 37.7905 15.9978 37.767 15.9825 37.7571C15.8686 37.6846 15.8314 37.5688 15.7956 37.4469C15.7663 37.3475 15.7151 37.2557 15.6319 37.1875C15.6082 37.1682 15.5826 37.1446 15.5724 37.1173C15.452 36.7935 15.2084 36.5435 15.0573 36.2394C15.0094 36.1434 14.9174 36.1231 14.856 36.0549C14.8146 36.0087 14.8007 35.9734 14.8332 35.9207C14.8923 35.8261 14.8681 35.746 14.7951 35.6679C14.7398 35.6086 14.7082 35.5229 14.6064 35.5271C14.5891 35.5276 14.5659 35.513 14.5538 35.4984C14.4413 35.3628 14.3362 35.2249 14.4236 35.0305C14.4469 34.9787 14.426 34.9326 14.3576 34.9189C14.2744 34.902 14.2344 34.8558 14.2079 34.7824C14.1489 34.6176 14.16 34.4562 14.2205 34.2947C14.2242 34.2844 14.2061 34.2655 14.1982 34.2505C14.1898 34.2566 14.1796 34.2608 14.1735 34.2688C14.1549 34.2933 14.1387 34.3197 14.1205 34.3446C14.1089 34.3606 14.0954 34.3752 14.0829 34.3907C14.0731 34.3752 14.0573 34.3606 14.055 34.3441C14.0387 34.2316 14.061 34.1139 14.0038 34.0071C13.9955 33.9911 13.9964 33.9652 14.0024 33.9464C14.0596 33.7679 13.9936 33.6065 13.9406 33.4422C13.876 33.2407 13.9146 33.2266 14.1001 33.099C14.1731 33.1079 14.201 33.0524 14.2456 33.0081C14.3841 32.8702 14.545 32.7596 14.7091 32.6541C14.7607 32.6212 14.8146 32.5882 14.856 32.544C14.9002 32.4969 14.9476 32.4757 15.0085 32.4555C15.0936 32.4272 15.1782 32.375 15.2442 32.3124C15.4492 32.1194 15.7082 32.0078 15.9262 31.8322C16.1163 31.6792 16.3228 31.5389 16.5645 31.4683C16.6115 31.4547 16.6793 31.4226 16.6896 31.3859C16.7221 31.2668 16.8351 31.296 16.9044 31.2508C17.1261 31.1063 17.3279 30.9279 17.5766 30.8271C17.5859 30.8234 17.5961 30.8196 17.604 30.813C17.6598 30.7683 17.7393 30.7335 17.7653 30.6746C17.803 30.5899 17.9225 30.7339 17.9229 30.6002C17.9229 30.5734 17.9518 30.5701 17.962 30.5932C18.009 30.6967 18.0675 30.797 18.0982 30.9053C18.1298 31.0159 18.1628 31.1232 18.2158 31.2254C18.2488 31.2894 18.2739 31.3591 18.293 31.4292C18.3116 31.497 18.4157 31.4255 18.419 31.5224C18.4232 31.6467 18.5678 31.7098 18.5538 31.86C18.5441 31.9645 18.6738 32.0506 18.6705 32.1735C18.7965 32.351 18.8504 32.5614 18.9369 32.7572C18.9569 32.8029 19.0066 32.8349 19.0285 32.8801C19.0768 32.9813 19.1745 33.0533 19.1847 33.18C19.1893 33.235 19.2358 33.2934 19.2767 33.3381C19.4315 33.51 19.5515 33.695 19.5692 33.9365C19.5743 34.0075 19.6236 34.0447 19.7026 34.0165C19.7082 34.0146 19.7314 34.0603 19.7449 34.0848C19.8137 34.2114 19.869 34.3465 19.975 34.4491C19.9969 34.4703 20.0308 34.5009 20.028 34.523C20.008 34.6765 20.1517 34.7452 20.1963 34.8671C20.2377 34.9801 20.3311 35.0729 20.3958 35.1783C20.4329 35.2395 20.4604 35.3073 20.4883 35.3741C20.5236 35.4594 20.5585 35.5464 20.6263 35.6095C20.6691 35.6491 20.677 35.6961 20.6877 35.747C20.6942 35.7762 20.7072 35.8256 20.7216 35.827C20.869 35.8425 20.8588 35.9913 20.929 36.0709C20.9834 36.1325 21.0234 36.2111 21.0861 36.2606C21.1638 36.3218 21.2047 36.4023 21.2493 36.4837C21.319 36.6108 21.4023 36.728 21.5041 36.8307C21.5696 36.897 21.6389 36.9596 21.6812 37.0458C21.7137 37.1126 21.7677 37.1597 21.8211 37.2101C21.9415 37.3226 22.055 37.4384 22.1452 37.582C22.2209 37.7025 22.3256 37.8089 22.4339 37.9026C22.5375 37.9925 22.6152 38.1012 22.6965 38.2071C22.7481 38.2745 22.7839 38.3375 22.8844 38.3465C22.935 38.3507 22.9876 38.4124 23.0276 38.4585C23.2163 38.6779 23.4622 38.837 23.6431 39.0653C23.7184 39.1604 23.8495 39.1882 23.9276 39.2946C23.9992 39.392 24.1187 39.4447 24.2186 39.5149C24.3776 39.6255 24.5217 39.7592 24.6831 39.8708C24.843 39.9819 24.9969 40.1024 25.1512 40.2215C25.2 40.2592 25.2433 40.3048 25.2856 40.3505C25.3288 40.3976 25.373 40.4338 25.4404 40.4427C25.4785 40.4479 25.525 40.4672 25.5473 40.4964C25.6333 40.6085 25.7853 40.6282 25.8695 40.7337C25.9532 40.8386 26.1029 40.8146 26.1828 40.9173C26.4464 41.0364 26.6798 41.2087 26.9276 41.3551C27.0336 41.4181 27.1391 41.4826 27.2456 41.5452C27.2809 41.566 27.3232 41.5768 27.3539 41.6027C27.4325 41.6681 27.4883 41.7778 27.5929 41.7905C27.7063 41.8042 27.7384 41.9308 27.8541 41.9407C27.9225 41.9463 27.9629 42.0297 27.9918 42.0979C27.9992 42.1153 28.0043 42.1511 27.9992 42.1535C27.863 42.2137 27.9583 42.3695 27.8774 42.4524C27.8411 42.4896 27.8662 42.5268 27.8876 42.5635C27.8974 42.58 27.9081 42.6106 27.9006 42.62C27.8318 42.708 27.8792 42.7852 27.9048 42.8742C27.942 43.0022 27.9048 43.143 27.9564 43.2734C27.969 43.3054 27.9494 43.3534 27.9374 43.3911C27.909 43.4796 27.929 43.5756 27.8802 43.6641C27.8425 43.7324 27.9578 43.8162 27.883 43.8962C27.9573 43.9903 27.9062 44.0704 27.8518 44.1471C27.8077 44.2097 27.8462 44.229 27.8923 44.2606C27.9318 44.2879 27.9285 44.3514 27.8951 44.3655C27.8211 44.3971 27.757 44.4536 27.6654 44.4404C27.6059 44.4319 27.5427 44.4432 27.4818 44.4517C27.4683 44.4536 27.4562 44.4785 27.4469 44.495C27.4334 44.5195 27.4673 44.5534 27.5017 44.5482C27.552 44.5402 27.6017 44.5298 27.6505 44.5181C27.79 44.4842 27.8235 44.494 27.8871 44.5905C27.949 44.6842 27.9476 44.7031 27.849 44.8292C27.8165 44.8711 27.8142 44.9027 27.862 44.9243C27.9067 44.9446 27.9327 44.9681 27.8941 45.0123C27.8607 45.0509 27.8197 45.0792 27.8597 45.1409C27.9062 45.2129 27.7872 45.2811 27.8365 45.3438C27.9002 45.4247 27.8253 45.5062 27.8574 45.5782C27.8913 45.6545 27.8393 45.7218 27.8486 45.7877C27.8695 45.9336 27.7705 46.0654 27.8128 46.2099C27.7788 46.2613 27.7537 46.3225 27.7091 46.3615C27.6561 46.4086 27.585 46.4336 27.5255 46.4745C27.5059 46.4882 27.499 46.5206 27.4864 46.5446C27.5055 46.5512 27.5245 46.5621 27.5441 46.5639C27.585 46.5687 27.6263 46.5677 27.6673 46.572C27.6868 46.5738 27.7058 46.5828 27.7249 46.5889C27.7137 46.6016 27.7049 46.6195 27.691 46.6256C27.6356 46.6506 27.5794 46.676 27.5217 46.6939C27.413 46.7278 27.4069 46.74 27.4706 46.8473C27.4799 46.8633 27.5031 46.8713 27.5199 46.8826L27.5134 46.8765C27.4478 46.9787 27.3465 46.9697 27.2484 46.9594C27.201 46.9542 27.1168 46.9603 27.1168 46.9132C27.1168 46.8403 27.1015 46.7974 27.0517 46.8615C26.9904 46.9406 26.9448 46.9829 26.8546 46.9203C26.8072 46.8874 26.7942 46.9147 26.7672 46.9537C26.7151 47.0305 26.67 47.0248 26.5943 46.957C26.5282 46.8982 26.5264 46.8968 26.4664 46.965C26.4464 46.9881 26.4343 47.0234 26.399 47.0192C26.2907 47.0065 26.1944 47.1387 26.0773 47.046C26.0647 47.0361 26.0238 47.0606 25.9969 47.0705C25.9295 47.095 25.8639 47.1265 25.7946 47.143C25.7584 47.1515 25.7119 47.143 25.6775 47.1256C25.6352 47.1044 25.6189 47.0286 25.5645 47.0413C25.5399 47.0469 25.5315 47.1124 25.5092 47.1467C25.4864 47.1816 25.4548 47.2084 25.4092 47.2112C25.3479 47.215 25.2856 47.2287 25.2251 47.2216C25.0991 47.207 24.982 47.215 24.8779 47.2983C24.8537 47.3176 24.8258 47.319 24.7932 47.3049C24.6835 47.2578 24.5915 47.4108 24.4753 47.335C24.446 47.3162 24.4408 47.3256 24.3283 47.3892C24.3125 47.3981 24.2902 47.4 24.2712 47.3986C24.2433 47.3962 24.2205 47.3624 24.1875 47.3911C24.1568 47.4179 24.1247 47.4509 24.088 47.4617C24.009 47.4852 23.9262 47.4965 23.8509 47.4443C23.7932 47.5201 23.7184 47.5704 23.6263 47.5878C23.5455 47.6029 23.4622 47.6024 23.3809 47.6166C23.3214 47.6269 23.2647 47.6594 23.2051 47.665C23.0034 47.6839 22.8118 47.786 22.5989 47.7328C22.5473 47.7201 22.4818 47.7615 22.4232 47.7794C22.3586 47.7992 22.3065 47.7912 22.2605 47.7324C22.2182 47.6787 22.1749 47.6975 22.1368 47.7484C22.1191 47.7719 22.0917 47.8016 22.0671 47.803C21.9448 47.8091 21.8104 47.8392 21.7026 47.7992C21.5799 47.7535 21.5366 47.7658 21.5115 47.8891C21.505 47.9207 21.458 47.9315 21.4343 47.9141C21.3609 47.8613 21.2972 47.8694 21.2484 47.9404C21.2024 48.0073 21.1554 48.0078 21.0926 47.9706C21.0396 47.9395 21.0043 47.9583 20.9671 48.0106C20.9262 48.068 20.9164 48.0624 20.843 47.9771C20.8249 47.9564 20.8132 47.9437 20.797 47.963C20.7709 47.9941 20.7481 48.028 20.7244 48.0609C20.6626 48.1457 20.6124 48.1485 20.5301 48.0699C20.4622 48.0054 20.4278 48.004 20.3874 48.0657C20.3706 48.0915 20.3604 48.1212 20.3451 48.1485C20.2995 48.2299 20.2279 48.2667 20.1387 48.2516C20.0601 48.2384 19.9866 48.2059 19.9057 48.2544C19.8718 48.2747 19.8272 48.2497 19.8007 48.2116C19.7612 48.1551 19.7542 48.1716 19.7402 48.2304C19.7165 48.3312 19.6738 48.3571 19.591 48.3133C19.5189 48.2751 19.4646 48.2502 19.405 48.3269C19.3358 48.4164 19.2209 48.4051 19.1284 48.4432C19.1089 48.4512 19.074 48.4225 19.0461 48.4098C19.0136 48.3952 18.9941 48.3349 18.9494 48.3693C18.9309 48.3834 18.9336 48.4258 18.9253 48.455C18.9118 48.5025 18.8769 48.5204 18.8323 48.5152C18.8044 48.5119 18.7821 48.5086 18.7774 48.4625C18.77 48.3933 18.7254 48.3735 18.6817 48.4032C18.6477 48.4262 18.6059 48.4465 18.5868 48.479C18.5547 48.535 18.5157 48.5708 18.459 48.6033C18.3655 48.6569 18.2911 48.6673 18.2117 48.5816C18.1712 48.5383 18.1494 48.5665 18.1312 48.616C18.1024 48.6965 18.062 48.7238 18.0038 48.7172C17.9741 48.7139 17.9392 48.7134 17.916 48.6979C17.7881 48.6136 17.7137 48.6654 17.6505 48.7864C17.6208 48.8429 17.5673 48.8447 17.5203 48.8104C17.5022 48.7972 17.5087 48.7026 17.4632 48.7887C17.4362 48.8391 17.3985 48.8834 17.353 48.8876C17.2442 48.8984 17.1312 48.946 17.0238 48.8876C16.9536 48.8495 16.9067 48.8702 16.8695 48.9314C16.836 48.986 16.8021 49.0354 16.7291 49.0378C16.6421 49.0406 16.5747 49.0858 16.5087 49.139C16.4539 49.1832 16.3804 49.1818 16.3409 49.13C16.2712 49.0382 16.1772 49.0542 16.0875 49.0476C16.062 49.0458 16.0522 49.0688 16.0624 49.0862C16.0671 49.0942 16.0754 49.1008 16.0824 49.1074C16.1001 49.123 16.1559 49.1314 16.1005 49.163C16.0582 49.187 15.9945 49.1606 15.9597 49.2086C15.8862 49.3094 15.8244 49.3174 15.7565 49.1997C15.7426 49.1757 15.6807 49.1682 15.6435 49.1733C15.5836 49.1818 15.5255 49.2044 15.4678 49.2256C15.3911 49.2543 15.3176 49.2938 15.2391 49.3169C15.1582 49.3405 15.128 49.3866 15.1145 49.4704C15.0991 49.5678 15.054 49.5749 14.9634 49.5104C14.9383 49.4925 14.9146 49.4732 14.8899 49.4544C14.8741 49.4803 14.8579 49.5057 14.843 49.532C14.8276 49.5593 14.816 49.5885 14.7988 49.6144C14.7551 49.6822 14.744 49.6201 14.7235 49.5942C14.717 49.5862 14.7082 49.5791 14.6989 49.5758C14.6896 49.5725 14.677 49.5716 14.6691 49.5758C14.5957 49.6116 14.5259 49.6667 14.4488 49.6808C14.3767 49.6945 14.3111 49.7166 14.2437 49.7415C14.2103 49.7538 14.1875 49.7764 14.1875 49.8065C14.1861 49.9628 14.0415 49.9195 13.9662 49.9717C13.9629 49.9741 13.9457 49.9637 13.9415 49.9557C13.87 49.8183 13.7946 49.911 13.7565 49.9694C13.6282 50.1662 13.4055 50.2033 13.227 50.314C13.0894 50.3027 12.9983 50.394 12.9048 50.4721C12.8002 50.5602 12.6942 50.6369 12.5529 50.6492C12.5241 50.6515 12.492 50.6656 12.4687 50.684C12.286 50.8262 12.0564 50.869 11.8602 50.981C11.7979 51.0163 11.7421 50.9862 11.6868 50.9923C11.6105 51.0008 11.6003 50.9674 11.5901 50.9132C11.5812 50.8638 11.5417 50.8577 11.5036 50.8398C11.4069 50.7951 11.3958 50.773 11.4316 50.6746C11.4497 50.6247 11.4697 50.5799 11.458 50.5267C11.4511 50.4938 11.4348 50.4872 11.4236 50.514C11.393 50.5861 11.3488 50.5766 11.3125 50.5277C11.253 50.4463 11.1703 50.3728 11.1889 50.2542C11.1075 50.2118 11.1057 50.1252 11.0731 50.0532C11.0052 49.903 10.9462 49.7505 10.9118 49.59C10.8978 49.525 10.8867 49.4746 10.8216 49.4426C10.7839 49.4242 10.7812 49.3753 10.783 49.3315C10.7881 49.2134 10.7593 49.1103 10.6831 49.0138C10.6268 48.9427 10.5989 48.8518 10.5771 48.7581C10.5496 48.64 10.5324 48.5133 10.4413 48.4173C10.4153 48.39 10.4018 48.3453 10.3944 48.3062C10.3679 48.164 10.3474 48.0205 10.3223 47.8778C10.3153 47.8373 10.3107 47.7926 10.2893 47.7601C10.2121 47.642 10.1865 47.5168 10.1977 47.3751C10.2019 47.3195 10.1661 47.255 10.1349 47.2032C10.0824 47.1166 10.0606 47.0342 10.114 46.9401C10.1373 46.8991 10.1187 46.8605 10.0838 46.8313C9.97548 46.74 9.98618 46.6303 10.0485 46.523C10.1954 46.2711 10.3623 46.0367 10.6064 45.8672C11.0303 45.5725 11.4557 45.2811 11.9123 45.0392C12.1596 44.9083 12.4195 44.8156 12.6877 44.7431C12.8853 44.6899 13.0773 44.6183 13.2846 44.5971C13.3925 44.5858 13.4952 44.519 13.5989 44.4738C13.9099 44.3382 14.2228 44.2116 14.5603 44.1584C14.6426 44.1457 14.6933 44.0694 14.6942 43.9767C14.6947 43.9141 14.6868 43.8515 14.6905 43.7893C14.6928 43.7498 14.7263 43.7488 14.7551 43.7644C14.7998 43.7884 14.8058 43.7517 14.8137 43.7253C14.8276 43.6796 14.803 43.6217 14.7709 43.6217C14.6538 43.6227 14.6175 43.5601 14.5975 43.4575C14.5878 43.4085 14.5399 43.3694 14.4827 43.3675C14.4543 43.3666 14.419 43.3746 14.399 43.3925C14.3646 43.4226 14.3697 43.4683 14.3916 43.505C14.4148 43.5441 14.4427 43.505 14.4687 43.5031C14.4878 43.5012 14.512 43.5003 14.5259 43.5106C14.5394 43.5205 14.5534 43.5516 14.5473 43.562C14.5157 43.6175 14.4608 43.642 14.4023 43.6589C14.3409 43.5921 14.2405 43.5704 14.1949 43.4909C14.1679 43.4438 14.2 43.3981 14.247 43.3614C14.3111 43.311 14.3065 43.2597 14.2474 43.2207C14.1587 43.1613 14.1126 43.1703 14.0513 43.2626C14.0113 43.3223 13.975 43.385 13.9364 43.4457C13.9309 43.4542 13.922 43.4603 13.9146 43.4678C13.9053 43.4523 13.8923 43.4381 13.8872 43.4217C13.8816 43.4019 13.889 43.3769 13.8802 43.36C13.7764 43.1695 13.7085 42.9677 13.6766 42.7546C13.6747 42.7433 13.6607 42.7339 13.6528 42.724C13.6426 42.7419 13.6356 42.7631 13.6212 42.7763C13.6068 42.789 13.5859 42.796 13.5664 42.8007C13.5468 42.8059 13.5255 42.805 13.505 42.8069C13.5036 42.7965 13.505 42.7847 13.5004 42.7763C13.4906 42.7584 13.4808 42.7391 13.466 42.7268C13.4511 42.7146 13.4278 42.7019 13.4116 42.7057C13.399 42.7085 13.3855 42.7348 13.3837 42.7523C13.3734 42.8426 13.3976 42.8572 13.4836 42.8168C13.4929 42.8125 13.5013 42.8059 13.5101 42.8003C13.5259 42.8944 13.5873 42.966 13.6305 43.0465C13.6617 43.1053 13.5845 43.2254 13.5152 43.2329C13.4822 43.2362 13.3958 43.1788 13.4069 43.1463C13.4515 43.0131 13.3176 42.973 13.2828 42.8822C13.2405 42.7725 13.1531 42.7292 13.0355 42.8069C12.995 42.8337 12.9606 42.7993 12.9406 42.724C12.9313 42.6892 12.9476 42.6365 12.8806 42.6529L12.6552 42.5889C12.5771 42.6539 12.5227 42.5903 12.4673 42.5498C12.4241 42.5183 12.3985 42.4788 12.4343 42.4194C12.4604 42.3766 12.4325 42.3427 12.3958 42.3178C12.3418 42.281 12.2512 42.2697 12.2907 42.1648C12.2925 42.1601 12.2656 42.1365 12.2502 42.1337C12.1596 42.1191 12.1182 42.0617 12.154 41.9807C12.187 41.9068 12.1605 41.8639 12.1163 41.8173C12.0703 41.7684 12.0355 41.7731 12.0043 41.8343C11.9857 41.8715 11.9732 41.9115 11.9532 41.9477C11.9471 41.9586 11.9253 41.9623 11.9099 41.9647C11.9057 41.9652 11.8955 41.9492 11.8946 41.9402C11.8895 41.8898 11.8876 41.8395 11.8806 41.7896C11.8802 41.7863 11.8421 41.7792 11.8337 41.7872C11.8039 41.8155 11.7812 41.8484 11.809 41.8936C11.8267 41.9223 11.829 41.9539 11.7984 41.9755C11.7812 41.9878 11.7114 41.9313 11.71 41.904C11.7086 41.8734 11.7058 41.8414 11.7114 41.8117C11.717 41.7816 11.7351 41.7543 11.7426 41.7241C11.7547 41.6733 11.7342 41.6399 11.6868 41.6342C11.657 41.6305 11.6249 41.6418 11.5966 41.6347C11.5004 41.6107 11.3916 41.6022 11.3144 41.5485C11.2354 41.4939 11.2698 41.3762 11.2586 41.2854C11.2526 41.2369 11.2233 41.2087 11.18 41.2049C11.1136 41.1988 11.0592 41.1738 11.0299 41.1136C10.9815 41.0142 10.8965 40.9474 10.8044 40.9149C10.6375 40.8561 10.5394 40.7341 10.4636 40.5901C10.4297 40.5256 10.3827 40.5006 10.3251 40.4818C10.2363 40.4526 10.107 40.3735 10.0768 40.3199C10.0461 40.2662 10.0238 40.2064 9.98757 40.157C9.96525 40.1264 9.92109 40.0892 9.89041 40.0925C9.76535 40.1057 9.72351 39.9819 9.63053 39.9437C9.58915 39.9268 9.59194 39.875 9.59241 39.8341C9.59334 39.763 9.56405 39.7197 9.49292 39.699C9.42039 39.6778 9.38274 39.609 9.3316 39.5587C9.31254 39.5398 9.26651 39.522 9.25024 39.5323C9.19956 39.5639 9.16051 39.5686 9.11821 39.5224C9.06846 39.4683 9.03081 39.4198 9.05126 39.3313C9.07032 39.2489 9.01268 39.2164 8.91923 39.2386C8.89459 39.2442 8.85879 39.2814 8.84996 39.2287C8.83462 39.1369 8.82904 39.0437 8.81788 38.9509C8.81323 38.9119 8.75187 38.8954 8.71979 38.925C8.6905 38.9523 8.66679 38.9778 8.67283 39.0291C8.67934 39.0837 8.66121 39.0931 8.63518 39.0719C8.60403 39.0465 8.56777 39.0215 8.54917 38.9881C8.52499 38.9439 8.5157 38.8911 8.50035 38.8422C8.50407 38.8036 8.51012 38.7654 8.51058 38.7268C8.51058 38.6793 8.47943 38.6609 8.43713 38.6567C8.38552 38.652 8.366 38.6845 8.38831 38.7381C8.39575 38.756 8.40133 38.7744 8.40784 38.7928C8.26326 38.7815 8.17446 38.6878 8.15819 38.5578C8.14703 38.4684 8.10519 38.4039 8.07265 38.33C8.0587 38.2985 8.00617 38.2853 7.99966 38.3079C7.99501 38.3248 7.99966 38.3455 8.00245 38.3639C8.00477 38.3841 8.01872 38.4096 8.01082 38.4227C7.98292 38.4693 7.96293 38.4204 7.94155 38.41C7.92341 38.4016 7.90854 38.3856 7.8932 38.3714C7.77372 38.2584 7.64215 38.1586 7.53429 38.032C7.48827 37.9779 7.4269 37.936 7.37065 37.8913C7.31207 37.8447 7.27534 37.783 7.2442 37.7161C7.32555 37.7143 7.32927 37.6507 7.34508 37.5914C7.37065 37.4958 7.3646 37.4826 7.27116 37.4445C7.24559 37.4342 7.22746 37.4328 7.22653 37.4582C7.2242 37.5382 7.22653 37.6178 7.22699 37.6978L7.22839 37.6983ZM16.0736 48.7205C16.0694 48.6767 16.0113 48.631 15.9722 48.6414C15.9248 48.6546 15.876 48.664 15.8286 48.6776C15.796 48.6875 15.7835 48.7501 15.8053 48.7817C15.8523 48.8504 15.8974 48.8688 15.9546 48.8386C15.9904 48.8198 16.0257 48.7996 16.0564 48.7741C16.0685 48.7642 16.0685 48.7384 16.0736 48.72V48.7205ZM6.62448 36.4465C6.61705 36.4536 6.60635 36.4592 6.60403 36.4677C6.6017 36.4762 6.60589 36.4894 6.61193 36.4959C6.65005 36.5402 6.70956 36.5633 6.7263 36.6296C6.73048 36.6452 6.77465 36.6579 6.80068 36.6584C6.83043 36.6588 6.82579 36.5873 6.80068 36.5543C6.75466 36.495 6.68213 36.4842 6.62448 36.4465ZM15.6733 48.1043C15.6733 48.1565 15.7068 48.229 15.7584 48.2836C15.763 48.2888 15.7788 48.2874 15.7872 48.2836C15.7956 48.2803 15.8081 48.269 15.8072 48.2638C15.7942 48.2064 15.7812 48.1485 15.7626 48.093C15.7584 48.0812 15.7305 48.0694 15.7156 48.0713C15.7003 48.0732 15.6872 48.0925 15.6738 48.1043H15.6733ZM14.604 35.2428C14.6008 35.2033 14.5994 35.1736 14.5961 35.1439C14.5929 35.1166 14.5785 35.1133 14.5543 35.1298C14.4883 35.176 14.4752 35.2875 14.5338 35.3341C14.5417 35.3403 14.5761 35.3294 14.5826 35.3177C14.5961 35.2927 14.5989 35.2621 14.604 35.2423V35.2428ZM8.87042 38.7447C8.8746 38.7358 8.88204 38.7268 8.88297 38.7174C8.88808 38.6657 8.88111 38.6167 8.84252 38.5776C8.82067 38.555 8.7951 38.5423 8.76628 38.564C8.74071 38.5828 8.72676 38.6092 8.73978 38.6412C8.76023 38.6901 8.80068 38.7193 8.84578 38.7419C8.85228 38.7452 8.86158 38.7438 8.86949 38.7443L8.87042 38.7447ZM6.48129 36.3345C6.48873 36.3312 6.49757 36.3298 6.50175 36.3246C6.50733 36.3175 6.51291 36.3072 6.51198 36.2987C6.50315 36.2229 6.45201 36.1772 6.39482 36.1372C6.38738 36.1321 6.37809 36.1292 6.36925 36.1255C6.36367 36.1434 6.35019 36.1636 6.35484 36.1782C6.37576 36.2469 6.419 36.2992 6.48129 36.334V36.3345ZM16.4227 48.4785C16.4422 48.4766 16.465 48.4804 16.4804 48.471C16.4952 48.462 16.505 48.4408 16.5115 48.423C16.5259 48.3815 16.4911 48.3674 16.465 48.3618C16.4371 48.3556 16.4051 48.3594 16.3776 48.3688C16.3637 48.3735 16.353 48.3975 16.3469 48.415C16.3339 48.455 16.3655 48.4663 16.393 48.4766C16.4018 48.4799 16.413 48.478 16.4232 48.4785H16.4227ZM15.2242 43.8792C15.214 43.8472 15.141 43.8025 15.0991 43.8053C15.0912 43.8058 15.081 43.8166 15.0768 43.8251C15.0587 43.8614 15.0954 43.9381 15.1415 43.9433C15.1638 43.9456 15.1898 43.9193 15.213 43.9042C15.2196 43.9 15.221 43.8877 15.2247 43.8792H15.2242ZM12.9123 42.3846C12.8895 42.3512 12.8662 42.3154 12.8188 42.3258C12.7886 42.3323 12.7616 42.3498 12.7719 42.3879C12.7765 42.4048 12.7909 42.4289 12.8039 42.4312C12.8323 42.4359 12.8634 42.4312 12.8923 42.426C12.9197 42.4208 12.9257 42.4044 12.9118 42.3846H12.9123ZM27.2572 46.8619C27.267 46.8629 27.2814 46.8681 27.286 46.8633C27.2986 46.8511 27.3176 46.8318 27.3149 46.82C27.3079 46.7932 27.2925 46.7668 27.2749 46.7452C27.2674 46.7358 27.2391 46.7311 27.2307 46.7377C27.201 46.7626 27.2196 46.8417 27.2572 46.8615V46.8619ZM25.9876 46.7348C26.0373 46.7315 26.0759 46.6972 26.0829 46.6421C26.0843 46.6308 26.0592 46.6035 26.055 46.6054C26.0187 46.62 25.9843 46.6407 25.9485 46.6572C25.9262 46.6675 25.9206 46.6826 25.9397 46.7028C25.9527 46.7165 25.9713 46.7245 25.9876 46.7348ZM20.498 47.7404C20.5115 47.7314 20.5375 47.7192 20.558 47.7008C20.5812 47.6801 20.5687 47.6368 20.5394 47.6349C20.511 47.633 20.4804 47.634 20.4534 47.6429C20.4413 47.6467 20.4297 47.673 20.4297 47.689C20.4297 47.7225 20.4487 47.7427 20.498 47.7408V47.7404ZM21.7207 47.4932C21.797 47.4951 21.7974 47.4956 21.85 47.4391C21.8565 47.432 21.8616 47.4207 21.8616 47.4118C21.8616 47.4047 21.8541 47.392 21.8481 47.3906C21.8123 47.3821 21.6705 47.4414 21.6719 47.4664C21.6724 47.4767 21.7035 47.4847 21.7207 47.4937V47.4932ZM22.5608 47.2715C22.5547 47.264 22.5445 47.2484 22.5427 47.2494C22.5069 47.2677 22.472 47.288 22.4371 47.3082C22.4283 47.3134 22.4209 47.3204 22.413 47.327C22.4283 47.3336 22.4441 47.3468 22.459 47.3454C22.4883 47.343 22.5189 47.3369 22.5445 47.3233C22.5557 47.3172 22.5557 47.2894 22.5608 47.2715ZM21.4943 47.5304C21.5045 47.5102 21.5129 47.5007 21.5129 47.4918C21.5134 47.4626 21.5162 47.4315 21.5078 47.4042C21.5041 47.3925 21.4743 47.3826 21.4571 47.3835C21.4306 47.3849 21.426 47.4024 21.4385 47.424C21.4571 47.4565 21.4734 47.4909 21.4943 47.5304ZM15.6965 48.8815C15.6649 48.8744 15.637 48.8678 15.6087 48.8617C15.5738 48.8546 15.5552 48.8749 15.545 48.9045C15.5417 48.9135 15.5399 48.929 15.5445 48.9333C15.5566 48.9441 15.5747 48.9591 15.5873 48.9568C15.6156 48.9511 15.6431 48.9384 15.6682 48.9238C15.6798 48.9168 15.6854 48.8989 15.6965 48.8815ZM6.74164 37.0891C6.7528 37.074 6.76302 37.0665 6.76349 37.058C6.76814 37.0048 6.73559 36.9483 6.69515 36.9394C6.6891 36.938 6.67609 36.9446 6.67423 36.9498C6.66818 36.9676 6.6561 36.9931 6.66307 37.0039C6.68446 37.035 6.71421 37.0604 6.74117 37.0891H6.74164Z" fill="#FF6200"/>
<path d="M14.4956 43.8991C14.4774 43.8756 14.4528 43.8549 14.443 43.8281C14.4337 43.8022 14.4319 43.7664 14.4644 43.749C14.4914 43.7349 14.5211 43.7353 14.5416 43.7622C14.5681 43.7965 14.5662 43.8351 14.5518 43.8751C14.5421 43.9029 14.5276 43.9076 14.4956 43.8991Z" fill="#FF6200"/>
<path d="M27.5193 46.8823C27.5179 46.8626 27.5156 46.8428 27.5151 46.823C27.5147 46.7901 27.5291 46.7665 27.5621 46.7628C27.5951 46.759 27.6169 46.7759 27.6211 46.8108C27.6258 46.8489 27.6016 46.863 27.5704 46.8696C27.5514 46.8734 27.5314 46.8743 27.5123 46.8762L27.5188 46.8823H27.5193Z" fill="#FF6200"/>
</g>
<defs>
<clipPath id="clip0_97_1312">
<rect width="28" height="51" fill="white"/>
</clipPath>
</defs>
</svg>
