<svg width="184" height="42" viewBox="0 0 184 42" fill="none" xmlns="http://www.w3.org/2000/svg">
<path d="M11.8588 8.202H10.0518L10.2728 5.745H1.60181V4.263H12.1578L11.8588 8.202ZM12.7818 8.722V10.204H7.73781V11.634H10.1298C11.4168 11.634 12.2878 12.661 12.2878 13.883C12.2878 15.105 11.4168 16.145 10.1298 16.145H3.56481C2.27781 16.145 1.41981 15.105 1.41981 13.883C1.41981 12.661 2.27781 11.634 3.56481 11.634H5.95681V10.204H0.925806V8.722H12.7818ZM10.5328 13.857C10.5328 13.389 10.1818 13.051 9.70081 13.051H3.98081C3.51281 13.051 3.17481 13.389 3.17481 13.857C3.17481 14.325 3.51281 14.676 3.98081 14.676H9.70081C10.1818 14.676 10.5328 14.325 10.5328 13.857ZM22.5448 5.719H13.9518V4.263H24.5078L24.0268 8.241H22.2198L22.5448 5.719ZM25.1318 10.36H13.2758V8.865H25.1318V10.36ZM22.6618 15.729L13.9648 16.106V11.465H24.4428V16.106H22.6618V15.729ZM15.7458 12.856V14.611L22.6618 14.338V12.856H15.7458ZM33.4648 6.473H25.7558V5.056H28.6808V3.873H30.5398V5.056H33.4648V6.473ZM36.7018 12.999H34.8818V4.159H36.7018V7.409H38.2618V9.008H36.7018V12.999ZM25.9898 9.294C25.9898 7.981 26.9518 7.045 28.0568 7.045H31.1768C32.2818 7.045 33.2438 7.981 33.2438 9.294C33.2438 10.62 32.2818 11.543 31.1768 11.543H28.0568C26.9518 11.543 25.9898 10.62 25.9898 9.294ZM28.6288 10.152H30.6178C31.2548 10.152 31.6058 9.762 31.6058 9.294C31.6058 8.813 31.2548 8.436 30.6178 8.436H28.6288C27.9918 8.436 27.6408 8.813 27.6408 9.294C27.6408 9.762 27.9918 10.152 28.6288 10.152ZM36.9618 16.106H26.5878V12.245H28.4208V14.598H36.9618V16.106ZM50.5573 5.706H41.8993V4.263H52.4553L52.1303 8.839H50.3363L50.5573 5.706ZM53.0793 10.958H41.2233V9.476H45.5263V6.889H47.3463V9.476H53.0793V10.958ZM41.6003 16.106V14.585C44.4473 14.585 46.2283 13.61 46.2283 12.18V11.686H48.0743V12.18C48.0743 13.61 49.8553 14.585 52.7023 14.585V16.106C49.6213 16.106 47.8273 15.105 47.1513 14.013C46.4623 15.105 44.6683 16.106 41.6003 16.106ZM59.3583 8.969H60.9573V4.159H62.5823V16.106H60.9573V10.555H59.3583V13.22C59.3583 14.754 58.1623 15.82 56.6543 15.82C55.1333 15.82 53.9373 14.754 53.9373 13.22V6.902C53.9373 5.368 55.1333 4.302 56.6543 4.302C58.1623 4.302 59.3583 5.368 59.3583 6.902V8.969ZM63.5833 16.106V4.159H65.2213V16.106H63.5833ZM57.7593 13.194V6.928C57.7593 6.278 57.2783 5.836 56.6673 5.836C56.0563 5.836 55.5753 6.278 55.5753 6.928V13.194C55.5753 13.857 56.0563 14.286 56.6673 14.286C57.2783 14.286 57.7593 13.857 57.7593 13.194ZM80.1947 16.106H78.3747V4.159H80.1947V8.826H81.8067V10.464H80.1947V16.106ZM74.4617 15.053L69.5347 15.625V4.64H76.2297V15.625H74.4617V15.053ZM71.3157 6.174V13.87L74.4617 13.506V6.174H71.3157ZM90.0097 9.775H84.8877C83.2497 9.775 82.0017 8.579 82.0017 7.071C82.0017 5.55 83.2497 4.354 84.8877 4.354H90.0097C91.6477 4.354 92.8957 5.55 92.8957 7.071C92.8957 8.579 91.6477 9.775 90.0097 9.775ZM85.2387 8.254H89.6587C90.4907 8.254 91.1017 7.76 91.1017 7.071C91.1017 6.382 90.4907 5.888 89.6587 5.888H85.2387C84.4067 5.888 83.7957 6.395 83.7957 7.071C83.7957 7.76 84.4067 8.254 85.2387 8.254ZM88.3717 16.236H86.5257V12.648H81.5207V11.049H93.3767V12.648H88.3717V16.236ZM94.2607 11.036V9.45C96.8867 9.268 98.8757 7.344 98.8757 5.667V4.289H100.722V5.667C100.722 7.344 102.724 9.268 105.337 9.45V11.036C102.711 10.958 100.618 9.606 99.7987 8.007C98.9797 9.606 96.8867 10.958 94.2607 11.036ZM105.727 15.82H93.8707V14.195H105.727V15.82ZM117.453 8.761H106.91V5.953H115.581V5.433H106.91V4.263H117.388V7.032H108.717V7.591H117.453V8.761ZM118.077 10.763H106.221V9.411H118.077V10.763ZM117.583 16.106H106.91V13.181H115.581V12.609H106.91V11.426H117.388V14.299H108.717V14.897H117.583V16.106ZM128.63 8.137V9.008H133.674V10.412H121.818V9.008H126.849V8.137H124.561C123.339 8.137 122.377 7.292 122.377 6.174C122.377 5.043 123.339 4.198 124.561 4.198H130.931C132.14 4.198 133.115 5.043 133.115 6.174C133.115 7.292 132.14 8.137 130.931 8.137H128.63ZM124.158 6.161C124.158 6.551 124.509 6.798 124.964 6.798H130.541C130.996 6.798 131.347 6.551 131.347 6.161C131.347 5.797 130.996 5.55 130.541 5.55H124.964C124.509 5.55 124.158 5.797 124.158 6.161ZM132.985 14.156H124.301V14.845H133.18V16.106H122.507V12.999H131.178V12.349H122.507V11.127H132.985V14.156ZM143.853 11.751H141.357V10.204H143.853V8.267H141.357V6.72H143.853V4.159H145.673V16.106H143.853V11.751ZM142.488 14.936L134.584 15.625V9.099H138.705L139.03 6.213H134.584V4.64H140.967L140.343 10.607H136.378V13.87L142.488 13.337V14.936ZM157.685 11.179H147.207V4.354H149.027V6.148H155.865V4.354H157.685V11.179ZM149.027 7.617V9.671H155.865V7.617H149.027ZM158.374 15.82H146.518V14.221H151.536V11.764H153.356V14.221H158.374V15.82ZM166.187 10.061H164.055V8.462H166.187V4.159H167.812V16.106H166.187V10.061ZM170.516 16.106H168.878V4.159H170.516V16.106ZM158.998 15.599V13.571C160.311 12.505 161.169 10.815 161.156 7.604V4.471H162.82V7.682C162.82 10.828 163.665 12.505 164.978 13.571V15.599C163.678 14.819 162.469 13.532 161.988 11.881C161.507 13.532 160.298 14.819 158.998 15.599ZM179.33 11.101H174.962C173.051 11.101 171.699 9.619 171.699 7.734C171.699 5.849 173.051 4.354 174.962 4.354H179.33C181.241 4.354 182.593 5.849 182.593 7.734C182.593 9.619 181.241 11.101 179.33 11.101ZM175.339 9.567H178.953C180.006 9.567 180.76 8.813 180.76 7.734C180.76 6.668 180.006 5.901 178.953 5.901H175.339C174.299 5.901 173.545 6.668 173.545 7.734C173.545 8.813 174.299 9.567 175.339 9.567ZM183.074 15.82H171.218V14.221H173.909V11.634H175.651V14.221H178.68V11.634H180.422V14.221H183.074V15.82ZM52.7873 27.434H61.2503L61.3153 26.589H52.6573V25.263H63.2133L62.8753 29.683H61.0813L61.1593 28.734H52.7873V27.434ZM51.9813 31.503V30.086H63.8373V31.503H51.9813ZM63.1483 35.221H54.4643V35.871H63.3173V37.106H52.6703V34.09H61.3543V33.479H52.6703V32.283H63.1483V35.221ZM75.8493 32.608H74.0033V25.159H75.8493V32.608ZM72.5733 31.711L64.7473 32.244V27.98H69.7913V26.81H64.7473V25.406H71.5723V29.332H66.5283V30.684L72.5733 30.281V31.711ZM75.8493 37.236H73.9643V34.584H65.2153V33.102H75.8493V37.236ZM82.7783 28.24H76.8633V26.745H78.9823V25.003H80.6723V26.745H82.7783V28.24ZM85.3783 37.106H83.7533V25.159H85.3783V29.904H86.6913V25.159H88.3293V37.106H86.6913V31.503H85.3783V37.106ZM77.0453 34.272V31.425C77.0453 29.891 78.2933 28.89 79.8273 28.89C81.3613 28.89 82.6093 29.891 82.6093 31.425V34.272C82.6093 35.806 81.3613 36.82 79.8273 36.82C78.2933 36.82 77.0453 35.806 77.0453 34.272ZM79.8273 35.338C80.4773 35.338 81.0103 34.909 81.0103 34.181V31.529C81.0103 30.788 80.4773 30.359 79.8273 30.359C79.1903 30.359 78.6443 30.788 78.6443 31.529V34.181C78.6443 34.909 79.1903 35.338 79.8273 35.338ZM98.6643 30.97H95.8303V29.371H98.6643V25.159H100.484V37.106H98.6643V30.97ZM89.1483 36.599V34.532C90.5263 33.648 92.2033 31.932 92.2163 28.565V25.471H94.0233V28.565C94.0363 31.932 95.7003 33.648 97.0783 34.532V36.599C95.4533 35.78 93.7633 34.233 93.1133 32.335C92.4503 34.233 90.7603 35.78 89.1483 36.599ZM116.082 37.106H114.236V25.159H116.082V37.106ZM104.746 36.599V34.532C106.137 33.648 107.892 31.932 107.892 28.565V25.471H109.712V28.565C109.712 31.932 111.454 33.648 112.845 34.532V36.599C111.207 35.767 109.478 34.22 108.802 32.309C108.113 34.22 106.384 35.767 104.746 36.599ZM128.055 32.257H126.235V25.159H128.055V27.72H129.615V29.293H128.055V32.257ZM117.161 31.828V30.216C118.695 30.021 120.086 29.098 120.112 27.252V26.979H117.291V25.445H124.675V26.979H121.841V27.252C121.867 29.098 123.271 30.021 124.805 30.216V31.828C123.102 31.646 121.542 30.905 120.983 29.514C120.398 30.905 118.851 31.646 117.161 31.828ZM128.055 37.236H126.196V34.259H117.811V32.751H128.055V37.236ZM129.914 33.791L129.797 30.151V25.081H131.552V30.151L131.435 33.791H129.914ZM131.526 36.911H129.823V35.208H131.526V36.911Z" fill="white"/>
</svg>
