<svg width="153" height="34" viewBox="0 0 153 34" fill="none" xmlns="http://www.w3.org/2000/svg">
<path d="M14.9228 9.088H13.1028V2.159H14.9228V4.668H16.5868V6.241H14.9228V9.088ZM4.24981 8.828V7.333C7.49981 7.255 9.38481 6.098 9.38481 3.888H4.31481V2.406H11.1398V3.407C11.1398 7.45 7.96781 8.75 4.24981 8.828ZM14.9228 14.236H13.0638V11.09H4.73081V9.582H14.9228V14.236ZM23.2793 8.802C21.4333 8.802 19.9123 7.853 19.9123 5.994V4.967C19.9123 3.108 21.4333 2.146 23.2793 2.146C24.4883 2.146 25.5543 2.549 26.1393 3.355H29.2463V2.159H31.0663V9.166H29.2463V7.541H26.1913C25.6063 8.373 24.5143 8.802 23.2793 8.802ZM21.6543 4.915V6.046C21.6543 6.93 22.3563 7.398 23.2923 7.398C24.2153 7.398 24.9303 6.93 24.9303 6.046V4.915C24.9303 4.031 24.2153 3.55 23.2923 3.55C22.3563 3.55 21.6543 4.031 21.6543 4.915ZM29.2463 6.124V4.759H26.6333C26.6463 4.824 26.6463 4.902 26.6463 4.967V5.994V6.124H29.2463ZM22.8633 9.556H28.7133C30.1433 9.556 31.2613 10.505 31.2613 11.857C31.2613 13.209 30.1433 14.171 28.7133 14.171H22.8633C21.4463 14.171 20.3283 13.209 20.3283 11.857C20.3283 10.505 21.4463 9.556 22.8633 9.556ZM23.1883 12.728H28.3753C28.9993 12.728 29.4413 12.39 29.4413 11.857C29.4413 11.324 28.9993 10.999 28.3753 10.999H23.1883C22.5903 10.999 22.1483 11.324 22.1483 11.857C22.1483 12.39 22.5903 12.728 23.1883 12.728ZM41.5963 3.381V2.159H43.4163V9.179H41.5963V7.58H38.4633C37.8653 8.347 36.8123 8.737 35.6293 8.737C33.7833 8.737 32.2623 7.788 32.2623 5.929V4.967C32.2623 3.108 33.7833 2.146 35.6293 2.146C36.8513 2.146 37.9173 2.562 38.5153 3.381H41.5963ZM37.2803 5.981V4.915C37.2803 4.031 36.5653 3.55 35.6423 3.55C34.7063 3.55 34.0043 4.031 34.0043 4.915V5.981C34.0043 6.865 34.7063 7.333 35.6423 7.333C36.5653 7.333 37.2803 6.865 37.2803 5.981ZM38.9833 6.163H41.5963V4.798H38.9963V4.967V5.929C38.9963 6.007 38.9963 6.085 38.9833 6.163ZM41.5573 11.181H32.7823V9.673H43.4163V14.236H41.5573V11.181ZM53.3613 6.137H46.9913C45.7693 6.137 44.8073 5.292 44.8073 4.174C44.8073 3.043 45.7693 2.198 46.9913 2.198H53.3613C54.5703 2.198 55.5453 3.043 55.5453 4.174C55.5453 5.292 54.5703 6.137 53.3613 6.137ZM47.3943 4.798H52.9713C53.4263 4.798 53.7773 4.551 53.7773 4.161C53.7773 3.797 53.4263 3.55 52.9713 3.55H47.3943C46.9393 3.55 46.5883 3.797 46.5883 4.161C46.5883 4.551 46.9393 4.798 47.3943 4.798ZM56.1043 8.321H44.2483V6.904H56.1043V8.321ZM55.6103 14.106H44.9373V10.999H53.5953V10.349H44.9373V9.14H55.4153V12.143H46.7573V12.845H55.6103V14.106ZM70.8697 14.106H69.0497V2.159H70.8697V6.826H72.4817V8.464H70.8697V14.106ZM65.1367 13.053L60.2097 13.625V2.64H66.9047V13.625H65.1367V13.053ZM61.9907 4.174V11.87L65.1367 11.506V4.174H61.9907ZM80.6847 7.775H75.5627C73.9247 7.775 72.6767 6.579 72.6767 5.071C72.6767 3.55 73.9247 2.354 75.5627 2.354H80.6847C82.3227 2.354 83.5707 3.55 83.5707 5.071C83.5707 6.579 82.3227 7.775 80.6847 7.775ZM75.9137 6.254H80.3337C81.1657 6.254 81.7767 5.76 81.7767 5.071C81.7767 4.382 81.1657 3.888 80.3337 3.888H75.9137C75.0817 3.888 74.4707 4.395 74.4707 5.071C74.4707 5.76 75.0817 6.254 75.9137 6.254ZM79.0467 14.236H77.2007V10.648H72.1957V9.049H84.0517V10.648H79.0467V14.236ZM84.9357 9.036V7.45C87.5617 7.268 89.5507 5.344 89.5507 3.667V2.289H91.3967V3.667C91.3967 5.344 93.3987 7.268 96.0117 7.45V9.036C93.3857 8.958 91.2927 7.606 90.4737 6.007C89.6547 7.606 87.5617 8.958 84.9357 9.036ZM96.4017 13.82H84.5457V12.195H96.4017V13.82ZM105.008 9.101H100.64C98.7287 9.101 97.3767 7.619 97.3767 5.734C97.3767 3.849 98.7287 2.354 100.64 2.354H105.008C106.919 2.354 108.271 3.849 108.271 5.734C108.271 7.619 106.919 9.101 105.008 9.101ZM101.017 7.567H104.631C105.684 7.567 106.438 6.813 106.438 5.734C106.438 4.668 105.684 3.901 104.631 3.901H101.017C99.9767 3.901 99.2227 4.668 99.2227 5.734C99.2227 6.813 99.9767 7.567 101.017 7.567ZM108.752 13.82H96.8957V12.221H101.888V9.569H103.734V12.221H108.752V13.82ZM118.931 6.969V2.159H120.751V14.106H118.931V8.568H116.253V13.625H114.485V13.066L109.662 13.625V2.562H111.443V5.76H114.485V2.562H116.253V6.969H118.931ZM111.443 11.857L114.485 11.519V7.294H111.443V11.857ZM132.175 5.24H125.025V3.693H127.69V2.003H129.51V3.693H132.175V5.24ZM135.867 14.106H134.047V2.159H135.867V6.878H137.479V8.529H135.867V14.106ZM128.6 13.82C126.689 13.82 125.207 12.689 125.207 10.83V8.919C125.207 7.073 126.689 5.942 128.6 5.942C130.511 5.942 131.993 7.073 131.993 8.919V10.83C131.993 12.689 130.511 13.82 128.6 13.82ZM128.6 12.351C129.51 12.351 130.264 11.792 130.264 10.856V8.919C130.264 7.983 129.51 7.424 128.6 7.424C127.703 7.424 126.949 7.983 126.949 8.919V10.856C126.949 11.792 127.703 12.351 128.6 12.351ZM146.891 7.788H144.252V9.01H137.609V2.406H144.252V3.576H146.891V2.159H148.711V10.934H146.891V7.788ZM139.39 7.515H142.484V3.888H139.39V7.515ZM146.891 6.371V4.993H144.252V6.371H146.891ZM140.04 10.076V12.585H148.932V14.106H138.207V10.076H140.04ZM11.5511 31.106H9.73109V19.159H11.5511V23.826H13.3711V25.477H11.5511V31.106ZM1.03409 30.755V29.065C4.37509 28.233 6.11709 25.763 6.10409 21.239H1.09909V19.64H7.87209V20.979C7.87209 26.816 5.36309 29.962 1.03409 30.755ZM24.5901 31.106H22.7441V19.159H24.5901V31.106ZM16.9721 30.82C14.9831 30.82 13.4491 29.559 13.4491 27.7V22.422C13.4491 20.563 14.9831 19.302 16.9721 19.302C18.9611 19.302 20.4951 20.563 20.4951 22.422V27.7C20.4951 29.559 18.9611 30.82 16.9721 30.82ZM16.9851 29.286C18.0121 29.286 18.7271 28.662 18.7271 27.791V22.331C18.7271 21.486 18.0121 20.836 16.9851 20.836C15.9581 20.836 15.2431 21.486 15.2431 22.331V27.791C15.2431 28.662 15.9581 29.286 16.9851 29.286ZM36.7321 26.192H26.1241V19.419H36.6021V21.031H27.9571V24.58H36.7321V26.192ZM37.2911 30.82H25.4351V29.169H37.2911V30.82ZM50.6785 22.305H47.7795V20.836H50.6785V19.159H52.4985V25.386H50.6785V22.305ZM41.2145 25.165V23.605C42.8785 23.176 44.0355 22.071 44.0485 20.459V19.276H45.8555V20.407C45.8555 22.045 46.9995 23.163 48.6895 23.605V25.165C46.9735 24.827 45.5305 23.93 44.9455 22.734C44.3605 23.93 42.9045 24.827 41.2145 25.165ZM52.7715 31.106H42.0465V27.83H50.7305V27.05H42.0465V25.789H52.5505V28.987H43.8665V29.819H52.7715V31.106ZM63.0805 24.45H60.4415V25.607H53.7985V19.406H60.4415V20.355H63.0805V19.159H64.9005V26.205H63.0805V24.45ZM55.5795 24.177H58.6735V20.836H55.5795V24.177ZM63.0805 23.033V21.772H60.4415V23.033H63.0805ZM56.6975 26.556H62.5475C63.9775 26.556 65.0955 27.505 65.0955 28.857C65.0955 30.209 63.9775 31.171 62.5475 31.171H56.6975C55.2805 31.171 54.1625 30.209 54.1625 28.857C54.1625 27.505 55.2805 26.556 56.6975 26.556ZM57.0225 29.728H62.2095C62.8335 29.728 63.2755 29.39 63.2755 28.857C63.2755 28.337 62.8335 27.999 62.2095 27.999H57.0225C56.4245 27.999 55.9825 28.337 55.9825 28.857C55.9825 29.39 56.4245 29.728 57.0225 29.728ZM74.8455 23.137H68.4755C67.2535 23.137 66.2915 22.292 66.2915 21.174C66.2915 20.043 67.2535 19.198 68.4755 19.198H74.8455C76.0545 19.198 77.0295 20.043 77.0295 21.174C77.0295 22.292 76.0545 23.137 74.8455 23.137ZM68.8785 21.798H74.4555C74.9105 21.798 75.2615 21.551 75.2615 21.161C75.2615 20.797 74.9105 20.55 74.4555 20.55H68.8785C68.4235 20.55 68.0725 20.797 68.0725 21.161C68.0725 21.551 68.4235 21.798 68.8785 21.798ZM77.5885 25.321H65.7325V23.904H77.5885V25.321ZM77.0945 31.106H66.4215V27.999H75.0795V27.349H66.4215V26.14H76.8995V29.143H68.2415V29.845H77.0945V31.106ZM88.142 23.189V24.164H93.186V25.568H81.33V24.164H86.361V23.189H82.019V19.133H83.826V19.952H90.677V19.133H92.497V23.189H88.142ZM90.677 21.213H83.826V21.928H90.677V21.213ZM92.497 29.221H83.839V29.871H92.692V31.106H82.019V28.077H90.677V27.492H82.019V26.283H92.497V29.221ZM97.3955 24.723V23.163C100.021 23.111 101.932 21.408 101.932 19.9V19.354H103.778V19.9C103.778 21.408 105.702 23.111 108.315 23.163V24.723C105.624 24.684 103.609 23.449 102.855 22.058C102.075 23.449 100.099 24.684 97.3955 24.723ZM103.778 31.236H101.932V27.518H96.9275V25.932H108.783V27.518H103.778V31.236ZM116.425 25.373C114.475 25.373 112.889 24.437 112.889 22.617V21.915C112.889 20.095 114.475 19.146 116.425 19.146C118.375 19.146 119.961 20.095 119.961 21.915V22.617C119.961 24.437 118.375 25.373 116.425 25.373ZM124.043 25.672H122.197V19.159H124.043V25.672ZM116.438 23.995C117.413 23.995 118.167 23.54 118.167 22.708V21.837C118.167 21.005 117.413 20.524 116.438 20.524C115.437 20.524 114.696 21.005 114.696 21.837V22.708C114.696 23.54 115.437 23.995 116.438 23.995ZM118.804 31.301C117.517 30.989 116.542 30.235 116.139 29.377C115.697 30.287 114.553 30.989 112.993 31.106V29.585C114.475 29.377 115.255 28.376 115.255 27.258V26.387H116.971V27.258C116.971 28.402 117.829 29.39 118.804 29.728C119.857 29.39 120.689 28.363 120.702 27.206V26.257H122.405V27.18C122.405 28.311 123.12 29.351 124.68 29.559V31.106C123.185 30.989 122.041 30.287 121.573 29.39C121.144 30.248 120.13 31.002 118.804 31.301ZM134.56 23.969V19.159H136.38V31.106H134.56V25.568H131.947V27.7C131.947 29.559 130.491 30.82 128.593 30.82C126.695 30.82 125.239 29.559 125.239 27.7V22.422C125.239 20.563 126.695 19.302 128.593 19.302C130.491 19.302 131.947 20.563 131.947 22.422V23.969H134.56ZM130.218 27.804V22.318C130.218 21.473 129.555 20.836 128.593 20.836C127.644 20.836 126.981 21.473 126.981 22.318V27.804C126.981 28.675 127.644 29.286 128.593 29.286C129.555 29.286 130.218 28.675 130.218 27.804ZM145.337 26.101H140.969C139.058 26.101 137.706 24.619 137.706 22.734C137.706 20.849 139.058 19.354 140.969 19.354H145.337C147.248 19.354 148.6 20.849 148.6 22.734C148.6 24.619 147.248 26.101 145.337 26.101ZM141.346 24.567H144.96C146.013 24.567 146.767 23.813 146.767 22.734C146.767 21.668 146.013 20.901 144.96 20.901H141.346C140.306 20.901 139.552 21.668 139.552 22.734C139.552 23.813 140.306 24.567 141.346 24.567ZM149.081 30.82H137.225V29.221H139.916V26.634H141.658V29.221H144.687V26.634H146.429V29.221H149.081V30.82ZM150.16 27.791L150.043 24.151V19.081H151.798V24.151L151.681 27.791H150.16ZM151.772 30.911H150.069V29.208H151.772V30.911Z" fill="white"/>
</svg>
