<svg width="43" height="39" viewBox="0 0 43 39" fill="none" xmlns="http://www.w3.org/2000/svg">
<path d="M22.336 25.1827V25.0629C22.336 25.0629 22.336 25.023 22.336 25.003V22.8078C22.336 22.5284 22.5537 22.3089 22.8307 22.3089H24.8688C26.0758 21.82 27.3719 21.5805 28.668 21.5905C29.9641 21.5705 31.2601 21.82 32.4672 22.3089H34.5053C34.7823 22.3089 35 22.5284 35 22.8078V25.003C35 25.003 35 25.043 35 25.0629V25.1827C35 27.1584 32.1605 28.7649 28.668 28.7649C25.1755 28.7649 22.336 27.1584 22.336 25.1827Z" fill="#E98F0D"/>
<path d="M28.668 26.6196C32.165 26.6196 35 24.8549 35 22.6781C35 20.5013 32.165 18.7367 28.668 18.7367C25.1709 18.7367 22.336 20.5013 22.336 22.6781C22.336 24.8549 25.1709 26.6196 28.668 26.6196Z" fill="#FDCC44"/>
<path d="M22.336 21.6004V21.4807C22.336 21.4807 22.336 21.4408 22.336 21.4208V19.2256C22.336 18.9462 22.5537 18.7267 22.8307 18.7267H24.8688C26.0758 18.2378 27.3719 17.9983 28.668 18.0083C29.9641 17.9883 31.2601 18.2378 32.4672 18.7267H34.5053C34.7823 18.7267 35 18.9462 35 19.2256V21.4208C35 21.4208 35 21.4607 35 21.4807V21.6004C35 23.5761 32.1605 25.1827 28.668 25.1827C25.1755 25.1827 22.336 23.5761 22.336 21.6004Z" fill="#E98F0D"/>
<path d="M28.668 23.0373C32.165 23.0373 35 21.2727 35 19.0959C35 16.9191 32.165 15.1545 28.668 15.1545C25.1709 15.1545 22.336 16.9191 22.336 19.0959C22.336 21.2727 25.1709 23.0373 28.668 23.0373Z" fill="#FDCC44"/>
<path d="M22.336 18.0282V17.9085C22.336 17.9085 22.336 17.8686 22.336 17.8486V15.6534C22.336 15.374 22.5537 15.1545 22.8307 15.1545H24.8688C26.0758 14.6655 27.3719 14.4261 28.668 14.436C29.974 14.4161 31.2601 14.6655 32.4672 15.1545H34.5053C34.7823 15.1545 35 15.374 35 15.6534V17.8486C35 17.8486 35 17.8885 35 17.9085V18.0282C35 20.0039 32.1605 21.6105 28.668 21.6105C25.1755 21.6105 22.336 20.0039 22.336 18.0282Z" fill="#E98F0D"/>
<path d="M28.668 19.4651C32.165 19.4651 35 17.7004 35 15.5236C35 13.3469 32.165 11.5822 28.668 11.5822C25.1709 11.5822 22.336 13.3469 22.336 15.5236C22.336 17.7004 25.1709 19.4651 28.668 19.4651Z" fill="#FDCC44"/>
<path d="M22.336 14.446V14.3262C22.336 14.3262 22.336 14.2863 22.336 14.2664V12.0711C22.336 11.7917 22.5537 11.5722 22.8307 11.5722H24.8688C26.0758 11.0833 27.3719 10.8438 28.668 10.8538C29.9641 10.8338 31.2601 11.0833 32.4672 11.5722H34.5053C34.7823 11.5722 35 11.7917 35 12.0711V14.2664C35 14.2664 35 14.3063 35 14.3262V14.446C35 16.4217 32.1605 18.0282 28.668 18.0282C25.1755 18.0282 22.336 16.4217 22.336 14.446Z" fill="#E98F0D"/>
<path d="M28.668 15.8829C32.1651 15.8829 35 14.1182 35 11.9414C35 9.76464 32.1651 8 28.668 8C25.1709 8 22.336 9.76464 22.336 11.9414C22.336 14.1182 25.1709 15.8829 28.668 15.8829Z" fill="#FDCC44"/>
<path d="M12.1949 27.4178V27.2981C12.1949 27.2981 12.1949 27.2582 12.1949 27.2382V25.043C12.1949 24.7636 12.4126 24.5441 12.6896 24.5441H14.7277C15.9348 24.0551 17.2309 23.8157 18.5269 23.8256C19.823 23.8057 21.1191 24.0551 22.3261 24.5441H24.3642C24.6413 24.5441 24.8589 24.7636 24.8589 25.043V27.2382C24.8589 27.2382 24.8589 27.2781 24.8589 27.2981V27.4178C24.8589 29.3935 22.0194 31 18.5269 31C15.0344 31 12.1949 29.3935 12.1949 27.4178Z" fill="#E98F0D"/>
<path d="M18.5369 28.8547C22.034 28.8547 24.8689 27.09 24.8689 24.9132C24.8689 22.7364 22.034 20.9718 18.5369 20.9718C15.0399 20.9718 12.2049 22.7364 12.2049 24.9132C12.2049 27.09 15.0399 28.8547 18.5369 28.8547Z" fill="#FDCC44"/>
<path d="M12.1949 23.8356V23.7159C12.1949 23.7159 12.1949 23.676 12.1949 23.656V21.4608C12.1949 21.1814 12.4126 20.9619 12.6896 20.9619H14.7277C15.9348 20.4729 17.2309 20.2334 18.5269 20.2434C19.8329 20.2235 21.1191 20.4729 22.3261 20.9619H24.3642C24.6413 20.9619 24.8589 21.1814 24.8589 21.4608V23.656C24.8589 23.656 24.8589 23.6959 24.8589 23.7159V23.8356C24.8589 25.8113 22.0194 27.4178 18.5269 27.4178C15.0344 27.4178 12.1949 25.8113 12.1949 23.8356Z" fill="#E98F0D"/>
<path d="M18.5369 25.2725C22.034 25.2725 24.8689 23.5079 24.8689 21.3311C24.8689 19.1543 22.034 17.3896 18.5369 17.3896C15.0399 17.3896 12.2049 19.1543 12.2049 21.3311C12.2049 23.5079 15.0399 25.2725 18.5369 25.2725Z" fill="#FDCC44"/>
<path d="M12.1949 20.2534V20.1337C12.1949 20.1337 12.1949 20.0937 12.1949 20.0738V17.8786C12.1949 17.5992 12.4126 17.3796 12.6896 17.3796H14.7277C15.9348 16.8907 17.2309 16.6512 18.5269 16.6612C19.823 16.6412 21.1191 16.8907 22.3261 17.3796H24.3642C24.6413 17.3796 24.8589 17.5992 24.8589 17.8786V20.0738C24.8589 20.0738 24.8589 20.1137 24.8589 20.1337V20.2534C24.8589 22.2291 22.0194 23.8356 18.5269 23.8356C15.0344 23.8356 12.1949 22.2291 12.1949 20.2534Z" fill="#E98F0D"/>
<path d="M18.5369 21.6902C22.034 21.6902 24.8689 19.9256 24.8689 17.7488C24.8689 15.572 22.034 13.8074 18.5369 13.8074C15.0399 13.8074 12.2049 15.572 12.2049 17.7488C12.2049 19.9256 15.0399 21.6902 18.5369 21.6902Z" fill="#FDCC44"/>
<path d="M12.9469 20.9518C15.6789 20.9518 17.8937 18.7181 17.8937 15.9627C17.8937 13.2072 15.6789 10.9735 12.9469 10.9735C10.2148 10.9735 8 13.2072 8 15.9627C8 18.7181 10.2148 20.9518 12.9469 20.9518Z" fill="#E26037"/>
<path d="M14.7277 16.0425H13.8966V14.0967C13.8966 13.6377 13.6493 13.5479 13.3525 13.8872L13.1348 14.1366L11.3144 16.2221C11.067 16.5115 11.166 16.741 11.5419 16.741H12.373V18.6867C12.373 19.1358 12.6204 19.2356 12.9172 18.8963L13.1348 18.6468L14.9553 16.5614C15.2026 16.282 15.1037 16.0425 14.7277 16.0425Z" fill="white"/>
</svg>
