<svg width="16" height="16" viewBox="0 0 16 16" fill="none" xmlns="http://www.w3.org/2000/svg">
<g clip-path="url(#clip0_97_1381)">
<path d="M9.481 10.406C9.54101 10.4678 9.61307 10.5166 9.6927 10.5495C9.77234 10.5823 9.85787 10.5985 9.944 10.597C10.0336 10.5968 10.1222 10.5784 10.2044 10.5428C10.2865 10.5072 10.3606 10.4552 10.422 10.39C10.4879 10.3272 10.5403 10.2516 10.5759 10.1679C10.6115 10.0841 10.6295 9.99399 10.629 9.90299C10.6304 9.81436 10.6126 9.72647 10.5769 9.64535C10.5412 9.56422 10.4883 9.49178 10.422 9.43299L8.669 7.72899V5.49799C8.67037 5.41202 8.65414 5.32669 8.62129 5.24723C8.58844 5.16778 8.53968 5.09589 8.478 5.03599C8.38299 4.94395 8.2631 4.88176 8.13314 4.8571C8.00317 4.83245 7.86884 4.84641 7.74672 4.89725C7.6246 4.9481 7.52006 5.03361 7.446 5.14321C7.37194 5.25282 7.33161 5.38172 7.33 5.51399V7.98399C7.32986 8.06865 7.34616 8.15254 7.378 8.23099C7.41036 8.31173 7.45904 8.38493 7.521 8.44599L9.481 10.406ZM8 14.375C7.14577 14.3811 6.29946 14.2108 5.514 13.875C3.98687 13.2303 2.77165 12.0151 2.127 10.488C1.79114 9.70252 1.62093 8.85622 1.627 8.00199C1.62093 7.14775 1.79114 6.30145 2.127 5.51599C2.77122 3.9881 3.9865 2.77211 5.514 2.12699C6.29946 1.79113 7.14577 1.62092 8 1.62699C8.85423 1.62092 9.70053 1.79113 10.486 2.12699C12.0131 2.77163 13.2284 3.98686 13.873 5.51399C14.2089 6.29945 14.3791 7.14575 14.373 7.99999C14.3791 8.85422 14.2089 9.70052 13.873 10.486C13.2284 12.0131 12.0131 13.2283 10.486 13.873C9.70068 14.2095 8.85437 14.3804 8 14.375ZM8 13.036C8.66254 13.0456 9.32004 12.9194 9.93195 12.6652C10.5439 12.411 11.0973 12.0342 11.558 11.558C12.034 11.0964 12.4103 10.5423 12.6638 9.92962C12.9174 9.31699 13.0427 8.65891 13.032 7.99599C13.0421 7.33373 12.9165 6.67641 12.6631 6.06451C12.4096 5.45261 12.0335 4.89907 11.558 4.43799C11.0969 3.9625 10.5434 3.58643 9.93147 3.33294C9.31957 3.07944 8.66226 2.95388 8 2.96399C7.33707 2.95333 6.67899 3.07862 6.06636 3.33214C5.45373 3.58565 4.89955 3.96201 4.438 4.43799C3.96202 4.89954 3.58566 5.45372 3.33215 6.06635C3.07864 6.67898 2.95334 7.33706 2.964 7.99999C2.95389 8.66224 3.07945 9.31956 3.33295 9.93146C3.58645 10.5434 3.96251 11.0969 4.438 11.558C4.89921 12.0347 5.45324 12.4118 6.06588 12.666C6.67853 12.9202 7.33678 13.0461 8 13.036Z" fill="#8B8E97"/>
</g>
<defs>
<clipPath id="clip0_97_1381">
<rect width="16" height="16" fill="white"/>
</clipPath>
</defs>
</svg>
