<svg width="43" height="42" viewBox="0 0 43 42" fill="none" xmlns="http://www.w3.org/2000/svg">
<path d="M22 32C28.6274 32 34 26.6274 34 20C34 13.3726 28.6274 8 22 8C15.3726 8 10 13.3726 10 20C10 26.6274 15.3726 32 22 32Z" fill="#E19A0C"/>
<path d="M20 32C26.6274 32 32 26.6274 32 20C32 13.3726 26.6274 8 20 8C13.3726 8 8 13.3726 8 20C8 26.6274 13.3726 32 20 32Z" fill="#FDCC44"/>
<path d="M17.6 23.78V17.9L19.81 23.78H21.44L23.65 17.9V23.78H25.25V15.22H23.07L20.63 21.75L18.18 15.22H16V23.78H17.6Z" fill="#A55300"/>
<path d="M29.5 34C32.5376 34 35 31.5376 35 28.5C35 25.4624 32.5376 23 29.5 23C26.4624 23 24 25.4624 24 28.5C24 31.5376 26.4624 34 29.5 34Z" fill="#E26037"/>
<path d="M29.5 31.19C29.09 31.19 28.75 30.85 28.75 30.44V26.5C28.75 26.09 29.09 25.75 29.5 25.75C29.91 25.75 30.25 26.09 30.25 26.5V30.44C30.25 30.85 29.91 31.19 29.5 31.19Z" fill="white"/>
<path d="M31.47 29.22H27.53C27.12 29.22 26.78 28.88 26.78 28.47C26.78 28.06 27.12 27.72 27.53 27.72H31.47C31.88 27.72 32.22 28.06 32.22 28.47C32.22 28.88 31.88 29.22 31.47 29.22Z" fill="white"/>
</svg>
