<svg width="40" height="40" viewBox="0 0 40 40" fill="none" xmlns="http://www.w3.org/2000/svg">
<path d="M27.5189 15.7192H12.6918C11.0541 15.7192 9.72644 17.0349 9.72644 18.658V29.071C9.72644 30.6941 11.0541 32.0098 12.6918 32.0098H27.5189C29.1566 32.0098 30.4843 30.6941 30.4843 29.071V18.658C30.4843 17.0349 29.1566 15.7192 27.5189 15.7192Z" fill="#D0D1D2"/>
<path d="M18.5041 25.1429H21.7166C22.2602 25.1429 22.7051 25.5837 22.7051 26.1225V32H17.5156V26.1225C17.5156 25.5837 17.9604 25.1429 18.5041 25.1429Z" fill="#919FAC"/>
<path d="M31.9769 15.8465L31.6408 12.751C31.1565 9.37143 30.4349 8 26.1944 8H13.7891C9.5288 8 8.82699 9.37143 8.33275 12.7902L8.02633 15.8563C7.89783 17.022 8.24379 18.1976 8.97526 19.1184C9.87476 20.2351 11.2586 20.8816 12.7018 20.8522C14.1647 20.8424 15.5387 20.1665 16.4283 19.0204C17.8715 20.9992 20.6491 21.4498 22.6458 20.0196C23.0214 19.7551 23.3476 19.4318 23.6243 19.0694C24.514 20.1861 25.8781 20.8424 27.3113 20.862C28.794 20.8914 30.1977 20.2155 31.0972 19.04C31.7891 18.129 32.1054 16.9927 31.9868 15.8563L31.9769 15.8465Z" fill="#FF662D"/>
<path d="M16.3195 8H23.6737L24.5436 16.3559C24.5436 18.8441 22.5073 20.8522 20.0065 20.8522C17.4958 20.8522 15.4695 18.8343 15.4695 16.3559L16.3393 8H16.3195Z" fill="white"/>
</svg>
