<svg width="40" height="14" viewBox="0 0 40 14" fill="none" xmlns="http://www.w3.org/2000/svg">
<g clip-path="url(#clip0_97_1376)">
<path d="M37 0H3C1.34315 0 0 1.34315 0 3V11C0 12.6569 1.34315 14 3 14H37C38.6569 14 40 12.6569 40 11V3C40 1.34315 38.6569 0 37 0Z" fill="#FF9000"/>
<path d="M9.5625 9.71094V2.25781H10.5781V5.17969H11.6875V6.15625H10.5781V9.71094H9.5625ZM4.79688 8.3125V2.79688H5.76562V4.60938H7.42969V2.79688H8.39844V8.3125H4.79688ZM5.76562 7.41406H7.42969V5.51562H5.76562V7.41406ZM12.3125 9.03125V8.16406H15.4688V6.72656H16.5078V8.16406H19.5547V9.03125H12.3125ZM13.3516 7.11719V4.49219H17.5859V3.55469H13.3047V2.6875H18.5781V5.32031H14.3359V6.25H18.6719V7.11719H13.3516ZM21.6719 9.61719V7.57031H26.0078V7.0625H21.6406V6.25H27V8.26562H22.6641V8.80469H27.1562V9.61719H21.6719ZM24.2891 5.46875V4.64062H25.9844V4.02344H24.3984V3.19531H25.9844V2.25781H26.9922V6.01562H25.9844V5.46875H24.2891ZM20.4688 5.39844C21.2448 5.17969 21.8958 4.89844 22.4219 4.55469C22.9531 4.20573 23.276 3.82552 23.3906 3.41406H20.9375V2.55469H24.5469C24.5469 2.98698 24.4609 3.38802 24.2891 3.75781C24.1224 4.1276 23.9167 4.4375 23.6719 4.6875C23.4323 4.93229 23.1406 5.15625 22.7969 5.35938C22.4583 5.5625 22.1484 5.71875 21.8672 5.82812C21.5911 5.9375 21.2995 6.03646 20.9922 6.125L20.4688 5.39844ZM34.0156 9.71094V2.25781H34.9922V9.71094H34.0156ZM31.4375 5.9375V4.99219H32.4453V2.46094H33.3594V9.38281H32.4453V5.9375H31.4375ZM28.2031 8.01562C29.224 7.14062 29.7344 6.08073 29.7344 4.83594V3.82031H28.5938V2.96094H31.8984V3.82031H30.75V4.80469C30.75 5.16927 30.7995 5.52344 30.8984 5.86719C31.0026 6.21094 31.138 6.51302 31.3047 6.77344C31.4714 7.02865 31.6224 7.23958 31.7578 7.40625C31.8984 7.56771 32.0391 7.71354 32.1797 7.84375L31.4844 8.41406C31.276 8.24219 31.0495 7.98698 30.8047 7.64844C30.5599 7.30469 30.3828 6.99219 30.2734 6.71094C30.1693 7.0026 29.9792 7.34635 29.7031 7.74219C29.4271 8.13802 29.1745 8.42708 28.9453 8.60938L28.2031 8.01562Z" fill="white"/>
</g>
<defs>
<clipPath id="clip0_97_1376">
<rect width="40" height="14" fill="white"/>
</clipPath>
</defs>
</svg>
