<svg width="60" height="60" viewBox="0 0 60 60" fill="none" xmlns="http://www.w3.org/2000/svg">
<g clip-path="url(#clip0_97_1333)">
<path d="M52.7025 0H7.2975C3.2672 0 0 3.2672 0 7.2975V52.7025C0 56.7328 3.2672 60 7.2975 60H52.7025C56.7328 60 60 56.7328 60 52.7025V7.2975C60 3.2672 56.7328 0 52.7025 0Z" fill="white"/>
<path d="M23.0175 49.395V50.9475H24.5685L24.57 52.5H19.917L19.9125 50.9475H21.4665V49.395H23.0175Z" fill="black"/>
<path d="M36.9825 19.914H35.43L35.4315 21.4665H33.879V19.9125L30.7755 19.9155V18.363H32.328V16.8105H30.7755L30.777 15.2595H29.223L29.226 13.7055L32.3265 13.7085L32.3295 12.156H30.7755V10.6035L32.328 10.605V9.0525H30.7725L30.78 7.5H36.978L36.9855 9.0525H35.43L35.4315 10.605L33.879 10.6035V12.156H35.4315L35.43 10.6035L36.984 10.605L36.981 13.707L38.535 13.7085L38.5335 12.153L40.086 12.1605V18.3585L38.5335 18.363L38.535 15.2595H36.9825V13.707H35.43L35.4315 15.2595H33.879V18.3615L35.4315 18.3645L35.43 16.809L36.9825 16.8135V19.914Z" fill="black"/>
<path d="M23.0143 16.8105L23.014 18.3615L24.565 18.3617L24.5653 16.8107L23.0143 16.8105Z" fill="black"/>
<path d="M27.672 18.363H26.121V16.8105H24.5685L24.57 15.258L27.6735 15.2595L27.672 18.363Z" fill="black"/>
<path d="M23.0175 18.363L23.019 23.0145L21.4665 23.019V24.57L19.914 24.5685L19.9155 21.465H16.812L16.809 23.0175H18.363V24.5685H16.8105V26.121H18.363V27.6735L15.258 27.672L15.2595 23.0175H12.156V19.914L21.4575 19.9155L21.4695 18.3615L19.914 18.363V16.8105H21.4665L21.465 18.363H23.0175Z" fill="black"/>
<path d="M30.7755 16.8105H29.2245V18.363H30.7755V16.8105Z" fill="black"/>
<path d="M29.2245 18.363V27.6675L30.7755 27.672L30.777 29.2245L29.2245 29.223V30.7785L27.672 30.7725L27.6735 26.121L24.57 26.1195L24.5685 27.672L26.1225 27.6735L26.121 30.7755H24.5685L24.57 27.6735L23.016 27.6705L23.0175 24.5685L26.1195 24.57L26.121 23.0175H27.6735V21.465L26.1195 21.4665V19.914H27.672V18.363H29.2245Z" fill="black"/>
<path d="M12.156 23.0175V24.5685L7.5015 24.57L7.5 19.917L9.054 19.914L9.0525 23.0175H12.156Z" fill="black"/>
<path d="M40.086 23.0175V21.465L36.9825 21.4665V19.914H41.637L41.6385 23.0175H40.086Z" fill="black"/>
<path d="M33.879 21.4665V26.1195L35.4315 26.121L35.43 27.672H33.876L33.885 29.2245H40.086V30.7755H38.535L38.532 32.328H33.882L33.879 30.7755H32.328V27.678L30.7755 27.672V26.121H32.328V24.5685L30.7755 24.57V23.0175H32.328L32.3265 21.465L33.879 21.4665Z" fill="black"/>
<path d="M40.086 23.0175L40.0845 26.118L41.6385 26.1225L41.637 29.2245H40.086V27.672L36.984 27.6735L36.9825 26.1225L35.4315 26.121V24.5685L38.5335 24.57L38.535 23.0175H40.086Z" fill="black"/>
<path d="M13.7085 24.5685H12.156V26.121H13.7085V24.5685Z" fill="black"/>
<path d="M19.914 24.5685V26.121H21.4665V27.6735H19.914V26.1195L18.363 26.121V24.5685H19.914Z" fill="black"/>
<path d="M41.637 30.7755V29.2245H43.191L43.188 26.121H44.7405V24.5685L46.293 24.57V23.0175L44.739 23.016L44.7405 19.9155L46.293 19.9125L46.2915 21.4665H47.844L47.847 19.914H52.4985L52.5 23.016L50.9475 23.019V21.465H49.395L49.3965 23.0175L47.8425 23.019V26.1195L49.3965 26.1225L49.395 24.5685H50.9475V26.121L52.5 26.1195V27.6735H50.946L50.9475 26.1195L49.395 26.1225V29.223L50.9475 29.2245V30.7755L49.3935 30.777L49.3965 33.8775L47.844 33.879V35.4315H46.2915L46.293 33.879H44.7405V30.777L46.293 30.7755L46.2915 33.8805L47.844 33.8745V27.675L46.293 27.672V26.1195L44.739 26.1225L44.742 29.223L43.1895 29.2245V30.7755H41.637Z" fill="black"/>
<path d="M30.7766 30.7764L30.7764 32.3289L32.3274 32.3291L32.3276 30.7766L30.7766 30.7764Z" fill="black"/>
<path d="M41.6385 30.7755H40.086V32.328H41.6385V30.7755Z" fill="black"/>
<path d="M9.0525 32.328L9.051 35.4285L10.605 35.433V33.879H12.156V36.9825L15.258 36.984L15.261 35.43H18.3615V36.984L15.2595 36.981V38.5335H12.159L12.153 40.086H7.5V32.3325L9.0525 32.328Z" fill="black"/>
<path d="M12.156 26.121V27.6735L13.7085 27.672V29.2245L12.1545 29.223L12.156 30.777L13.7055 30.7755L13.7145 29.2245H23.016L23.0175 32.3265L24.5685 32.328L24.5715 33.8805H29.2215L29.2245 32.3265L30.7755 32.328V35.4315L27.6735 35.43L27.672 36.9825H26.121L26.1195 35.43L23.019 35.4315L23.0175 33.879H21.465L21.4665 32.3265H19.914V33.8805H16.812V32.3265L19.914 32.3295L19.911 30.7755H15.2595V33.879H12.156V32.3265L9.0525 32.328L9.054 29.226L7.5 29.2245V27.672L9.0525 27.6735L9.054 26.1195L12.156 26.121Z" fill="black"/>
<path d="M30.7755 36.9825V35.4315H32.3265L32.328 33.8775L35.4285 33.879L35.433 35.4315L40.083 35.43L40.0845 36.9825H35.433L35.43 35.43H33.879L33.8775 36.984L30.7755 36.9825Z" fill="black"/>
<path d="M47.844 43.1895H46.2915V44.742H47.844V46.293H49.3965V44.7405H50.949L50.946 47.8425H52.5V49.395H50.9475V50.9475H49.395V49.3935L47.8425 49.398V52.5H40.0905L40.0815 50.949H41.6385L41.6355 47.847H43.1895V46.2945H41.637V47.847H40.0845V46.2945H38.532V44.742H36.9795V43.191H35.4285V41.637L38.5305 41.64V40.086L35.427 40.089L35.433 38.535H41.6355V33.885L43.188 33.879V35.433H44.7375L44.742 36.9855H50.9415L50.946 38.5365H52.497V41.6385L50.9445 41.6415V40.0875H49.392V41.6415L47.8395 41.6385L47.8425 38.5365H46.2885V41.6385H47.841V43.191L47.844 43.1895ZM44.7405 40.086H40.086V44.7405H44.7405V40.086ZM43.1955 50.9505L46.2945 50.9475V46.296L44.7405 46.293L44.7435 49.395H43.188L43.197 50.9505H43.1955Z" fill="black"/>
<path d="M27.672 46.293V47.844H24.5685L24.57 46.2915H23.0175V47.844H19.914L19.9155 40.086H15.2625L15.2595 38.5335L19.911 38.535L19.9155 36.9795L21.4665 36.9885L21.465 44.7345L23.0175 44.7435V43.1895L24.57 43.1865V38.5365L23.0175 38.5335V36.9825H24.57L24.5685 38.5335L26.121 38.538L26.1195 46.2915L27.672 46.293Z" fill="black"/>
<path d="M30.7755 36.9825V38.535H33.8805V43.1895H35.4315V44.7405H33.879V47.8425H35.4315V49.3935H36.984V50.946H38.535V52.4985H36.9825V50.946H35.4315V52.5L33.879 52.497L33.882 49.395H32.328L32.3295 52.4985H29.226V50.946H27.6735V47.8425H30.7755V46.2915H27.6735V44.7405L29.226 44.7375V40.0875L27.6735 40.0845V38.5335H29.226V36.981H30.777L30.7755 36.9825ZM32.328 40.086H30.777V43.1895H32.328V40.086Z" fill="black"/>
<path d="M49.395 43.1895H47.844V44.7405H49.395V43.1895Z" fill="black"/>
<path d="M26.121 49.395H24.5685V50.9475H26.121V49.395Z" fill="black"/>
<path d="M35.4333 46.2913L35.4325 47.8438L38.5345 47.8455L38.5353 46.293L35.4333 46.2913Z" fill="black"/>
<path d="M24.5685 47.844H23.0175V49.395H24.5685V47.844Z" fill="black"/>
<path d="M18.363 7.5015V18.363H7.5015V7.5015H18.363ZM16.8105 9.0525H9.0525V16.8105H16.8105V9.0525Z" fill="black"/>
<path d="M52.4985 7.5015V18.363H41.637V7.5015H52.4985ZM50.9475 9.0525H43.1895V16.8105H50.9475V9.0525Z" fill="black"/>
<path d="M18.363 41.637V52.4985H7.5015V41.637H18.363ZM16.8105 43.1895H9.0525V50.9475H16.8105V43.1895Z" fill="black"/>
<path d="M21.4665 13.7025V15.2595H19.914V13.707L21.4665 13.7085V12.156L19.914 12.1545V7.503L21.4665 7.5015L21.465 10.605L24.567 10.6035L24.57 12.156H23.0175L23.019 13.71L21.4665 13.7025Z" fill="black"/>
<path d="M27.672 10.605H26.121V13.7085H27.672V10.605Z" fill="black"/>
<path d="M27.672 7.5015H26.121V9.0525H27.672V7.5015Z" fill="black"/>
<path d="M40.0845 9.05249H38.5335V10.6035H40.0845V9.05249Z" fill="black"/>
<path d="M43.188 41.637H41.637V43.188H43.188V41.637Z" fill="black"/>
<path d="M15.2595 10.605H10.605V15.2595H15.2595V10.605Z" fill="black"/>
<path d="M49.395 10.605H44.7405V15.2595H49.395V10.605Z" fill="black"/>
<path d="M15.2595 44.7405H10.605V49.395H15.2595V44.7405Z" fill="black"/>
</g>
<defs>
<clipPath id="clip0_97_1333">
<rect width="60" height="60" fill="white"/>
</clipPath>
</defs>
</svg>
